<?xml version="1.0" encoding="UTF-8" standalone="no"?><!DOCTYPE svg PUBLIC "-//W3C//DTD SVG 1.1//EN" "http://www.w3.org/Graphics/SVG/1.1/DTD/svg11.dtd"><svg width="100%" height="100%" viewBox="0 0 16 16" version="1.1" xmlns="http://www.w3.org/2000/svg" xmlns:xlink="http://www.w3.org/1999/xlink" xml:space="preserve" xmlns:serif="http://www.serif.com/" style="fill-rule:evenodd;clip-rule:evenodd;stroke-linejoin:round;stroke-miterlimit:1.41421;"><path d="M8,1c-2.194,0 -4,1.806 -4,4l0,1.984l-0.5,0c-0.823,0 -1.5,0.677 -1.5,1.5l0,5.016c0,0.823 0.677,1.5 1.5,1.5l2.535,0c-0.064,-0.45 0.008,-0.909 0.207,-1.318l3.188,-6.412c0.059,-0.1 0.126,-0.196 0.2,-0.286l-3.63,0l0,-1.984c0,-1.097 0.903,-2 2,-2c1.097,0 2,0.903 2,2l0,1.568c0.408,-0.362 0.933,-0.564 1.478,-0.568c0.176,0.004 0.351,0.029 0.522,0.073l0,-1.073c0,-2.194 -1.806,-4 -4,-4Z" style="fill:#787878;fill-rule:nonzero;"/><path d="M15.818,14.127l-3.189,-6.411c-0.217,-0.435 -0.664,-0.712 -1.15,-0.712c-0.486,0 -0.933,0.277 -1.15,0.712l-3.192,6.411c-0.09,0.18 -0.137,0.378 -0.137,0.579c0,0.708 0.581,1.291 1.289,1.294l6.377,0c0.708,-0.003 1.289,-0.586 1.289,-1.294c0,-0.201 -0.047,-0.399 -0.137,-0.579Z" style="fill:#ffbf00;fill-rule:nonzero;"/><path d="M11.478,8c0.11,-0.003 0.211,0.061 0.256,0.161l3.188,6.412c0.048,0.092 0.043,0.203 -0.013,0.291c-0.05,0.086 -0.143,0.139 -0.243,0.137l-6.377,0c-0.1,0.002 -0.193,-0.051 -0.243,-0.137c-0.056,-0.088 -0.061,-0.199 -0.013,-0.291l3.188,-6.412c0.045,-0.101 0.147,-0.164 0.257,-0.161m0,-1c-0.489,-0.003 -0.938,0.276 -1.152,0.716l-3.189,6.411c-0.09,0.18 -0.137,0.378 -0.137,0.579c0,0.708 0.581,1.291 1.289,1.294l6.377,0c0.708,-0.003 1.289,-0.586 1.289,-1.294c0,-0.201 -0.047,-0.399 -0.137,-0.579l-3.189,-6.411c-0.214,-0.44 -0.662,-0.719 -1.151,-0.716Z" style="fill:#d76e00;fill-opacity:0.35;fill-rule:nonzero;"/><path d="M11.5,12c0.274,0 0.5,-0.226 0.5,-0.5l0,-2c0,-0.274 -0.226,-0.5 -0.5,-0.5c-0.274,0 -0.5,0.226 -0.5,0.5l0,2c0,0.274 0.226,0.5 0.5,0.5Zm0,0.809c-0.379,0 -0.691,0.312 -0.691,0.691c0,0.379 0.312,0.691 0.691,0.691c0.379,0 0.691,-0.312 0.691,-0.691c0,-0.379 -0.312,-0.691 -0.691,-0.691Z" style="fill:#fff;fill-rule:nonzero;"/></svg>