<?xml version="1.0" encoding="UTF-8" standalone="no"?>
<!DOCTYPE svg PUBLIC "-//W3C//DTD SVG 1.1//EN" "http://www.w3.org/Graphics/SVG/1.1/DTD/svg11.dtd">
<svg width="96" height="96" viewBox="0 0 96 96" version="1.1" xmlns="http://www.w3.org/2000/svg" xmlns:xlink="http://www.w3.org/1999/xlink" xml:space="preserve" xmlns:serif="http://www.serif.com/" style="fill-rule:evenodd;clip-rule:evenodd;stroke-linejoin:round;stroke-miterlimit:1.41421;">
    <circle cx="48" cy="48" r="44.4" style="fill:#666;"/>
    <path d="M48.308,0.241l0.308,0.003l0.308,0.005l0.306,0.007l0.307,0.008l0.306,0.011l0.306,0.013l0.305,0.014l0.304,0.017l0.304,0.018l0.304,0.02l0.303,0.022l0.303,0.024l0.302,0.026l0.302,0.028l0.301,0.03l0.3,0.031l0.3,0.034l0.3,0.035l0.299,0.037l0.298,0.039l0.298,0.041l0.297,0.042l0.297,0.045l0.296,0.046l0.296,0.048l0.294,0.05l0.295,0.051l0.293,0.054l0.293,0.055l0.293,0.057l0.292,0.059l0.291,0.061l0.29,0.062l0.29,0.064l0.29,0.066l0.288,0.068l0.288,0.069l0.287,0.071l0.287,0.073l0.286,0.075l0.285,0.076l0.284,0.078l0.284,0.08l0.283,0.081l0.282,0.083l0.282,0.085l0.281,0.086l0.28,0.089l0.279,0.089l0.279,0.092l0.278,0.093l0.277,0.095l0.276,0.096l0.276,0.098l0.275,0.1l0.274,0.102l0.273,0.103l0.272,0.104l0.272,0.106l0.271,0.108l0.27,0.11l0.269,0.111l0.268,0.112l0.268,0.114l0.266,0.116l0.266,0.118l0.265,0.118l0.264,0.121l0.264,0.122l0.262,0.123l0.261,0.126l0.261,0.126l0.26,0.128l0.258,0.13l0.258,0.131l0.257,0.133l0.257,0.134l0.255,0.136l0.254,0.137l0.253,0.139l0.253,0.14l0.251,0.141l0.251,0.144l0.249,0.144l0.249,0.146l0.247,0.148l0.247,0.149l0.246,0.15l0.244,0.152l0.244,0.153l0.243,0.155l0.242,0.156l0.24,0.157l0.24,0.159l0.239,0.16l0.237,0.162l0.237,0.163l0.236,0.164l0.234,0.166l0.234,0.167l0.232,0.169l0.231,0.17l0.231,0.171l0.229,0.173l0.228,0.174l0.227,0.175l0.226,0.176l0.225,0.178l0.224,0.179l0.223,0.181l0.222,0.182l0.22,0.183l0.22,0.184l0.218,0.186l0.217,0.187l0.216,0.188l0.215,0.19l0.214,0.191l0.212,0.192l0.211,0.193l0.211,0.195l0.209,0.195l0.208,0.197l0.206,0.199l0.206,0.199l0.204,0.201l0.203,0.202l0.202,0.203l0.201,0.204l0.199,0.206l0.199,0.206l0.197,0.208l0.195,0.209l0.195,0.211l0.193,0.211l0.192,0.212l0.191,0.214l0.19,0.215l0.188,0.216l0.187,0.217l0.186,0.218l0.184,0.22l0.183,0.22l0.182,0.222l0.181,0.223l0.179,0.224l0.178,0.225l0.176,0.226l0.175,0.227l0.174,0.228l0.173,0.229l0.171,0.231l0.17,0.231l0.169,0.232l0.167,0.234l0.166,0.234l0.164,0.236l0.163,0.237l0.162,0.237l0.16,0.239l0.159,0.24l0.157,0.24l0.156,0.242l0.155,0.243l0.153,0.244l0.152,0.244l0.15,0.246l0.149,0.247l0.148,0.247l0.146,0.249l0.144,0.249l0.144,0.251l0.141,0.251l0.14,0.253l0.139,0.253l0.137,0.254l0.136,0.255l0.134,0.257l0.133,0.257l0.131,0.258l0.13,0.258l0.128,0.26l0.126,0.261l0.126,0.261l0.123,0.262l0.122,0.264l0.121,0.264l0.118,0.265l0.118,0.266l0.116,0.266l0.114,0.268l0.112,0.268l0.111,0.269l0.11,0.27l0.108,0.271l0.106,0.272l0.104,0.272l0.103,0.273l0.102,0.274l0.1,0.275l0.098,0.276l0.096,0.276l0.095,0.277l0.093,0.278l0.092,0.279l0.089,0.279l0.089,0.28l0.086,0.281l0.085,0.282l0.083,0.282l0.081,0.283l0.08,0.284l0.078,0.284l0.076,0.285l0.075,0.286l0.073,0.287l0.071,0.287l0.069,0.288l0.068,0.288l0.066,0.29l0.064,0.29l0.062,0.29l0.061,0.291l0.059,0.292l0.057,0.293l0.055,0.293l0.054,0.293l0.051,0.295l0.05,0.294l0.048,0.296l0.046,0.296l0.045,0.297l0.042,0.297l0.041,0.298l0.039,0.298l0.037,0.299l0.035,0.3l0.034,0.3l0.031,0.3l0.03,0.301l0.028,0.302l0.026,0.302l0.024,0.303l0.022,0.303l0.02,0.304l0.018,0.304l0.017,0.304l0.014,0.305l0.013,0.306l0.011,0.306l0.008,0.307l0.007,0.307l0.005,0.307l0.003,0.308l0.001,0.308l-0.001,0.308l-0.003,0.308l-0.005,0.307l-0.007,0.307l-0.008,0.307l-0.011,0.306l-0.013,0.306l-0.014,0.305l-0.017,0.304l-0.018,0.304l-0.02,0.304l-0.022,0.303l-0.024,0.303l-0.026,0.302l-0.028,0.302l-0.03,0.301l-0.031,0.3l-0.034,0.3l-0.035,0.3l-0.037,0.299l-0.039,0.298l-0.041,0.298l-0.042,0.297l-0.045,0.297l-0.046,0.296l-0.048,0.296l-0.05,0.294l-0.051,0.295l-0.054,0.293l-0.055,0.293l-0.057,0.293l-0.059,0.292l-0.061,0.291l-0.062,0.29l-0.064,0.29l-0.066,0.29l-0.068,0.288l-0.069,0.288l-0.071,0.287l-0.073,0.287l-0.075,0.286l-0.076,0.285l-0.078,0.284l-0.08,0.284l-0.081,0.283l-0.083,0.282l-0.085,0.282l-0.086,0.281l-0.089,0.28l-0.089,0.279l-0.092,0.279l-0.093,0.278l-0.095,0.277l-0.096,0.276l-0.098,0.276l-0.1,0.275l-0.102,0.274l-0.102,0.273l-0.105,0.272l-0.106,0.272l-0.108,0.271l-0.11,0.27l-0.111,0.269l-0.112,0.268l-0.114,0.268l-0.116,0.266l-0.118,0.266l-0.118,0.265l-0.121,0.264l-0.122,0.264l-0.123,0.262l-0.126,0.261l-0.126,0.261l-0.128,0.26l-0.13,0.258l-0.131,0.258l-0.133,0.257l-0.134,0.257l-0.136,0.255l-0.137,0.254l-0.139,0.253l-0.14,0.253l-0.141,0.251l-0.144,0.251l-0.144,0.249l-0.146,0.249l-0.148,0.247l-0.149,0.247l-0.15,0.246l-0.152,0.244l-0.153,0.244l-0.155,0.243l-0.156,0.242l-0.157,0.24l-0.159,0.24l-0.16,0.239l-0.162,0.237l-0.163,0.237l-0.164,0.236l-0.166,0.234l-0.167,0.234l-0.169,0.232l-0.17,0.232l-0.171,0.23l-0.173,0.229l-0.174,0.228l-0.175,0.227l-0.176,0.226l-0.178,0.225l-0.179,0.224l-0.181,0.223l-0.182,0.222l-0.183,0.22l-0.184,0.22l-0.186,0.218l-0.187,0.217l-0.188,0.216l-0.19,0.215l-0.191,0.214l-0.192,0.212l-0.193,0.211l-0.195,0.211l-0.195,0.209l-0.197,0.208l-0.199,0.206l-0.199,0.206l-0.201,0.204l-0.202,0.203l-0.203,0.202l-0.204,0.201l-0.206,0.199l-0.206,0.199l-0.208,0.197l-0.209,0.195l-0.211,0.195l-0.211,0.193l-0.212,0.192l-0.214,0.191l-0.215,0.19l-0.216,0.188l-0.217,0.187l-0.218,0.186l-0.22,0.184l-0.22,0.183l-0.222,0.182l-0.223,0.181l-0.224,0.179l-0.225,0.178l-0.226,0.176l-0.227,0.175l-0.228,0.174l-0.229,0.173l-0.23,0.171l-0.232,0.17l-0.232,0.169l-0.234,0.167l-0.234,0.166l-0.236,0.164l-0.237,0.163l-0.237,0.162l-0.239,0.16l-0.24,0.159l-0.24,0.157l-0.242,0.156l-0.243,0.155l-0.244,0.153l-0.244,0.152l-0.246,0.15l-0.247,0.149l-0.247,0.148l-0.249,0.146l-0.249,0.144l-0.251,0.144l-0.251,0.141l-0.253,0.14l-0.253,0.139l-0.254,0.137l-0.255,0.136l-0.257,0.134l-0.257,0.133l-0.258,0.131l-0.258,0.13l-0.26,0.128l-0.261,0.126l-0.261,0.126l-0.262,0.123l-0.264,0.122l-0.264,0.121l-0.265,0.118l-0.266,0.118l-0.266,0.116l-0.268,0.114l-0.268,0.112l-0.269,0.111l-0.27,0.11l-0.271,0.108l-0.272,0.106l-0.272,0.105l-0.273,0.102l-0.274,0.102l-0.275,0.1l-0.276,0.098l-0.276,0.096l-0.277,0.095l-0.278,0.093l-0.279,0.092l-0.279,0.089l-0.28,0.089l-0.281,0.086l-0.282,0.085l-0.282,0.083l-0.283,0.081l-0.284,0.08l-0.284,0.078l-0.285,0.076l-0.286,0.075l-0.287,0.073l-0.287,0.071l-0.288,0.069l-0.288,0.068l-0.29,0.066l-0.29,0.064l-0.29,0.062l-0.291,0.061l-0.292,0.059l-0.293,0.057l-0.293,0.055l-0.293,0.054l-0.295,0.051l-0.294,0.05l-0.296,0.048l-0.296,0.046l-0.297,0.045l-0.297,0.042l-0.298,0.041l-0.298,0.039l-0.299,0.037l-0.3,0.035l-0.3,0.034l-0.3,0.031l-0.301,0.03l-0.302,0.028l-0.302,0.026l-0.303,0.024l-0.303,0.022l-0.304,0.02l-0.304,0.018l-0.304,0.017l-0.305,0.014l-0.306,0.013l-0.306,0.011l-0.307,0.008l-0.307,0.007l-0.307,0.005l-0.308,0.003l-0.308,0.001l-0.308,-0.001l-0.308,-0.003l-0.307,-0.005l-0.307,-0.007l-0.307,-0.008l-0.306,-0.011l-0.306,-0.013l-0.305,-0.014l-0.304,-0.017l-0.304,-0.018l-0.304,-0.02l-0.303,-0.022l-0.303,-0.024l-0.302,-0.026l-0.302,-0.028l-0.301,-0.03l-0.3,-0.031l-0.3,-0.034l-0.3,-0.035l-0.299,-0.037l-0.298,-0.039l-0.298,-0.041l-0.297,-0.042l-0.297,-0.045l-0.296,-0.046l-0.296,-0.048l-0.294,-0.05l-0.295,-0.051l-0.293,-0.054l-0.293,-0.055l-0.293,-0.057l-0.292,-0.059l-0.291,-0.061l-0.29,-0.062l-0.29,-0.064l-0.29,-0.066l-0.288,-0.068l-0.288,-0.069l-0.287,-0.071l-0.287,-0.073l-0.286,-0.075l-0.285,-0.076l-0.284,-0.078l-0.284,-0.08l-0.283,-0.081l-0.282,-0.083l-0.282,-0.085l-0.281,-0.086l-0.28,-0.089l-0.279,-0.089l-0.279,-0.092l-0.278,-0.093l-0.277,-0.095l-0.276,-0.096l-0.276,-0.098l-0.275,-0.1l-0.274,-0.102l-0.273,-0.103l-0.272,-0.104l-0.272,-0.106l-0.271,-0.108l-0.27,-0.11l-0.269,-0.111l-0.268,-0.112l-0.268,-0.114l-0.266,-0.116l-0.266,-0.118l-0.265,-0.118l-0.264,-0.121l-0.264,-0.122l-0.262,-0.123l-0.261,-0.126l-0.261,-0.126l-0.26,-0.128l-0.258,-0.13l-0.258,-0.131l-0.257,-0.133l-0.257,-0.134l-0.255,-0.136l-0.254,-0.137l-0.253,-0.139l-0.253,-0.14l-0.251,-0.141l-0.251,-0.144l-0.249,-0.144l-0.249,-0.146l-0.247,-0.148l-0.247,-0.149l-0.246,-0.15l-0.244,-0.152l-0.244,-0.153l-0.243,-0.155l-0.242,-0.156l-0.24,-0.157l-0.24,-0.159l-0.239,-0.16l-0.237,-0.162l-0.237,-0.163l-0.236,-0.164l-0.234,-0.166l-0.234,-0.167l-0.232,-0.169l-0.231,-0.17l-0.231,-0.171l-0.229,-0.173l-0.228,-0.174l-0.227,-0.175l-0.226,-0.176l-0.225,-0.178l-0.224,-0.179l-0.223,-0.181l-0.222,-0.182l-0.22,-0.183l-0.22,-0.184l-0.218,-0.186l-0.217,-0.187l-0.216,-0.188l-0.215,-0.19l-0.214,-0.191l-0.212,-0.192l-0.211,-0.193l-0.211,-0.195l-0.209,-0.195l-0.208,-0.197l-0.206,-0.199l-0.206,-0.199l-0.204,-0.201l-0.203,-0.202l-0.202,-0.203l-0.201,-0.204l-0.199,-0.206l-0.199,-0.206l-0.197,-0.208l-0.195,-0.209l-0.195,-0.211l-0.193,-0.211l-0.192,-0.212l-0.191,-0.214l-0.19,-0.215l-0.188,-0.216l-0.187,-0.217l-0.186,-0.218l-0.184,-0.22l-0.183,-0.22l-0.182,-0.222l-0.181,-0.223l-0.179,-0.224l-0.178,-0.225l-0.176,-0.226l-0.175,-0.227l-0.174,-0.228l-0.173,-0.229l-0.171,-0.231l-0.17,-0.231l-0.169,-0.232l-0.167,-0.234l-0.166,-0.234l-0.164,-0.236l-0.163,-0.237l-0.162,-0.237l-0.16,-0.239l-0.159,-0.24l-0.157,-0.24l-0.156,-0.242l-0.155,-0.243l-0.153,-0.244l-0.152,-0.244l-0.15,-0.246l-0.149,-0.247l-0.148,-0.247l-0.146,-0.249l-0.144,-0.249l-0.144,-0.251l-0.141,-0.251l-0.14,-0.253l-0.139,-0.253l-0.137,-0.254l-0.136,-0.255l-0.134,-0.257l-0.133,-0.257l-0.131,-0.258l-0.13,-0.258l-0.128,-0.26l-0.126,-0.261l-0.126,-0.261l-0.123,-0.262l-0.122,-0.264l-0.121,-0.264l-0.118,-0.265l-0.118,-0.266l-0.116,-0.266l-0.114,-0.268l-0.112,-0.268l-0.111,-0.269l-0.11,-0.27l-0.108,-0.271l-0.106,-0.272l-0.104,-0.272l-0.103,-0.273l-0.102,-0.274l-0.1,-0.275l-0.098,-0.276l-0.096,-0.276l-0.095,-0.277l-0.093,-0.278l-0.092,-0.279l-0.089,-0.279l-0.089,-0.28l-0.086,-0.281l-0.085,-0.282l-0.083,-0.282l-0.081,-0.283l-0.08,-0.284l-0.078,-0.284l-0.076,-0.285l-0.075,-0.286l-0.073,-0.287l-0.071,-0.287l-0.069,-0.288l-0.068,-0.288l-0.066,-0.29l-0.064,-0.29l-0.062,-0.29l-0.061,-0.291l-0.059,-0.292l-0.057,-0.293l-0.055,-0.293l-0.054,-0.293l-0.051,-0.295l-0.05,-0.294l-0.048,-0.296l-0.046,-0.296l-0.045,-0.297l-0.042,-0.297l-0.041,-0.298l-0.039,-0.298l-0.037,-0.299l-0.035,-0.3l-0.034,-0.3l-0.031,-0.3l-0.03,-0.301l-0.028,-0.302l-0.026,-0.302l-0.024,-0.303l-0.022,-0.303l-0.02,-0.304l-0.018,-0.304l-0.017,-0.304l-0.014,-0.305l-0.013,-0.306l-0.011,-0.306l-0.008,-0.307l-0.007,-0.306l-0.005,-0.308l-0.003,-0.308l-0.001,-0.308l0.001,-0.308l0.003,-0.308l0.005,-0.307l0.007,-0.307l0.008,-0.307l0.011,-0.306l0.013,-0.306l0.014,-0.305l0.017,-0.304l0.018,-0.304l0.02,-0.304l0.022,-0.303l0.024,-0.303l0.026,-0.302l0.028,-0.302l0.03,-0.301l0.031,-0.3l0.034,-0.3l0.035,-0.3l0.037,-0.299l0.039,-0.298l0.041,-0.298l0.042,-0.297l0.045,-0.297l0.046,-0.296l0.048,-0.296l0.05,-0.294l0.051,-0.295l0.054,-0.293l0.055,-0.293l0.057,-0.293l0.059,-0.292l0.061,-0.291l0.062,-0.29l0.064,-0.29l0.066,-0.29l0.068,-0.288l0.069,-0.288l0.071,-0.287l0.073,-0.287l0.075,-0.286l0.076,-0.285l0.078,-0.284l0.08,-0.284l0.081,-0.283l0.083,-0.282l0.085,-0.282l0.086,-0.281l0.089,-0.28l0.089,-0.279l0.092,-0.279l0.093,-0.278l0.095,-0.277l0.096,-0.276l0.098,-0.276l0.1,-0.275l0.102,-0.274l0.103,-0.273l0.104,-0.272l0.106,-0.272l0.108,-0.271l0.11,-0.27l0.111,-0.269l0.112,-0.268l0.114,-0.268l0.116,-0.266l0.118,-0.266l0.118,-0.265l0.121,-0.264l0.122,-0.264l0.123,-0.262l0.126,-0.261l0.126,-0.261l0.128,-0.26l0.13,-0.258l0.131,-0.258l0.133,-0.257l0.134,-0.257l0.136,-0.255l0.137,-0.254l0.139,-0.253l0.14,-0.253l0.141,-0.251l0.144,-0.251l0.144,-0.249l0.146,-0.249l0.148,-0.247l0.149,-0.247l0.15,-0.246l0.152,-0.244l0.153,-0.244l0.155,-0.243l0.156,-0.242l0.157,-0.24l0.159,-0.24l0.16,-0.239l0.162,-0.237l0.163,-0.237l0.164,-0.236l0.166,-0.234l0.167,-0.234l0.169,-0.232l0.17,-0.231l0.171,-0.231l0.173,-0.229l0.174,-0.228l0.175,-0.227l0.176,-0.226l0.178,-0.225l0.179,-0.224l0.181,-0.223l0.182,-0.222l0.183,-0.22l0.184,-0.22l0.186,-0.218l0.187,-0.217l0.188,-0.216l0.19,-0.215l0.191,-0.214l0.192,-0.212l0.193,-0.211l0.195,-0.211l0.195,-0.209l0.197,-0.208l0.199,-0.206l0.199,-0.206l0.201,-0.204l0.202,-0.203l0.203,-0.202l0.204,-0.201l0.206,-0.199l0.206,-0.199l0.208,-0.197l0.209,-0.195l0.211,-0.195l0.211,-0.193l0.212,-0.192l0.214,-0.191l0.215,-0.19l0.216,-0.188l0.217,-0.187l0.218,-0.186l0.22,-0.184l0.22,-0.183l0.222,-0.182l0.223,-0.181l0.224,-0.179l0.225,-0.178l0.226,-0.176l0.227,-0.175l0.228,-0.174l0.229,-0.173l0.231,-0.171l0.231,-0.17l0.232,-0.169l0.234,-0.167l0.234,-0.166l0.236,-0.164l0.237,-0.163l0.237,-0.162l0.239,-0.16l0.24,-0.159l0.24,-0.157l0.242,-0.156l0.243,-0.155l0.244,-0.153l0.244,-0.152l0.246,-0.15l0.247,-0.149l0.247,-0.148l0.249,-0.146l0.249,-0.144l0.251,-0.144l0.251,-0.141l0.253,-0.14l0.253,-0.139l0.254,-0.137l0.255,-0.136l0.257,-0.134l0.257,-0.133l0.258,-0.131l0.258,-0.13l0.26,-0.128l0.261,-0.126l0.261,-0.126l0.262,-0.123l0.264,-0.122l0.264,-0.121l0.265,-0.118l0.266,-0.118l0.266,-0.116l0.268,-0.114l0.268,-0.112l0.269,-0.111l0.27,-0.11l0.271,-0.108l0.272,-0.106l0.272,-0.104l0.273,-0.103l0.274,-0.102l0.275,-0.1l0.276,-0.098l0.276,-0.096l0.277,-0.095l0.278,-0.093l0.279,-0.092l0.279,-0.089l0.28,-0.089l0.281,-0.086l0.282,-0.085l0.282,-0.083l0.283,-0.081l0.284,-0.08l0.284,-0.078l0.285,-0.076l0.286,-0.075l0.287,-0.073l0.287,-0.071l0.288,-0.069l0.288,-0.068l0.29,-0.066l0.29,-0.064l0.29,-0.062l0.291,-0.061l0.292,-0.059l0.293,-0.057l0.293,-0.055l0.293,-0.054l0.295,-0.051l0.294,-0.05l0.296,-0.048l0.296,-0.046l0.297,-0.045l0.297,-0.042l0.298,-0.041l0.298,-0.039l0.299,-0.037l0.3,-0.035l0.3,-0.034l0.3,-0.031l0.301,-0.03l0.302,-0.028l0.302,-0.026l0.303,-0.024l0.303,-0.022l0.304,-0.02l0.304,-0.018l0.304,-0.017l0.305,-0.014l0.306,-0.013l0.306,-0.011l0.307,-0.008l0.307,-0.007l0.307,-0.005l0.308,-0.003l0.308,-0.001l0.308,0.001Zm-0.595,3.36l-0.286,0.003l-0.287,0.004l-0.285,0.007l-0.285,0.008l-0.285,0.01l-0.285,0.011l-0.283,0.014l-0.284,0.015l-0.283,0.017l-0.282,0.019l-0.282,0.021l-0.282,0.022l-0.28,0.024l-0.281,0.026l-0.28,0.027l-0.279,0.03l-0.279,0.031l-0.279,0.033l-0.278,0.034l-0.277,0.036l-0.277,0.038l-0.276,0.04l-0.276,0.041l-0.275,0.043l-0.275,0.045l-0.274,0.046l-0.273,0.048l-0.273,0.05l-0.273,0.051l-0.271,0.053l-0.271,0.055l-0.271,0.056l-0.27,0.058l-0.269,0.06l-0.269,0.061l-0.268,0.063l-0.268,0.064l-0.267,0.066l-0.266,0.068l-0.265,0.069l-0.265,0.071l-0.265,0.072l-0.263,0.075l-0.263,0.075l-0.263,0.077l-0.261,0.079l-0.261,0.081l-0.26,0.081l-0.26,0.084l-0.259,0.085l-0.258,0.086l-0.257,0.089l-0.257,0.089l-0.256,0.091l-0.256,0.093l-0.254,0.094l-0.254,0.096l-0.253,0.097l-0.253,0.099l-0.251,0.1l-0.251,0.102l-0.25,0.103l-0.25,0.104l-0.248,0.107l-0.248,0.107l-0.247,0.109l-0.246,0.111l-0.246,0.112l-0.244,0.113l-0.244,0.115l-0.243,0.116l-0.242,0.118l-0.242,0.119l-0.24,0.12l-0.24,0.122l-0.239,0.124l-0.238,0.124l-0.237,0.127l-0.236,0.127l-0.236,0.129l-0.234,0.13l-0.234,0.132l-0.233,0.133l-0.232,0.134l-0.231,0.136l-0.23,0.137l-0.23,0.139l-0.228,0.14l-0.228,0.141l-0.226,0.142l-0.226,0.144l-0.225,0.145l-0.223,0.146l-0.223,0.148l-0.222,0.149l-0.221,0.15l-0.22,0.152l-0.219,0.153l-0.218,0.154l-0.218,0.156l-0.216,0.156l-0.215,0.158l-0.214,0.16l-0.213,0.16l-0.213,0.162l-0.211,0.163l-0.21,0.164l-0.209,0.165l-0.208,0.167l-0.208,0.168l-0.206,0.169l-0.205,0.17l-0.204,0.172l-0.203,0.173l-0.202,0.174l-0.201,0.175l-0.2,0.176l-0.198,0.177l-0.198,0.179l-0.197,0.18l-0.195,0.181l-0.195,0.182l-0.193,0.183l-0.192,0.185l-0.191,0.185l-0.19,0.187l-0.189,0.188l-0.188,0.189l-0.187,0.19l-0.185,0.191l-0.185,0.192l-0.183,0.193l-0.182,0.195l-0.181,0.195l-0.18,0.197l-0.179,0.198l-0.177,0.198l-0.176,0.2l-0.175,0.201l-0.174,0.202l-0.173,0.203l-0.172,0.204l-0.17,0.205l-0.169,0.206l-0.168,0.208l-0.167,0.208l-0.165,0.209l-0.164,0.21l-0.163,0.211l-0.162,0.213l-0.16,0.213l-0.16,0.214l-0.158,0.215l-0.156,0.216l-0.156,0.218l-0.154,0.218l-0.153,0.219l-0.152,0.22l-0.15,0.221l-0.149,0.222l-0.148,0.223l-0.146,0.223l-0.145,0.225l-0.144,0.226l-0.142,0.226l-0.141,0.228l-0.14,0.228l-0.139,0.23l-0.137,0.23l-0.136,0.231l-0.134,0.232l-0.133,0.233l-0.132,0.234l-0.13,0.234l-0.129,0.236l-0.127,0.236l-0.127,0.237l-0.124,0.238l-0.124,0.239l-0.122,0.24l-0.12,0.24l-0.119,0.242l-0.118,0.242l-0.116,0.243l-0.115,0.244l-0.113,0.244l-0.112,0.246l-0.111,0.246l-0.109,0.247l-0.107,0.248l-0.107,0.248l-0.104,0.25l-0.103,0.25l-0.102,0.251l-0.1,0.251l-0.099,0.253l-0.097,0.253l-0.096,0.254l-0.094,0.254l-0.093,0.256l-0.091,0.256l-0.089,0.257l-0.089,0.257l-0.086,0.258l-0.085,0.259l-0.084,0.26l-0.081,0.26l-0.081,0.261l-0.079,0.261l-0.077,0.263l-0.075,0.263l-0.075,0.263l-0.072,0.265l-0.071,0.265l-0.069,0.265l-0.068,0.266l-0.066,0.267l-0.064,0.268l-0.063,0.268l-0.061,0.269l-0.06,0.269l-0.058,0.27l-0.056,0.271l-0.055,0.271l-0.053,0.271l-0.051,0.273l-0.05,0.273l-0.048,0.273l-0.046,0.274l-0.045,0.275l-0.043,0.275l-0.041,0.276l-0.04,0.276l-0.038,0.277l-0.036,0.277l-0.034,0.278l-0.033,0.279l-0.031,0.279l-0.03,0.279l-0.027,0.28l-0.026,0.281l-0.024,0.28l-0.022,0.282l-0.021,0.282l-0.019,0.282l-0.017,0.283l-0.015,0.284l-0.014,0.283l-0.011,0.285l-0.01,0.285l-0.008,0.285l-0.007,0.285l-0.004,0.287l-0.003,0.286l-0.001,0.287l0.001,0.287l0.003,0.286l0.004,0.287l0.007,0.285l0.008,0.285l0.01,0.285l0.011,0.285l0.014,0.283l0.015,0.284l0.017,0.283l0.019,0.282l0.021,0.282l0.022,0.282l0.024,0.28l0.026,0.281l0.027,0.28l0.03,0.279l0.031,0.279l0.033,0.279l0.034,0.278l0.036,0.277l0.038,0.277l0.04,0.276l0.041,0.276l0.043,0.275l0.045,0.275l0.046,0.274l0.048,0.273l0.05,0.273l0.051,0.273l0.053,0.271l0.055,0.271l0.056,0.271l0.058,0.27l0.06,0.269l0.061,0.269l0.063,0.268l0.064,0.268l0.066,0.267l0.068,0.266l0.069,0.265l0.071,0.265l0.072,0.265l0.075,0.263l0.075,0.263l0.077,0.263l0.079,0.261l0.081,0.261l0.081,0.26l0.084,0.26l0.085,0.259l0.086,0.258l0.089,0.257l0.089,0.257l0.091,0.256l0.093,0.256l0.094,0.254l0.096,0.254l0.097,0.253l0.099,0.253l0.1,0.251l0.102,0.251l0.103,0.25l0.104,0.25l0.107,0.248l0.107,0.248l0.109,0.247l0.111,0.246l0.112,0.246l0.113,0.244l0.115,0.244l0.116,0.243l0.118,0.242l0.119,0.242l0.12,0.24l0.122,0.24l0.124,0.239l0.124,0.238l0.127,0.237l0.127,0.236l0.129,0.236l0.13,0.234l0.132,0.234l0.133,0.233l0.134,0.232l0.136,0.231l0.137,0.23l0.139,0.23l0.14,0.228l0.141,0.228l0.142,0.226l0.144,0.226l0.145,0.225l0.146,0.223l0.148,0.223l0.149,0.222l0.15,0.221l0.152,0.22l0.153,0.219l0.154,0.218l0.156,0.218l0.156,0.216l0.158,0.215l0.16,0.214l0.16,0.213l0.162,0.213l0.163,0.211l0.164,0.21l0.165,0.209l0.167,0.208l0.168,0.208l0.169,0.206l0.17,0.205l0.172,0.204l0.173,0.203l0.174,0.202l0.175,0.201l0.176,0.2l0.177,0.198l0.179,0.198l0.18,0.197l0.181,0.195l0.182,0.195l0.183,0.193l0.185,0.192l0.185,0.191l0.187,0.19l0.188,0.189l0.189,0.188l0.19,0.187l0.191,0.185l0.192,0.185l0.193,0.183l0.195,0.182l0.195,0.181l0.197,0.18l0.198,0.179l0.198,0.177l0.2,0.176l0.201,0.175l0.202,0.174l0.203,0.173l0.204,0.172l0.205,0.17l0.206,0.169l0.208,0.168l0.208,0.167l0.209,0.165l0.21,0.164l0.211,0.163l0.213,0.162l0.213,0.16l0.214,0.16l0.215,0.158l0.216,0.156l0.218,0.156l0.218,0.154l0.219,0.153l0.22,0.152l0.221,0.15l0.222,0.149l0.223,0.148l0.223,0.146l0.225,0.145l0.226,0.144l0.226,0.142l0.228,0.141l0.228,0.14l0.23,0.139l0.23,0.137l0.231,0.136l0.232,0.134l0.233,0.133l0.234,0.132l0.234,0.13l0.236,0.129l0.236,0.127l0.237,0.127l0.238,0.124l0.239,0.124l0.24,0.122l0.24,0.12l0.242,0.119l0.242,0.118l0.243,0.116l0.244,0.115l0.244,0.113l0.246,0.112l0.246,0.111l0.247,0.109l0.248,0.107l0.248,0.107l0.25,0.104l0.25,0.103l0.251,0.102l0.251,0.1l0.253,0.099l0.253,0.097l0.254,0.096l0.254,0.094l0.256,0.093l0.256,0.091l0.257,0.089l0.257,0.089l0.258,0.086l0.259,0.085l0.26,0.084l0.26,0.081l0.261,0.081l0.261,0.079l0.263,0.077l0.263,0.075l0.263,0.075l0.265,0.072l0.265,0.071l0.265,0.069l0.266,0.068l0.267,0.066l0.268,0.064l0.268,0.063l0.269,0.061l0.269,0.06l0.27,0.058l0.271,0.056l0.271,0.055l0.271,0.053l0.273,0.051l0.273,0.05l0.273,0.048l0.274,0.046l0.275,0.045l0.275,0.043l0.276,0.041l0.276,0.04l0.277,0.038l0.277,0.036l0.278,0.034l0.279,0.033l0.279,0.031l0.279,0.03l0.28,0.027l0.281,0.026l0.28,0.024l0.282,0.022l0.282,0.021l0.282,0.019l0.283,0.017l0.284,0.015l0.283,0.014l0.285,0.011l0.285,0.01l0.285,0.008l0.285,0.007l0.287,0.004l0.286,0.003l0.287,0.001l0.287,-0.001l0.286,-0.003l0.287,-0.004l0.285,-0.007l0.285,-0.008l0.285,-0.01l0.285,-0.011l0.283,-0.014l0.284,-0.015l0.283,-0.017l0.282,-0.019l0.282,-0.021l0.282,-0.022l0.28,-0.024l0.281,-0.026l0.28,-0.027l0.279,-0.03l0.279,-0.031l0.279,-0.033l0.278,-0.034l0.277,-0.036l0.277,-0.038l0.276,-0.04l0.276,-0.041l0.275,-0.043l0.275,-0.045l0.274,-0.046l0.273,-0.048l0.273,-0.05l0.273,-0.051l0.271,-0.053l0.271,-0.055l0.271,-0.056l0.27,-0.058l0.269,-0.06l0.269,-0.061l0.268,-0.063l0.268,-0.064l0.267,-0.066l0.266,-0.068l0.265,-0.069l0.265,-0.071l0.265,-0.072l0.263,-0.075l0.263,-0.075l0.263,-0.077l0.261,-0.079l0.261,-0.081l0.26,-0.081l0.26,-0.084l0.259,-0.085l0.258,-0.086l0.257,-0.089l0.257,-0.089l0.256,-0.091l0.256,-0.093l0.254,-0.094l0.254,-0.096l0.253,-0.097l0.253,-0.099l0.251,-0.1l0.251,-0.102l0.25,-0.103l0.25,-0.104l0.248,-0.107l0.248,-0.107l0.247,-0.109l0.246,-0.111l0.246,-0.112l0.244,-0.113l0.244,-0.115l0.243,-0.116l0.242,-0.118l0.242,-0.119l0.24,-0.12l0.24,-0.122l0.239,-0.124l0.238,-0.124l0.237,-0.127l0.236,-0.127l0.236,-0.129l0.234,-0.13l0.234,-0.132l0.233,-0.133l0.232,-0.134l0.231,-0.136l0.23,-0.137l0.23,-0.139l0.228,-0.14l0.228,-0.141l0.226,-0.142l0.226,-0.144l0.225,-0.145l0.223,-0.146l0.223,-0.148l0.222,-0.149l0.221,-0.15l0.22,-0.152l0.219,-0.153l0.218,-0.154l0.218,-0.156l0.216,-0.156l0.215,-0.158l0.214,-0.16l0.213,-0.16l0.213,-0.162l0.211,-0.163l0.21,-0.164l0.209,-0.165l0.208,-0.167l0.208,-0.168l0.206,-0.169l0.205,-0.17l0.204,-0.172l0.203,-0.173l0.202,-0.174l0.201,-0.175l0.2,-0.176l0.198,-0.177l0.198,-0.179l0.197,-0.18l0.195,-0.181l0.195,-0.182l0.193,-0.183l0.192,-0.185l0.191,-0.185l0.19,-0.187l0.189,-0.188l0.188,-0.189l0.187,-0.19l0.185,-0.191l0.185,-0.192l0.183,-0.193l0.182,-0.195l0.181,-0.195l0.18,-0.197l0.179,-0.198l0.177,-0.198l0.176,-0.2l0.175,-0.201l0.174,-0.202l0.173,-0.203l0.172,-0.204l0.17,-0.205l0.169,-0.206l0.168,-0.208l0.167,-0.208l0.165,-0.209l0.164,-0.21l0.163,-0.211l0.162,-0.213l0.16,-0.213l0.16,-0.214l0.158,-0.215l0.156,-0.216l0.156,-0.218l0.154,-0.218l0.153,-0.219l0.152,-0.22l0.15,-0.221l0.149,-0.222l0.148,-0.223l0.146,-0.223l0.145,-0.225l0.144,-0.226l0.142,-0.226l0.141,-0.228l0.14,-0.228l0.139,-0.23l0.137,-0.23l0.136,-0.231l0.134,-0.232l0.133,-0.233l0.132,-0.234l0.13,-0.234l0.129,-0.236l0.127,-0.236l0.127,-0.237l0.124,-0.238l0.124,-0.239l0.122,-0.24l0.12,-0.24l0.119,-0.242l0.118,-0.242l0.116,-0.243l0.115,-0.244l0.113,-0.244l0.112,-0.246l0.111,-0.246l0.109,-0.247l0.107,-0.248l0.107,-0.248l0.104,-0.25l0.103,-0.25l0.102,-0.251l0.1,-0.251l0.099,-0.253l0.097,-0.253l0.096,-0.254l0.094,-0.254l0.093,-0.256l0.091,-0.256l0.089,-0.257l0.089,-0.257l0.086,-0.258l0.085,-0.259l0.084,-0.26l0.081,-0.26l0.081,-0.261l0.079,-0.261l0.077,-0.263l0.075,-0.263l0.075,-0.263l0.072,-0.265l0.071,-0.265l0.069,-0.265l0.068,-0.266l0.066,-0.267l0.064,-0.268l0.063,-0.268l0.061,-0.269l0.06,-0.269l0.058,-0.27l0.056,-0.271l0.055,-0.271l0.053,-0.271l0.051,-0.273l0.05,-0.273l0.048,-0.273l0.046,-0.274l0.045,-0.275l0.043,-0.275l0.041,-0.276l0.04,-0.276l0.038,-0.277l0.036,-0.277l0.034,-0.278l0.033,-0.279l0.031,-0.279l0.03,-0.279l0.027,-0.28l0.026,-0.281l0.024,-0.28l0.022,-0.282l0.021,-0.282l0.019,-0.282l0.017,-0.283l0.015,-0.284l0.014,-0.283l0.011,-0.285l0.01,-0.285l0.008,-0.285l0.007,-0.285l0.004,-0.287l0.003,-0.286l0.001,-0.287l-0.001,-0.287l-0.003,-0.286l-0.004,-0.287l-0.007,-0.285l-0.008,-0.285l-0.01,-0.285l-0.011,-0.285l-0.014,-0.283l-0.015,-0.284l-0.017,-0.283l-0.019,-0.282l-0.021,-0.282l-0.022,-0.282l-0.024,-0.28l-0.026,-0.281l-0.027,-0.28l-0.03,-0.279l-0.031,-0.279l-0.033,-0.279l-0.034,-0.278l-0.036,-0.277l-0.038,-0.277l-0.04,-0.276l-0.041,-0.276l-0.043,-0.275l-0.045,-0.275l-0.046,-0.274l-0.048,-0.273l-0.05,-0.273l-0.051,-0.273l-0.053,-0.271l-0.055,-0.271l-0.056,-0.271l-0.058,-0.27l-0.06,-0.269l-0.061,-0.269l-0.063,-0.268l-0.064,-0.268l-0.066,-0.267l-0.068,-0.266l-0.069,-0.265l-0.071,-0.265l-0.072,-0.265l-0.075,-0.263l-0.075,-0.263l-0.077,-0.263l-0.079,-0.261l-0.081,-0.261l-0.081,-0.26l-0.084,-0.26l-0.085,-0.259l-0.086,-0.258l-0.089,-0.257l-0.089,-0.257l-0.091,-0.256l-0.093,-0.256l-0.094,-0.254l-0.096,-0.254l-0.097,-0.253l-0.099,-0.253l-0.1,-0.251l-0.102,-0.251l-0.103,-0.25l-0.104,-0.25l-0.107,-0.248l-0.107,-0.248l-0.109,-0.247l-0.111,-0.246l-0.112,-0.246l-0.113,-0.244l-0.115,-0.244l-0.116,-0.243l-0.118,-0.242l-0.119,-0.242l-0.12,-0.24l-0.122,-0.24l-0.124,-0.239l-0.124,-0.238l-0.127,-0.237l-0.127,-0.236l-0.129,-0.236l-0.13,-0.234l-0.132,-0.234l-0.133,-0.233l-0.134,-0.232l-0.136,-0.231l-0.137,-0.23l-0.139,-0.23l-0.14,-0.228l-0.141,-0.228l-0.142,-0.226l-0.144,-0.226l-0.145,-0.225l-0.146,-0.223l-0.148,-0.223l-0.149,-0.222l-0.15,-0.221l-0.152,-0.22l-0.153,-0.219l-0.154,-0.218l-0.156,-0.218l-0.156,-0.216l-0.158,-0.215l-0.16,-0.214l-0.16,-0.213l-0.162,-0.213l-0.163,-0.211l-0.164,-0.21l-0.165,-0.209l-0.167,-0.208l-0.168,-0.208l-0.169,-0.206l-0.17,-0.205l-0.172,-0.204l-0.173,-0.203l-0.174,-0.202l-0.175,-0.201l-0.176,-0.2l-0.177,-0.198l-0.179,-0.198l-0.18,-0.197l-0.181,-0.195l-0.182,-0.195l-0.183,-0.193l-0.185,-0.192l-0.185,-0.191l-0.187,-0.19l-0.188,-0.189l-0.189,-0.188l-0.19,-0.187l-0.191,-0.185l-0.192,-0.185l-0.193,-0.183l-0.195,-0.182l-0.195,-0.181l-0.197,-0.18l-0.198,-0.179l-0.198,-0.177l-0.2,-0.176l-0.201,-0.175l-0.202,-0.174l-0.203,-0.173l-0.204,-0.172l-0.205,-0.17l-0.206,-0.169l-0.208,-0.168l-0.208,-0.167l-0.209,-0.165l-0.21,-0.164l-0.211,-0.163l-0.213,-0.162l-0.213,-0.16l-0.214,-0.16l-0.215,-0.158l-0.216,-0.156l-0.218,-0.156l-0.218,-0.154l-0.219,-0.153l-0.22,-0.152l-0.221,-0.15l-0.222,-0.149l-0.223,-0.148l-0.223,-0.146l-0.225,-0.145l-0.226,-0.144l-0.226,-0.142l-0.228,-0.141l-0.228,-0.14l-0.23,-0.139l-0.23,-0.137l-0.231,-0.136l-0.232,-0.134l-0.233,-0.133l-0.234,-0.132l-0.234,-0.13l-0.236,-0.129l-0.236,-0.127l-0.237,-0.127l-0.238,-0.124l-0.239,-0.124l-0.24,-0.122l-0.24,-0.12l-0.242,-0.119l-0.242,-0.118l-0.243,-0.116l-0.244,-0.115l-0.244,-0.113l-0.246,-0.112l-0.246,-0.111l-0.247,-0.109l-0.248,-0.107l-0.248,-0.107l-0.25,-0.104l-0.25,-0.103l-0.251,-0.102l-0.251,-0.1l-0.253,-0.099l-0.253,-0.097l-0.254,-0.096l-0.254,-0.094l-0.256,-0.093l-0.256,-0.091l-0.257,-0.089l-0.257,-0.089l-0.258,-0.086l-0.259,-0.085l-0.26,-0.084l-0.26,-0.081l-0.261,-0.081l-0.261,-0.079l-0.263,-0.077l-0.263,-0.075l-0.263,-0.075l-0.265,-0.072l-0.265,-0.071l-0.265,-0.069l-0.266,-0.068l-0.267,-0.066l-0.268,-0.064l-0.268,-0.063l-0.269,-0.061l-0.269,-0.06l-0.27,-0.058l-0.271,-0.056l-0.271,-0.055l-0.271,-0.053l-0.273,-0.051l-0.273,-0.05l-0.273,-0.048l-0.274,-0.046l-0.275,-0.045l-0.275,-0.043l-0.276,-0.041l-0.276,-0.04l-0.277,-0.038l-0.277,-0.036l-0.278,-0.034l-0.279,-0.033l-0.279,-0.031l-0.279,-0.03l-0.28,-0.027l-0.281,-0.026l-0.28,-0.024l-0.282,-0.022l-0.282,-0.021l-0.282,-0.019l-0.283,-0.017l-0.284,-0.015l-0.283,-0.014l-0.285,-0.011l-0.285,-0.01l-0.285,-0.008l-0.285,-0.007l-0.287,-0.004l-0.286,-0.003l-0.287,-0.001l-0.287,0.001Z" style="fill:#e0e0e0;"/>
    <path d="M61.937,42.115l3.485,0c1.923,0 3.484,1.561 3.484,3.484l0,20.906c0,1.924 -1.561,3.485 -3.484,3.485l-34.844,0c-1.923,0 -3.484,-1.561 -3.484,-3.485l0,-20.906c0,-1.923 1.561,-3.484 3.484,-3.484l3.485,0l0,-6.969c0,-7.693 6.247,-13.937 13.937,-13.937c7.693,0 13.937,6.254 13.937,13.937l0,6.969Zm-6.968,0l0,-6.969c0,-3.836 -3.129,-6.968 -6.969,-6.968c-3.843,0 -6.969,3.125 -6.969,6.968l0,6.969l13.938,0Z" style="fill:#fff;fill-rule:nonzero;"/>
    <path d="M72.123,53.333c0.586,-0.016 1.125,0.326 1.365,0.859l17.003,34.197c0.256,0.491 0.229,1.083 -0.07,1.552c-0.266,0.459 -0.762,0.742 -1.296,0.731l-34.01,0c-0.534,0.011 -1.03,-0.272 -1.296,-0.731c-0.299,-0.469 -0.326,-1.061 -0.07,-1.552l17.003,-34.197c0.24,-0.539 0.784,-0.875 1.371,-0.859m0,-8.213c-4.789,0.005 -8.102,4.352 -9.243,6.699l-16.8,34.192c-0.371,1.01 -0.48,2.016 -0.48,3.088c0,3.776 2.944,9.765 6.72,9.781l39.84,0c3.776,-0.016 6.72,-6.005 6.72,-9.781c0,-1.072 -0.48,-2.128 -0.96,-3.088l-16.8,-34.192c-1.238,-2.301 -3.817,-6.704 -8.997,-6.699Z" style="fill:#e0e0e0;fill-rule:nonzero;"/>
    <path d="M95.269,86.011l-17.008,-34.192c-1.157,-2.32 -3.541,-3.798 -6.133,-3.798c-2.592,0 -4.976,1.478 -6.133,3.798l-17.024,34.192c-0.48,0.96 -0.731,2.016 -0.731,3.088c0,3.776 3.099,6.885 6.875,6.901l34.01,0c3.776,-0.016 6.875,-3.125 6.875,-6.901c0,-1.072 -0.251,-2.128 -0.731,-3.088Z" style="fill:#ffbf00;fill-rule:nonzero;"/>
    <path d="M72.123,53.333c0.586,-0.016 1.125,0.326 1.365,0.859l17.003,34.197c0.256,0.491 0.229,1.083 -0.07,1.552c-0.266,0.459 -0.762,0.742 -1.296,0.731l-34.01,0c-0.534,0.011 -1.03,-0.272 -1.296,-0.731c-0.299,-0.469 -0.326,-1.061 -0.07,-1.552l17.003,-34.197c0.24,-0.539 0.784,-0.875 1.371,-0.859m0,-5.333c-2.608,-0.016 -5.003,1.472 -6.144,3.819l-17.008,34.192c-0.48,0.96 -0.731,2.016 -0.731,3.088c0,3.776 3.099,6.885 6.875,6.901l34.01,0c3.776,-0.016 6.875,-3.125 6.875,-6.901c0,-1.072 -0.251,-2.128 -0.731,-3.088l-17.008,-34.192c-1.141,-2.347 -3.53,-3.835 -6.138,-3.819Z" style="fill:#f1a200;fill-rule:nonzero;"/>
    <path d="M72.24,74.667c1.461,0 2.667,-1.206 2.667,-2.667l0,-10.667c0,-1.461 -1.206,-2.666 -2.667,-2.666c-1.461,0 -2.667,1.205 -2.667,2.666l0,10.667c0,1.461 1.206,2.667 2.667,2.667Zm0,4.314c-2.021,0 -3.685,1.664 -3.685,3.686c0,2.021 1.664,3.685 3.685,3.685c2.021,0 3.685,-1.664 3.685,-3.685c0,-2.022 -1.664,-3.686 -3.685,-3.686Z" style="fill:#fff;fill-rule:nonzero;"/>
</svg>
