<?xml version="1.0" encoding="UTF-8" standalone="no"?><!DOCTYPE svg PUBLIC "-//W3C//DTD SVG 1.1//EN" "http://www.w3.org/Graphics/SVG/1.1/DTD/svg11.dtd"><svg width="100%" height="100%" viewBox="0 0 20 20" version="1.1" xmlns="http://www.w3.org/2000/svg" xmlns:xlink="http://www.w3.org/1999/xlink" xml:space="preserve" xmlns:serif="http://www.serif.com/" style="fill-rule:evenodd;clip-rule:evenodd;stroke-linejoin:round;stroke-miterlimit:1.41421;"><circle cx="10" cy="10" r="9.25" style="fill:#666;"/><path d="M10.128,0.051l0.128,0.002l0.128,0.004l0.127,0.006l0.127,0.007l0.126,0.009l0.126,0.01l0.126,0.012l0.125,0.014l0.125,0.015l0.124,0.017l0.124,0.018l0.123,0.019l0.123,0.022l0.122,0.022l0.122,0.024l0.121,0.026l0.121,0.027l0.12,0.029l0.119,0.03l0.119,0.031l0.119,0.033l0.117,0.034l0.117,0.036l0.117,0.037l0.116,0.038l0.115,0.04l0.115,0.041l0.114,0.043l0.113,0.044l0.113,0.045l0.112,0.047l0.111,0.048l0.111,0.049l0.11,0.05l0.109,0.052l0.108,0.053l0.108,0.055l0.107,0.055l0.106,0.057l0.105,0.058l0.105,0.059l0.104,0.061l0.103,0.062l0.102,0.063l0.101,0.064l0.101,0.065l0.099,0.067l0.099,0.067l0.098,0.069l0.097,0.07l0.096,0.071l0.096,0.072l0.094,0.074l0.093,0.074l0.093,0.075l0.092,0.077l0.09,0.078l0.09,0.078l0.089,0.08l0.088,0.081l0.087,0.082l0.086,0.083l0.084,0.084l0.084,0.084l0.083,0.086l0.082,0.087l0.081,0.088l0.08,0.089l0.078,0.09l0.078,0.09l0.077,0.092l0.075,0.093l0.074,0.093l0.074,0.094l0.072,0.096l0.071,0.096l0.07,0.097l0.069,0.098l0.067,0.099l0.067,0.099l0.065,0.101l0.064,0.101l0.063,0.102l0.062,0.103l0.061,0.104l0.059,0.105l0.058,0.105l0.057,0.106l0.055,0.107l0.055,0.108l0.053,0.108l0.052,0.109l0.05,0.11l0.049,0.111l0.048,0.111l0.047,0.112l0.045,0.113l0.044,0.113l0.043,0.114l0.041,0.115l0.04,0.115l0.038,0.116l0.037,0.117l0.036,0.117l0.034,0.117l0.033,0.119l0.031,0.119l0.03,0.119l0.029,0.12l0.027,0.121l0.026,0.121l0.024,0.122l0.022,0.122l0.022,0.123l0.019,0.123l0.018,0.124l0.017,0.124l0.015,0.125l0.014,0.125l0.012,0.126l0.01,0.126l0.009,0.126l0.007,0.127l0.006,0.127l0.004,0.128l0.002,0.128l0.001,0.128l-0.001,0.128l-0.002,0.128l-0.004,0.128l-0.006,0.127l-0.007,0.127l-0.009,0.126l-0.01,0.126l-0.012,0.126l-0.014,0.125l-0.015,0.125l-0.017,0.124l-0.018,0.124l-0.019,0.123l-0.022,0.123l-0.022,0.122l-0.024,0.122l-0.026,0.121l-0.027,0.121l-0.029,0.12l-0.03,0.119l-0.031,0.119l-0.033,0.119l-0.034,0.117l-0.036,0.117l-0.037,0.117l-0.038,0.116l-0.04,0.115l-0.041,0.115l-0.043,0.114l-0.044,0.113l-0.045,0.113l-0.047,0.112l-0.048,0.111l-0.049,0.111l-0.05,0.11l-0.052,0.109l-0.053,0.108l-0.055,0.108l-0.055,0.107l-0.057,0.106l-0.058,0.105l-0.059,0.105l-0.061,0.104l-0.062,0.103l-0.063,0.102l-0.064,0.101l-0.065,0.101l-0.067,0.099l-0.067,0.099l-0.069,0.098l-0.07,0.097l-0.071,0.096l-0.072,0.096l-0.074,0.094l-0.074,0.093l-0.075,0.093l-0.077,0.092l-0.078,0.09l-0.078,0.09l-0.08,0.089l-0.081,0.088l-0.082,0.087l-0.083,0.086l-0.084,0.084l-0.084,0.084l-0.086,0.083l-0.087,0.082l-0.088,0.081l-0.089,0.08l-0.09,0.078l-0.09,0.078l-0.092,0.077l-0.093,0.075l-0.093,0.074l-0.094,0.074l-0.096,0.072l-0.096,0.071l-0.097,0.07l-0.098,0.069l-0.099,0.067l-0.099,0.067l-0.101,0.065l-0.101,0.064l-0.102,0.063l-0.103,0.062l-0.104,0.061l-0.105,0.059l-0.105,0.058l-0.106,0.057l-0.107,0.055l-0.108,0.055l-0.108,0.053l-0.109,0.052l-0.11,0.05l-0.111,0.049l-0.111,0.048l-0.112,0.047l-0.113,0.045l-0.113,0.044l-0.114,0.043l-0.115,0.041l-0.115,0.04l-0.116,0.038l-0.117,0.037l-0.117,0.036l-0.117,0.034l-0.119,0.033l-0.119,0.031l-0.119,0.03l-0.12,0.029l-0.121,0.027l-0.121,0.026l-0.122,0.024l-0.122,0.022l-0.123,0.022l-0.123,0.019l-0.124,0.018l-0.124,0.017l-0.125,0.015l-0.125,0.014l-0.126,0.012l-0.126,0.01l-0.126,0.009l-0.127,0.007l-0.127,0.006l-0.128,0.004l-0.128,0.002l-0.128,0.001l-0.128,-0.001l-0.128,-0.002l-0.128,-0.004l-0.127,-0.006l-0.127,-0.007l-0.126,-0.009l-0.126,-0.01l-0.126,-0.012l-0.125,-0.014l-0.125,-0.015l-0.124,-0.017l-0.124,-0.018l-0.123,-0.019l-0.123,-0.022l-0.122,-0.022l-0.122,-0.024l-0.121,-0.026l-0.121,-0.027l-0.12,-0.029l-0.119,-0.03l-0.119,-0.031l-0.119,-0.033l-0.117,-0.034l-0.117,-0.036l-0.117,-0.037l-0.116,-0.038l-0.115,-0.04l-0.115,-0.041l-0.114,-0.043l-0.113,-0.044l-0.113,-0.045l-0.112,-0.047l-0.111,-0.048l-0.111,-0.049l-0.11,-0.05l-0.109,-0.052l-0.108,-0.053l-0.108,-0.055l-0.107,-0.055l-0.106,-0.057l-0.105,-0.058l-0.105,-0.059l-0.104,-0.061l-0.103,-0.062l-0.102,-0.063l-0.101,-0.064l-0.101,-0.065l-0.099,-0.067l-0.099,-0.067l-0.098,-0.069l-0.097,-0.07l-0.096,-0.071l-0.096,-0.072l-0.094,-0.074l-0.093,-0.074l-0.093,-0.075l-0.092,-0.077l-0.09,-0.078l-0.09,-0.078l-0.089,-0.08l-0.088,-0.081l-0.087,-0.082l-0.086,-0.083l-0.084,-0.084l-0.084,-0.084l-0.083,-0.086l-0.082,-0.087l-0.081,-0.088l-0.08,-0.089l-0.078,-0.09l-0.078,-0.09l-0.077,-0.092l-0.075,-0.093l-0.074,-0.093l-0.074,-0.094l-0.072,-0.096l-0.071,-0.096l-0.07,-0.097l-0.069,-0.098l-0.067,-0.099l-0.067,-0.099l-0.065,-0.101l-0.064,-0.101l-0.063,-0.102l-0.062,-0.103l-0.061,-0.104l-0.059,-0.105l-0.058,-0.105l-0.057,-0.106l-0.055,-0.107l-0.055,-0.108l-0.053,-0.108l-0.052,-0.109l-0.05,-0.11l-0.049,-0.111l-0.048,-0.111l-0.047,-0.112l-0.045,-0.113l-0.044,-0.113l-0.043,-0.114l-0.041,-0.115l-0.04,-0.115l-0.038,-0.116l-0.037,-0.117l-0.036,-0.117l-0.034,-0.117l-0.033,-0.119l-0.031,-0.119l-0.03,-0.119l-0.029,-0.12l-0.027,-0.121l-0.026,-0.121l-0.024,-0.122l-0.022,-0.122l-0.022,-0.123l-0.019,-0.123l-0.018,-0.124l-0.017,-0.124l-0.015,-0.125l-0.014,-0.125l-0.012,-0.126l-0.01,-0.126l-0.009,-0.126l-0.007,-0.127l-0.006,-0.127l-0.004,-0.128l-0.002,-0.128l-0.001,-0.128l0.001,-0.128l0.002,-0.128l0.004,-0.128l0.006,-0.127l0.007,-0.127l0.009,-0.126l0.01,-0.126l0.012,-0.126l0.014,-0.125l0.015,-0.125l0.017,-0.124l0.018,-0.124l0.019,-0.123l0.022,-0.123l0.022,-0.122l0.024,-0.122l0.026,-0.121l0.027,-0.121l0.029,-0.12l0.03,-0.119l0.031,-0.119l0.033,-0.119l0.034,-0.117l0.036,-0.117l0.037,-0.117l0.038,-0.116l0.04,-0.115l0.041,-0.115l0.043,-0.114l0.044,-0.113l0.045,-0.113l0.047,-0.112l0.048,-0.111l0.049,-0.111l0.05,-0.11l0.052,-0.109l0.053,-0.108l0.055,-0.108l0.055,-0.107l0.057,-0.106l0.058,-0.105l0.059,-0.105l0.061,-0.104l0.062,-0.103l0.063,-0.102l0.064,-0.101l0.065,-0.101l0.067,-0.099l0.067,-0.099l0.069,-0.098l0.07,-0.097l0.071,-0.096l0.072,-0.096l0.074,-0.094l0.074,-0.093l0.075,-0.093l0.077,-0.092l0.078,-0.09l0.078,-0.09l0.08,-0.089l0.081,-0.088l0.082,-0.087l0.083,-0.086l0.084,-0.084l0.084,-0.084l0.086,-0.083l0.087,-0.082l0.088,-0.081l0.089,-0.08l0.09,-0.078l0.09,-0.078l0.092,-0.077l0.093,-0.075l0.093,-0.074l0.094,-0.074l0.096,-0.072l0.096,-0.071l0.097,-0.07l0.098,-0.069l0.099,-0.067l0.099,-0.067l0.101,-0.065l0.101,-0.064l0.102,-0.063l0.103,-0.062l0.104,-0.061l0.105,-0.059l0.105,-0.058l0.106,-0.057l0.107,-0.055l0.108,-0.055l0.108,-0.053l0.109,-0.052l0.11,-0.05l0.111,-0.049l0.111,-0.048l0.112,-0.047l0.113,-0.045l0.113,-0.044l0.114,-0.043l0.115,-0.041l0.115,-0.04l0.116,-0.038l0.117,-0.037l0.117,-0.036l0.117,-0.034l0.119,-0.033l0.119,-0.031l0.119,-0.03l0.12,-0.029l0.121,-0.027l0.121,-0.026l0.122,-0.024l0.122,-0.022l0.123,-0.022l0.123,-0.019l0.124,-0.018l0.124,-0.017l0.125,-0.015l0.125,-0.014l0.126,-0.012l0.126,-0.01l0.126,-0.009l0.127,-0.007l0.127,-0.006l0.128,-0.004l0.128,-0.002l0.128,-0.001l0.128,0.001Zm-0.247,0.7l-0.12,0.002l-0.118,0.004l-0.119,0.005l-0.118,0.007l-0.117,0.008l-0.117,0.01l-0.117,0.011l-0.117,0.012l-0.115,0.014l-0.116,0.016l-0.115,0.017l-0.114,0.018l-0.115,0.02l-0.113,0.021l-0.113,0.022l-0.113,0.024l-0.112,0.025l-0.112,0.027l-0.111,0.027l-0.11,0.03l-0.11,0.03l-0.11,0.032l-0.108,0.033l-0.109,0.035l-0.107,0.035l-0.108,0.037l-0.106,0.039l-0.106,0.039l-0.105,0.041l-0.105,0.042l-0.104,0.043l-0.103,0.045l-0.103,0.046l-0.102,0.047l-0.102,0.048l-0.101,0.049l-0.1,0.051l-0.099,0.051l-0.099,0.053l-0.098,0.054l-0.097,0.055l-0.096,0.057l-0.096,0.057l-0.095,0.058l-0.094,0.06l-0.094,0.061l-0.092,0.062l-0.092,0.063l-0.091,0.064l-0.09,0.065l-0.09,0.066l-0.089,0.067l-0.087,0.068l-0.087,0.069l-0.086,0.07l-0.086,0.072l-0.084,0.072l-0.084,0.073l-0.082,0.074l-0.082,0.075l-0.081,0.076l-0.08,0.078l-0.078,0.078l-0.078,0.078l-0.078,0.08l-0.076,0.081l-0.075,0.082l-0.074,0.082l-0.073,0.084l-0.072,0.084l-0.072,0.086l-0.07,0.086l-0.069,0.087l-0.068,0.087l-0.067,0.089l-0.066,0.09l-0.065,0.09l-0.064,0.091l-0.063,0.092l-0.062,0.092l-0.061,0.094l-0.06,0.094l-0.058,0.095l-0.057,0.096l-0.057,0.096l-0.055,0.097l-0.054,0.098l-0.053,0.099l-0.051,0.099l-0.051,0.1l-0.049,0.101l-0.048,0.102l-0.047,0.102l-0.046,0.103l-0.045,0.103l-0.043,0.104l-0.042,0.105l-0.041,0.105l-0.039,0.106l-0.039,0.106l-0.037,0.108l-0.035,0.107l-0.035,0.109l-0.033,0.108l-0.032,0.11l-0.03,0.11l-0.03,0.11l-0.027,0.111l-0.027,0.112l-0.025,0.112l-0.024,0.113l-0.022,0.113l-0.021,0.113l-0.02,0.115l-0.018,0.114l-0.017,0.115l-0.016,0.116l-0.014,0.115l-0.012,0.117l-0.011,0.117l-0.01,0.117l-0.008,0.117l-0.007,0.118l-0.005,0.119l-0.004,0.118l-0.002,0.12l-0.001,0.119l0.001,0.119l0.002,0.12l0.004,0.118l0.005,0.119l0.007,0.118l0.008,0.117l0.01,0.117l0.011,0.117l0.012,0.117l0.014,0.115l0.016,0.116l0.017,0.115l0.018,0.114l0.02,0.115l0.021,0.113l0.022,0.113l0.024,0.113l0.025,0.112l0.027,0.112l0.027,0.111l0.03,0.11l0.03,0.11l0.032,0.11l0.033,0.108l0.035,0.109l0.035,0.107l0.037,0.108l0.039,0.106l0.039,0.106l0.041,0.105l0.042,0.105l0.043,0.104l0.045,0.103l0.046,0.103l0.047,0.102l0.048,0.102l0.049,0.101l0.051,0.1l0.051,0.099l0.053,0.099l0.054,0.098l0.055,0.097l0.057,0.096l0.057,0.096l0.058,0.095l0.06,0.094l0.061,0.094l0.062,0.092l0.063,0.092l0.064,0.091l0.065,0.09l0.066,0.09l0.067,0.089l0.068,0.087l0.069,0.087l0.07,0.086l0.072,0.086l0.072,0.084l0.073,0.084l0.074,0.082l0.075,0.082l0.076,0.081l0.078,0.08l0.078,0.078l0.078,0.078l0.08,0.078l0.081,0.076l0.082,0.075l0.082,0.074l0.084,0.073l0.084,0.072l0.086,0.072l0.086,0.07l0.087,0.069l0.087,0.068l0.089,0.067l0.09,0.066l0.09,0.065l0.091,0.064l0.092,0.063l0.092,0.062l0.094,0.061l0.094,0.06l0.095,0.058l0.096,0.057l0.096,0.057l0.097,0.055l0.098,0.054l0.099,0.053l0.099,0.051l0.1,0.051l0.101,0.049l0.102,0.048l0.102,0.047l0.103,0.046l0.103,0.045l0.104,0.043l0.105,0.042l0.105,0.041l0.106,0.039l0.106,0.039l0.108,0.037l0.107,0.035l0.109,0.035l0.108,0.033l0.11,0.032l0.11,0.03l0.11,0.03l0.111,0.027l0.112,0.027l0.112,0.025l0.113,0.024l0.113,0.022l0.113,0.021l0.115,0.02l0.114,0.018l0.115,0.017l0.116,0.016l0.115,0.014l0.117,0.012l0.117,0.011l0.117,0.01l0.117,0.008l0.118,0.007l0.119,0.005l0.118,0.004l0.12,0.002l0.119,0.001l0.119,-0.001l0.12,-0.002l0.118,-0.004l0.119,-0.005l0.118,-0.007l0.117,-0.008l0.117,-0.01l0.117,-0.011l0.117,-0.012l0.115,-0.014l0.116,-0.016l0.115,-0.017l0.114,-0.018l0.115,-0.02l0.113,-0.021l0.113,-0.022l0.113,-0.024l0.112,-0.025l0.112,-0.027l0.111,-0.027l0.11,-0.03l0.11,-0.03l0.11,-0.032l0.108,-0.033l0.109,-0.035l0.107,-0.035l0.108,-0.037l0.106,-0.039l0.106,-0.039l0.105,-0.041l0.105,-0.042l0.104,-0.043l0.103,-0.045l0.103,-0.046l0.102,-0.047l0.102,-0.048l0.101,-0.049l0.1,-0.051l0.099,-0.051l0.099,-0.053l0.098,-0.054l0.097,-0.055l0.096,-0.057l0.096,-0.057l0.095,-0.058l0.094,-0.06l0.094,-0.061l0.092,-0.062l0.092,-0.063l0.091,-0.064l0.09,-0.065l0.09,-0.066l0.089,-0.067l0.087,-0.068l0.087,-0.069l0.086,-0.07l0.086,-0.072l0.084,-0.072l0.084,-0.073l0.082,-0.074l0.082,-0.075l0.081,-0.076l0.08,-0.078l0.078,-0.078l0.078,-0.078l0.078,-0.08l0.076,-0.081l0.075,-0.082l0.074,-0.082l0.073,-0.084l0.072,-0.084l0.072,-0.086l0.07,-0.086l0.069,-0.087l0.068,-0.087l0.067,-0.089l0.066,-0.09l0.065,-0.09l0.064,-0.091l0.063,-0.092l0.062,-0.092l0.061,-0.094l0.06,-0.094l0.058,-0.095l0.057,-0.096l0.057,-0.096l0.055,-0.097l0.054,-0.098l0.053,-0.099l0.051,-0.099l0.051,-0.1l0.049,-0.101l0.048,-0.102l0.047,-0.102l0.046,-0.103l0.045,-0.103l0.043,-0.104l0.042,-0.105l0.041,-0.105l0.039,-0.106l0.039,-0.106l0.037,-0.108l0.035,-0.107l0.035,-0.109l0.033,-0.108l0.032,-0.11l0.03,-0.11l0.03,-0.11l0.027,-0.111l0.027,-0.112l0.025,-0.112l0.024,-0.113l0.022,-0.113l0.021,-0.113l0.02,-0.115l0.018,-0.114l0.017,-0.115l0.016,-0.116l0.014,-0.115l0.012,-0.117l0.011,-0.117l0.01,-0.117l0.008,-0.117l0.007,-0.118l0.005,-0.119l0.004,-0.118l0.002,-0.12l0.001,-0.119l-0.001,-0.119l-0.002,-0.12l-0.004,-0.118l-0.005,-0.119l-0.007,-0.118l-0.008,-0.117l-0.01,-0.117l-0.011,-0.117l-0.012,-0.117l-0.014,-0.115l-0.016,-0.116l-0.017,-0.115l-0.018,-0.114l-0.02,-0.115l-0.021,-0.113l-0.022,-0.113l-0.024,-0.113l-0.025,-0.112l-0.027,-0.112l-0.027,-0.111l-0.03,-0.11l-0.03,-0.11l-0.032,-0.11l-0.033,-0.108l-0.035,-0.109l-0.035,-0.107l-0.037,-0.108l-0.039,-0.106l-0.039,-0.106l-0.041,-0.105l-0.042,-0.105l-0.043,-0.104l-0.045,-0.103l-0.046,-0.103l-0.047,-0.102l-0.048,-0.102l-0.049,-0.101l-0.051,-0.1l-0.051,-0.099l-0.053,-0.099l-0.054,-0.098l-0.055,-0.097l-0.057,-0.096l-0.057,-0.096l-0.058,-0.095l-0.06,-0.094l-0.061,-0.094l-0.062,-0.092l-0.063,-0.092l-0.064,-0.091l-0.065,-0.09l-0.066,-0.09l-0.067,-0.089l-0.068,-0.087l-0.069,-0.087l-0.07,-0.086l-0.072,-0.086l-0.072,-0.084l-0.073,-0.084l-0.074,-0.082l-0.075,-0.082l-0.076,-0.081l-0.078,-0.08l-0.078,-0.078l-0.078,-0.078l-0.08,-0.078l-0.081,-0.076l-0.082,-0.075l-0.082,-0.074l-0.084,-0.073l-0.084,-0.072l-0.086,-0.072l-0.086,-0.07l-0.087,-0.069l-0.087,-0.068l-0.089,-0.067l-0.09,-0.066l-0.09,-0.065l-0.091,-0.064l-0.092,-0.063l-0.092,-0.062l-0.094,-0.061l-0.094,-0.06l-0.095,-0.058l-0.096,-0.057l-0.096,-0.057l-0.097,-0.055l-0.098,-0.054l-0.099,-0.053l-0.099,-0.051l-0.1,-0.051l-0.101,-0.049l-0.102,-0.048l-0.102,-0.047l-0.103,-0.046l-0.103,-0.045l-0.104,-0.043l-0.105,-0.042l-0.105,-0.041l-0.106,-0.039l-0.106,-0.039l-0.108,-0.037l-0.107,-0.035l-0.109,-0.035l-0.108,-0.033l-0.11,-0.032l-0.11,-0.03l-0.11,-0.03l-0.111,-0.027l-0.112,-0.027l-0.112,-0.025l-0.113,-0.024l-0.113,-0.022l-0.113,-0.021l-0.115,-0.02l-0.114,-0.018l-0.115,-0.017l-0.116,-0.016l-0.115,-0.014l-0.117,-0.012l-0.117,-0.011l-0.117,-0.01l-0.117,-0.008l-0.118,-0.007l-0.119,-0.005l-0.118,-0.004l-0.12,-0.002l-0.119,-0.001l-0.119,0.001Z" style="fill:#e0e0e0;"/><path d="M12.904,8.774l0.726,0c0.4,0 0.725,0.325 0.725,0.726l0,4.355c0,0.401 -0.325,0.726 -0.725,0.726l-7.26,0c-0.4,0 -0.725,-0.325 -0.725,-0.726l0,-4.355c0,-0.401 0.325,-0.726 0.725,-0.726l0.726,0l0,-1.452c0,-1.603 1.302,-2.903 2.904,-2.903c1.603,0 2.904,1.303 2.904,2.903l0,1.452Zm-1.452,0l0,-1.452c0,-0.799 -0.652,-1.452 -1.452,-1.452c-0.801,0 -1.452,0.651 -1.452,1.452l0,1.452l2.904,0Z" style="fill:#fff;fill-rule:nonzero;"/><path d="M15.026,11.111c0.122,-0.003 0.234,0.068 0.284,0.179l3.542,7.124c0.054,0.103 0.048,0.226 -0.014,0.324c-0.056,0.095 -0.159,0.154 -0.27,0.152l-7.086,0c-0.111,0.002 -0.214,-0.057 -0.27,-0.152c-0.062,-0.098 -0.068,-0.221 -0.014,-0.324l3.542,-7.124c0.05,-0.112 0.163,-0.182 0.286,-0.179m0,-1.711c-0.998,0.001 -1.688,0.907 -1.926,1.396l-3.5,7.123c-0.077,0.21 -0.1,0.42 -0.1,0.643c0,0.787 0.613,2.035 1.4,2.038l8.3,0c0.787,-0.003 1.4,-1.251 1.4,-2.038c0,-0.223 -0.1,-0.443 -0.2,-0.643l-3.5,-7.123c-0.258,-0.48 -0.795,-1.397 -1.874,-1.396Z" style="fill:#e0e0e0;fill-rule:nonzero;"/><path d="M19.848,17.919l-3.544,-7.123c-0.241,-0.484 -0.737,-0.792 -1.277,-0.792c-0.54,0 -1.037,0.308 -1.278,0.792l-3.547,7.123c-0.1,0.2 -0.152,0.42 -0.152,0.643c0,0.787 0.646,1.435 1.432,1.438l7.086,0c0.786,-0.003 1.432,-0.651 1.432,-1.438c0,-0.223 -0.052,-0.443 -0.152,-0.643Z" style="fill:#ffbf00;fill-rule:nonzero;"/><path d="M15.026,11.111c0.122,-0.003 0.234,0.068 0.284,0.179l3.542,7.124c0.054,0.103 0.048,0.226 -0.014,0.324c-0.056,0.095 -0.159,0.154 -0.27,0.152l-7.086,0c-0.111,0.002 -0.214,-0.057 -0.27,-0.152c-0.062,-0.098 -0.068,-0.221 -0.014,-0.324l3.542,-7.124c0.05,-0.112 0.163,-0.182 0.286,-0.179m0,-1.111c-0.544,-0.003 -1.043,0.307 -1.28,0.796l-3.544,7.123c-0.1,0.2 -0.152,0.42 -0.152,0.643c0,0.787 0.646,1.435 1.432,1.438l7.086,0c0.786,-0.003 1.432,-0.651 1.432,-1.438c0,-0.223 -0.052,-0.443 -0.152,-0.643l-3.544,-7.123c-0.237,-0.489 -0.735,-0.799 -1.278,-0.796Z" style="fill:#f1a200;fill-rule:nonzero;"/><path d="M15.05,15.556c0.304,0 0.556,-0.252 0.556,-0.556l0,-2.222c0,-0.305 -0.252,-0.556 -0.556,-0.556c-0.304,0 -0.556,0.251 -0.556,0.556l0,2.222c0,0.304 0.252,0.556 0.556,0.556Zm0,0.898c-0.421,0 -0.768,0.347 -0.768,0.768c0,0.421 0.347,0.768 0.768,0.768c0.421,0 0.768,-0.347 0.768,-0.768c0,-0.421 -0.347,-0.768 -0.768,-0.768Z" style="fill:#fff;fill-rule:nonzero;"/></svg>