<?xml version="1.0" encoding="UTF-8" standalone="no"?><!DOCTYPE svg PUBLIC "-//W3C//DTD SVG 1.1//EN" "http://www.w3.org/Graphics/SVG/1.1/DTD/svg11.dtd"><svg width="100%" height="100%" viewBox="0 0 16 16" version="1.1" xmlns="http://www.w3.org/2000/svg" xmlns:xlink="http://www.w3.org/1999/xlink" xml:space="preserve" xmlns:serif="http://www.serif.com/" style="fill-rule:evenodd;clip-rule:evenodd;stroke-linejoin:round;stroke-miterlimit:1.41421;"><g><path d="M8,1c-2.194,0 -4,1.806 -4,4l0,1.984l-0.5,0c-0.823,0 -1.5,0.677 -1.5,1.5l0,5.016c0,0.823 0.677,1.5 1.5,1.5l2.535,0c-0.064,-0.45 0.008,-0.909 0.207,-1.318l3.188,-6.412c0.059,-0.1 0.126,-0.196 0.2,-0.286l-3.63,0l0,-1.984c0,-0.687 0.354,-1.298 0.889,-1.659c0.319,-0.215 0.701,-0.341 1.111,-0.341c1.097,0 2,0.903 2,2l0,1.568c0.408,-0.362 0.933,-0.564 1.478,-0.568c0.176,0.004 0.351,0.029 0.522,0.073l0,-1.073c0,-2.194 -1.806,-4 -4,-4Z" style="fill:#666;fill-rule:nonzero;"/><path d="M8.126,0.102l0.125,0.004l0.124,0.008l0.124,0.011l0.122,0.015l0.122,0.017l0.121,0.02l0.12,0.023l0.119,0.027l0.118,0.029l0.117,0.032l0.115,0.034l0.115,0.038l0.113,0.04l0.112,0.043l0.11,0.045l0.11,0.049l0.107,0.05l0.107,0.053l0.104,0.056l0.104,0.058l0.101,0.06l0.1,0.063l0.099,0.065l0.097,0.067l0.095,0.07l0.093,0.072l0.092,0.074l0.089,0.076l0.088,0.078l0.086,0.08l0.084,0.082l0.082,0.084l0.08,0.086l0.078,0.088l0.076,0.089l0.074,0.092l0.072,0.093l0.07,0.095l0.067,0.097l0.065,0.099l0.063,0.1l0.06,0.101l0.058,0.104l0.056,0.104l0.053,0.107l0.05,0.107l0.049,0.11l0.045,0.11l0.043,0.112l0.04,0.113l0.038,0.115l0.034,0.115l0.032,0.117l0.029,0.118l0.027,0.119l0.023,0.12l0.02,0.121l0.017,0.122l0.015,0.122l0.011,0.124l0.008,0.124l0.004,0.125l0.002,0.12l0,1.079l-0.003,0.071l-0.008,0.07l-0.014,0.069l-0.019,0.068l-0.025,0.067l-0.029,0.064l-0.035,0.062l-0.039,0.059l-0.044,0.055l-0.048,0.052l-0.052,0.048l-0.056,0.044l-0.059,0.039l-0.062,0.035l-0.064,0.029l-0.066,0.024l-0.068,0.02l-0.07,0.013l-0.07,0.008l-0.071,0.003l-0.071,-0.003l-0.07,-0.008l-0.069,-0.014l-0.052,-0.013l-0.041,-0.009l-0.04,-0.007l-0.039,-0.006l-0.04,-0.005l-0.04,-0.004l-0.039,-0.003l-0.028,-0.001l-0.015,0.001l-0.031,0.001l-0.03,0.002l-0.03,0.002l-0.03,0.004l-0.031,0.004l-0.029,0.004l-0.03,0.006l-0.03,0.006l-0.029,0.006l-0.03,0.008l-0.029,0.008l-0.029,0.008l-0.029,0.009l-0.028,0.01l-0.028,0.011l-0.028,0.011l-0.028,0.012l-0.028,0.012l-0.027,0.013l-0.027,0.014l-0.027,0.014l-0.026,0.015l-0.026,0.015l-0.026,0.016l-0.026,0.017l-0.025,0.017l-0.024,0.018l-0.025,0.019l-0.024,0.019l-0.023,0.019l-0.031,0.027l-0.056,0.044l-0.058,0.04l-0.022,0.012l-0.012,0.028l-0.032,0.062l-0.038,0.059l-0.041,0.056l-0.022,0.027l-0.016,0.02l-0.016,0.022l-0.015,0.021l-0.015,0.022l-0.014,0.022l-0.014,0.021l-3.168,6.371l-0.011,0.024l-0.01,0.024l-0.011,0.023l-0.009,0.024l-0.009,0.024l-0.009,0.024l-0.009,0.024l-0.007,0.025l-0.008,0.024l-0.007,0.025l-0.006,0.024l-0.006,0.025l-0.006,0.025l-0.005,0.025l-0.005,0.025l-0.004,0.025l-0.004,0.025l-0.003,0.026l-0.003,0.025l-0.002,0.026l-0.002,0.025l-0.001,0.026l-0.001,0.025l-0.001,0.026l0,0.025l0.001,0.026l0.001,0.025l0.001,0.026l0.002,0.026l0.003,0.025l0.003,0.026l0.004,0.034l0.007,0.069l0.001,0.07l-0.005,0.069l-0.009,0.069l-0.015,0.068l-0.02,0.067l-0.026,0.065l-0.03,0.062l-0.035,0.061l-0.039,0.057l-0.044,0.054l-0.048,0.051l-0.052,0.046l-0.055,0.043l-0.058,0.038l-0.061,0.034l-0.063,0.028l-0.066,0.024l-0.067,0.019l-0.068,0.013l-0.069,0.008l-0.07,0.003l-2.541,0l-0.056,-0.001l-0.061,-0.002l-0.061,-0.004l-0.061,-0.005l-0.06,-0.007l-0.06,-0.009l-0.059,-0.01l-0.059,-0.011l-0.058,-0.013l-0.058,-0.014l-0.058,-0.016l-0.056,-0.017l-0.057,-0.019l-0.055,-0.019l-0.055,-0.021l-0.054,-0.023l-0.054,-0.023l-0.053,-0.025l-0.052,-0.026l-0.051,-0.027l-0.05,-0.029l-0.05,-0.029l-0.049,-0.031l-0.048,-0.032l-0.048,-0.032l-0.046,-0.034l-0.046,-0.035l-0.044,-0.037l-0.044,-0.037l-0.043,-0.038l-0.042,-0.039l-0.041,-0.04l-0.04,-0.041l-0.039,-0.042l-0.038,-0.043l-0.037,-0.044l-0.037,-0.044l-0.035,-0.046l-0.034,-0.046l-0.032,-0.048l-0.032,-0.048l-0.031,-0.049l-0.029,-0.05l-0.029,-0.05l-0.027,-0.051l-0.026,-0.052l-0.025,-0.053l-0.023,-0.054l-0.023,-0.054l-0.021,-0.055l-0.019,-0.055l-0.019,-0.057l-0.017,-0.056l-0.016,-0.058l-0.014,-0.058l-0.013,-0.058l-0.011,-0.059l-0.01,-0.059l-0.009,-0.06l-0.007,-0.06l-0.005,-0.061l-0.004,-0.061l-0.002,-0.061l-0.001,-0.056l0,-5.028l0.001,-0.056l0.002,-0.061l0.004,-0.061l0.005,-0.061l0.007,-0.06l0.009,-0.06l0.01,-0.059l0.011,-0.059l0.013,-0.058l0.014,-0.058l0.016,-0.058l0.017,-0.056l0.019,-0.057l0.019,-0.055l0.021,-0.055l0.023,-0.054l0.023,-0.054l0.025,-0.053l0.026,-0.052l0.027,-0.051l0.029,-0.05l0.029,-0.05l0.031,-0.049l0.032,-0.048l0.032,-0.048l0.034,-0.046l0.035,-0.046l0.037,-0.044l0.037,-0.044l0.038,-0.043l0.039,-0.042l0.04,-0.041l0.041,-0.04l0.042,-0.039l0.043,-0.038l0.044,-0.037l0.044,-0.037l0.046,-0.035l0.046,-0.034l0.048,-0.032l0.048,-0.032l0.049,-0.031l0.05,-0.029l0.05,-0.029l0.051,-0.027l0.052,-0.026l0.053,-0.025l0.054,-0.023l0.054,-0.023l0.055,-0.021l0.055,-0.019l0.057,-0.019l0.056,-0.017l0.058,-0.016l0.058,-0.014l0.058,-0.013l0.059,-0.011l0.024,-0.004l0,-1.124l0.002,-0.12l0.004,-0.125l0.008,-0.124l0.011,-0.124l0.015,-0.122l0.017,-0.122l0.02,-0.121l0.023,-0.12l0.027,-0.119l0.029,-0.118l0.032,-0.117l0.034,-0.115l0.038,-0.115l0.04,-0.113l0.043,-0.112l0.045,-0.11l0.049,-0.11l0.05,-0.107l0.053,-0.107l0.056,-0.104l0.058,-0.104l0.06,-0.101l0.063,-0.1l0.065,-0.099l0.067,-0.097l0.07,-0.095l0.072,-0.093l0.074,-0.092l0.076,-0.089l0.078,-0.088l0.08,-0.086l0.082,-0.084l0.084,-0.082l0.086,-0.08l0.088,-0.078l0.089,-0.076l0.092,-0.074l0.093,-0.072l0.095,-0.07l0.097,-0.067l0.099,-0.065l0.1,-0.063l0.101,-0.06l0.104,-0.058l0.104,-0.056l0.107,-0.053l0.107,-0.05l0.11,-0.049l0.11,-0.045l0.112,-0.043l0.113,-0.04l0.115,-0.038l0.115,-0.034l0.117,-0.032l0.118,-0.029l0.119,-0.027l0.12,-0.023l0.121,-0.02l0.122,-0.017l0.122,-0.015l0.124,-0.011l0.124,-0.008l0.125,-0.004l0.126,-0.002l0.126,0.002Zm-0.229,0.899l-0.102,0.004l-0.101,0.007l-0.1,0.009l-0.1,0.011l-0.1,0.014l-0.098,0.017l-0.098,0.019l-0.097,0.021l-0.096,0.024l-0.095,0.026l-0.094,0.028l-0.093,0.031l-0.092,0.032l-0.091,0.035l-0.091,0.037l-0.089,0.04l-0.088,0.041l-0.086,0.043l-0.086,0.046l-0.084,0.047l-0.083,0.05l-0.082,0.051l-0.081,0.053l-0.079,0.055l-0.078,0.057l-0.076,0.059l-0.075,0.06l-0.074,0.063l-0.072,0.063l-0.07,0.066l-0.069,0.067l-0.067,0.069l-0.066,0.07l-0.063,0.072l-0.063,0.074l-0.06,0.075l-0.059,0.076l-0.057,0.078l-0.055,0.079l-0.053,0.081l-0.051,0.082l-0.05,0.083l-0.047,0.084l-0.046,0.086l-0.043,0.086l-0.041,0.088l-0.04,0.089l-0.037,0.091l-0.035,0.091l-0.032,0.092l-0.031,0.093l-0.028,0.094l-0.026,0.095l-0.024,0.096l-0.021,0.097l-0.019,0.098l-0.017,0.098l-0.014,0.1l-0.011,0.1l-0.009,0.1l-0.007,0.101l-0.004,0.102l-0.001,0.103l0,1.984l-0.5,0l-0.038,0l-0.039,0.002l-0.038,0.002l-0.037,0.004l-0.038,0.004l-0.037,0.005l-0.037,0.007l-0.037,0.007l-0.036,0.008l-0.036,0.009l-0.036,0.009l-0.035,0.011l-0.035,0.011l-0.035,0.013l-0.034,0.013l-0.034,0.014l-0.033,0.014l-0.033,0.016l-0.032,0.016l-0.033,0.017l-0.031,0.018l-0.031,0.018l-0.031,0.02l-0.03,0.02l-0.03,0.02l-0.029,0.022l-0.029,0.022l-0.028,0.022l-0.027,0.024l-0.027,0.024l-0.027,0.024l-0.026,0.025l-0.025,0.026l-0.024,0.027l-0.024,0.027l-0.024,0.027l-0.022,0.028l-0.022,0.029l-0.022,0.029l-0.02,0.03l-0.02,0.03l-0.02,0.031l-0.018,0.031l-0.018,0.031l-0.017,0.033l-0.016,0.032l-0.016,0.033l-0.014,0.033l-0.014,0.034l-0.013,0.034l-0.013,0.035l-0.011,0.035l-0.011,0.035l-0.009,0.036l-0.009,0.036l-0.008,0.036l-0.007,0.037l-0.007,0.037l-0.005,0.037l-0.004,0.038l-0.004,0.037l-0.002,0.038l-0.002,0.039l0,0.038l0,5.016l0,0.038l0.002,0.039l0.002,0.038l0.004,0.037l0.004,0.038l0.005,0.037l0.007,0.037l0.007,0.037l0.008,0.036l0.009,0.036l0.009,0.036l0.011,0.035l0.011,0.035l0.013,0.035l0.013,0.034l0.014,0.034l0.014,0.033l0.016,0.033l0.016,0.032l0.017,0.033l0.018,0.031l0.018,0.031l0.02,0.031l0.02,0.03l0.02,0.03l0.022,0.029l0.022,0.029l0.022,0.028l0.024,0.027l0.024,0.027l0.024,0.027l0.025,0.026l0.026,0.025l0.027,0.024l0.027,0.024l0.027,0.024l0.028,0.022l0.029,0.022l0.029,0.022l0.03,0.02l0.03,0.02l0.031,0.02l0.031,0.018l0.031,0.018l0.033,0.017l0.032,0.016l0.033,0.016l0.033,0.014l0.034,0.014l0.034,0.013l0.035,0.013l0.035,0.011l0.035,0.011l0.036,0.009l0.036,0.009l0.036,0.008l0.037,0.007l0.037,0.007l0.037,0.005l0.038,0.004l0.037,0.004l0.038,0.002l0.039,0.002l0.038,0l2.535,0l-0.006,-0.042l-0.004,-0.042l-0.004,-0.043l-0.004,-0.042l-0.002,-0.042l-0.002,-0.043l-0.001,-0.042l0,-0.042l0.001,-0.043l0.002,-0.042l0.002,-0.042l0.003,-0.042l0.004,-0.042l0.004,-0.042l0.006,-0.042l0.006,-0.041l0.007,-0.042l0.007,-0.041l0.009,-0.042l0.009,-0.041l0.01,-0.041l0.011,-0.041l0.011,-0.04l0.013,-0.041l0.013,-0.04l0.014,-0.04l0.014,-0.04l0.015,-0.039l0.016,-0.04l0.017,-0.039l0.018,-0.039l0.018,-0.038l3.188,-6.412l0.022,-0.037l0.024,-0.037l0.024,-0.037l0.024,-0.036l0.026,-0.035l0.026,-0.035l0.027,-0.035l0.027,-0.034l-3.63,0l0,-1.984l0.001,-0.064l0.003,-0.064l0.005,-0.063l0.007,-0.063l0.009,-0.062l0.011,-0.061l0.013,-0.061l0.015,-0.06l0.016,-0.06l0.019,-0.059l0.02,-0.058l0.021,-0.057l0.024,-0.056l0.025,-0.056l0.027,-0.054l0.028,-0.054l0.03,-0.053l0.031,-0.051l0.033,-0.051l0.035,-0.05l0.036,-0.048l0.037,-0.048l0.039,-0.046l0.039,-0.045l0.042,-0.044l0.042,-0.043l0.044,-0.041l0.045,-0.04l0.046,-0.039l0.048,-0.037l0.048,-0.036l0.05,-0.035l0.06,-0.039l0.062,-0.037l0.064,-0.035l0.064,-0.033l0.066,-0.03l0.067,-0.028l0.069,-0.026l0.069,-0.023l0.071,-0.021l0.071,-0.018l0.073,-0.015l0.073,-0.013l0.075,-0.01l0.075,-0.007l0.075,-0.005l0.077,-0.001l0.051,0.001l0.051,0.002l0.051,0.003l0.05,0.004l0.05,0.006l0.05,0.007l0.049,0.008l0.049,0.01l0.048,0.011l0.048,0.011l0.048,0.013l0.047,0.015l0.047,0.015l0.046,0.016l0.045,0.018l0.045,0.018l0.045,0.02l0.044,0.021l0.043,0.021l0.043,0.023l0.042,0.024l0.042,0.024l0.041,0.026l0.04,0.027l0.039,0.027l0.039,0.029l0.039,0.029l0.037,0.03l0.037,0.031l0.036,0.032l0.035,0.033l0.034,0.034l0.034,0.034l0.033,0.035l0.032,0.036l0.031,0.037l0.03,0.037l0.029,0.039l0.029,0.039l0.027,0.039l0.027,0.04l0.026,0.041l0.024,0.042l0.024,0.042l0.023,0.043l0.021,0.043l0.021,0.044l0.02,0.045l0.018,0.045l0.018,0.045l0.016,0.046l0.015,0.047l0.015,0.047l0.013,0.048l0.011,0.048l0.011,0.048l0.01,0.049l0.008,0.049l0.007,0.05l0.006,0.05l0.004,0.05l0.003,0.051l0.002,0.051l0.001,0.051l0,1.568l0.039,-0.033l0.039,-0.033l0.04,-0.032l0.04,-0.03l0.041,-0.03l0.042,-0.028l0.043,-0.028l0.042,-0.027l0.044,-0.026l0.044,-0.024l0.044,-0.024l0.045,-0.023l0.046,-0.021l0.046,-0.021l0.046,-0.02l0.047,-0.018l0.047,-0.018l0.047,-0.016l0.048,-0.016l0.048,-0.014l0.049,-0.013l0.049,-0.012l0.049,-0.011l0.05,-0.01l0.049,-0.009l0.05,-0.008l0.05,-0.007l0.051,-0.005l0.05,-0.005l0.051,-0.003l0.051,-0.002l0.051,-0.001l0.066,0.002l0.066,0.005l0.065,0.006l0.066,0.008l0.065,0.011l0.065,0.012l0.065,0.013l0.064,0.016l0,-1.073l-0.001,-0.103l-0.004,-0.102l-0.007,-0.101l-0.009,-0.1l-0.011,-0.1l-0.014,-0.1l-0.017,-0.098l-0.019,-0.098l-0.021,-0.097l-0.024,-0.096l-0.026,-0.095l-0.028,-0.094l-0.031,-0.093l-0.032,-0.092l-0.035,-0.091l-0.037,-0.091l-0.04,-0.089l-0.041,-0.088l-0.043,-0.086l-0.046,-0.086l-0.047,-0.084l-0.05,-0.083l-0.051,-0.082l-0.053,-0.081l-0.055,-0.079l-0.057,-0.078l-0.059,-0.076l-0.06,-0.075l-0.063,-0.074l-0.063,-0.072l-0.066,-0.07l-0.067,-0.069l-0.069,-0.067l-0.07,-0.066l-0.072,-0.063l-0.074,-0.063l-0.075,-0.06l-0.076,-0.059l-0.078,-0.057l-0.079,-0.055l-0.081,-0.053l-0.082,-0.051l-0.083,-0.05l-0.084,-0.047l-0.086,-0.046l-0.086,-0.043l-0.088,-0.041l-0.089,-0.04l-0.091,-0.037l-0.091,-0.035l-0.092,-0.032l-0.093,-0.031l-0.094,-0.028l-0.095,-0.026l-0.096,-0.024l-0.097,-0.021l-0.098,-0.019l-0.098,-0.017l-0.1,-0.014l-0.1,-0.011l-0.1,-0.009l-0.101,-0.007l-0.102,-0.004l-0.103,-0.001l-0.103,0.001Zm0.061,2.9l-0.041,0.002l-0.041,0.004l-0.041,0.006l-0.04,0.007l-0.039,0.008l-0.039,0.01l-0.038,0.011l-0.038,0.013l-0.037,0.014l-0.037,0.015l-0.036,0.017l-0.036,0.018l-0.035,0.019l-0.034,0.02l-0.035,0.023l-0.026,0.018l-0.027,0.02l-0.027,0.021l-0.025,0.022l-0.025,0.022l-0.025,0.023l-0.024,0.024l-0.023,0.025l-0.022,0.025l-0.022,0.026l-0.02,0.026l-0.02,0.027l-0.019,0.028l-0.019,0.028l-0.017,0.028l-0.017,0.029l-0.015,0.03l-0.015,0.03l-0.014,0.03l-0.012,0.031l-0.012,0.032l-0.011,0.031l-0.01,0.032l-0.009,0.032l-0.008,0.033l-0.007,0.033l-0.006,0.034l-0.005,0.033l-0.004,0.034l-0.003,0.035l-0.001,0.035l-0.001,0.042l0,1.077l2.2,0l0,-1.078l0,-0.034l-0.002,-0.028l-0.001,-0.028l-0.003,-0.027l-0.003,-0.027l-0.004,-0.027l-0.004,-0.027l-0.005,-0.027l-0.006,-0.026l-0.007,-0.026l-0.007,-0.026l-0.007,-0.025l-0.009,-0.026l-0.009,-0.025l-0.009,-0.025l-0.01,-0.025l-0.011,-0.024l-0.011,-0.024l-0.012,-0.024l-0.013,-0.024l-0.013,-0.023l-0.014,-0.023l-0.014,-0.022l-0.015,-0.023l-0.015,-0.022l-0.016,-0.021l-0.016,-0.022l-0.017,-0.021l-0.017,-0.02l-0.018,-0.02l-0.018,-0.02l-0.019,-0.019l-0.019,-0.019l-0.02,-0.018l-0.02,-0.018l-0.02,-0.017l-0.021,-0.017l-0.022,-0.016l-0.021,-0.016l-0.022,-0.015l-0.023,-0.015l-0.022,-0.014l-0.023,-0.014l-0.023,-0.013l-0.024,-0.013l-0.024,-0.012l-0.024,-0.011l-0.024,-0.011l-0.025,-0.01l-0.025,-0.009l-0.025,-0.009l-0.026,-0.009l-0.025,-0.007l-0.026,-0.007l-0.026,-0.007l-0.026,-0.006l-0.027,-0.005l-0.027,-0.004l-0.027,-0.004l-0.027,-0.003l-0.027,-0.003l-0.028,-0.001l-0.028,-0.002l-0.025,0l-0.045,0.001Z" style="fill:#e0e0e0;"/></g><path d="M15.686,13.996l-3.189,-6.411c-0.217,-0.435 -0.664,-0.712 -1.15,-0.712c-0.486,0 -0.933,0.277 -1.15,0.712l-3.192,6.411c-0.09,0.18 -0.137,0.378 -0.137,0.579c0,0.708 0.581,1.291 1.289,1.294l6.377,0c0.708,-0.003 1.289,-0.586 1.289,-1.294c0,-0.201 -0.047,-0.399 -0.137,-0.579Z" style="fill:#ffbf00;fill-rule:nonzero;"/><path d="M11.346,7.869c0.11,-0.003 0.211,0.061 0.256,0.161l3.188,6.412c0.048,0.092 0.043,0.203 -0.013,0.291c-0.05,0.086 -0.143,0.139 -0.243,0.137l-6.377,0c-0.1,0.002 -0.193,-0.051 -0.243,-0.137c-0.056,-0.088 -0.061,-0.199 -0.013,-0.291l3.188,-6.412c0.045,-0.101 0.147,-0.164 0.257,-0.161m0,-1c-0.489,-0.003 -0.938,0.276 -1.152,0.716l-3.189,6.411c-0.09,0.18 -0.137,0.378 -0.137,0.579c0,0.708 0.581,1.291 1.289,1.294l6.377,0c0.708,-0.003 1.289,-0.586 1.289,-1.294c0,-0.201 -0.047,-0.399 -0.137,-0.579l-3.189,-6.411c-0.214,-0.44 -0.662,-0.719 -1.151,-0.716Z" style="fill:#d76e00;fill-opacity:0.34902;fill-rule:nonzero;"/><path d="M11.368,11.869c0.274,0 0.5,-0.226 0.5,-0.5l0,-2c0,-0.274 -0.226,-0.5 -0.5,-0.5c-0.274,0 -0.5,0.226 -0.5,0.5l0,2c0,0.274 0.226,0.5 0.5,0.5Zm0,0.809c-0.379,0 -0.691,0.312 -0.691,0.691c0,0.379 0.312,0.691 0.691,0.691c0.379,0 0.691,-0.312 0.691,-0.691c0,-0.379 -0.312,-0.691 -0.691,-0.691Z" style="fill:#e0e0e0;fill-rule:nonzero;"/></svg>