<?xml version="1.0" encoding="UTF-8" standalone="no"?><!DOCTYPE svg PUBLIC "-//W3C//DTD SVG 1.1//EN" "http://www.w3.org/Graphics/SVG/1.1/DTD/svg11.dtd"><svg width="100%" height="100%" viewBox="0 0 16 16" version="1.1" xmlns="http://www.w3.org/2000/svg" xmlns:xlink="http://www.w3.org/1999/xlink" xml:space="preserve" xmlns:serif="http://www.serif.com/" style="fill-rule:evenodd;clip-rule:evenodd;stroke-linejoin:round;stroke-miterlimit:1.41421;"><path d="M8,15c-3.84,0 -7,-3.16 -7,-7c0,-3.84 3.16,-7 7,-7c3.84,0 7,3.16 7,7c0,3.84 -3.16,7 -7,7Zm0,-13c-3.292,0 -6,2.708 -6,6c0,3.292 2.708,6 6,6c3.292,0 6,-2.708 6,-6c0,-3.292 -2.708,-6 -6,-6Zm0,10c-0.549,0 -1,-0.451 -1,-1l0,-3c0,-0.549 0.451,-1 1,-1c0.549,0 1,0.451 1,1l0,3c0,0.549 -0.451,1 -1,1Zm0,-6c-0.549,0 -1,-0.451 -1,-1c0,-0.549 0.451,-1 1,-1c0.549,0 1,0.451 1,1c0,0.549 -0.451,1 -1,1Z" style="fill:#a5bdd5;"/></svg>