<?xml version="1.0" encoding="UTF-8" standalone="no"?><!DOCTYPE svg PUBLIC "-//W3C//DTD SVG 1.1//EN" "http://www.w3.org/Graphics/SVG/1.1/DTD/svg11.dtd"><svg width="100%" height="100%" viewBox="0 0 16 16" version="1.1" xmlns="http://www.w3.org/2000/svg" xmlns:xlink="http://www.w3.org/1999/xlink" xml:space="preserve" xmlns:serif="http://www.serif.com/" style="fill-rule:evenodd;clip-rule:evenodd;stroke-linejoin:round;stroke-miterlimit:1.41421;"><g><path d="M8,15c-3.84,0 -7,-3.16 -7,-7c0,-3.84 3.16,-7 7,-7c3.84,0 7,3.16 7,7c0,3.84 -3.16,7 -7,7Zm0,-13c-3.292,0 -6,2.708 -6,6c0,3.292 2.708,6 6,6c3.292,0 6,-2.708 6,-6c0,-3.292 -2.708,-6 -6,-6Zm0,10c-0.549,0 -1,-0.451 -1,-1l0,-3c0,-0.549 0.451,-1 1,-1c0.549,0 1,0.451 1,1l0,3c0,0.549 -0.451,1 -1,1Zm0,-6c-0.549,0 -1,-0.451 -1,-1c0,-0.549 0.451,-1 1,-1c0.549,0 1,0.451 1,1c0,0.549 -0.451,1 -1,1Z" style="fill:#666;"/><path d="M8.101,0.101l0.102,0.002l0.101,0.003l0.1,0.004l0.1,0.006l0.1,0.007l0.1,0.009l0.1,0.009l0.099,0.011l0.098,0.012l0.099,0.013l0.098,0.015l0.097,0.016l0.097,0.016l0.097,0.019l0.097,0.019l0.096,0.02l0.095,0.022l0.095,0.023l0.095,0.024l0.094,0.025l0.094,0.026l0.094,0.028l0.092,0.028l0.093,0.03l0.092,0.031l0.091,0.031l0.091,0.033l0.09,0.034l0.09,0.035l0.09,0.037l0.088,0.037l0.089,0.038l0.087,0.039l0.088,0.041l0.086,0.041l0.086,0.042l0.085,0.044l0.085,0.044l0.084,0.045l0.084,0.047l0.083,0.047l0.082,0.048l0.082,0.049l0.081,0.05l0.081,0.051l0.079,0.052l0.079,0.053l0.079,0.054l0.078,0.055l0.077,0.056l0.076,0.056l0.076,0.058l0.075,0.058l0.074,0.059l0.073,0.06l0.073,0.061l0.072,0.062l0.071,0.062l0.071,0.064l0.07,0.064l0.069,0.065l0.068,0.066l0.067,0.067l0.067,0.067l0.066,0.068l0.065,0.069l0.064,0.07l0.064,0.071l0.062,0.071l0.062,0.072l0.061,0.073l0.06,0.073l0.059,0.074l0.058,0.075l0.058,0.076l0.056,0.076l0.056,0.077l0.055,0.078l0.054,0.079l0.053,0.079l0.052,0.079l0.051,0.081l0.05,0.081l0.049,0.082l0.048,0.082l0.047,0.083l0.047,0.084l0.045,0.084l0.044,0.085l0.044,0.085l0.042,0.086l0.041,0.086l0.041,0.088l0.039,0.087l0.038,0.089l0.037,0.088l0.037,0.09l0.035,0.09l0.034,0.09l0.033,0.091l0.031,0.091l0.031,0.092l0.03,0.093l0.028,0.092l0.028,0.094l0.026,0.094l0.025,0.094l0.024,0.095l0.023,0.095l0.022,0.095l0.02,0.096l0.019,0.097l0.019,0.097l0.016,0.097l0.016,0.097l0.015,0.098l0.013,0.099l0.012,0.098l0.011,0.099l0.009,0.1l0.009,0.1l0.007,0.1l0.006,0.1l0.004,0.1l0.003,0.101l0.002,0.102l0.001,0.101l-0.001,0.101l-0.002,0.102l-0.003,0.101l-0.004,0.1l-0.006,0.1l-0.007,0.1l-0.009,0.1l-0.009,0.1l-0.011,0.099l-0.012,0.098l-0.013,0.099l-0.015,0.098l-0.016,0.097l-0.016,0.097l-0.019,0.097l-0.019,0.097l-0.02,0.096l-0.022,0.095l-0.023,0.095l-0.024,0.095l-0.025,0.094l-0.026,0.094l-0.028,0.094l-0.028,0.092l-0.03,0.093l-0.031,0.092l-0.031,0.091l-0.033,0.091l-0.034,0.09l-0.035,0.09l-0.037,0.09l-0.037,0.088l-0.038,0.089l-0.039,0.087l-0.041,0.088l-0.041,0.086l-0.042,0.086l-0.044,0.085l-0.044,0.085l-0.045,0.084l-0.047,0.084l-0.047,0.083l-0.048,0.082l-0.049,0.082l-0.05,0.081l-0.051,0.081l-0.052,0.079l-0.053,0.079l-0.054,0.079l-0.055,0.078l-0.056,0.077l-0.056,0.076l-0.058,0.076l-0.058,0.075l-0.059,0.074l-0.06,0.073l-0.061,0.073l-0.062,0.072l-0.062,0.071l-0.064,0.071l-0.064,0.07l-0.065,0.069l-0.066,0.068l-0.067,0.067l-0.067,0.067l-0.068,0.066l-0.069,0.065l-0.07,0.064l-0.071,0.064l-0.071,0.062l-0.072,0.062l-0.073,0.061l-0.073,0.06l-0.074,0.059l-0.075,0.058l-0.076,0.058l-0.076,0.056l-0.077,0.056l-0.078,0.055l-0.079,0.054l-0.079,0.053l-0.079,0.052l-0.081,0.051l-0.081,0.05l-0.082,0.049l-0.082,0.048l-0.083,0.047l-0.084,0.047l-0.084,0.045l-0.085,0.044l-0.085,0.044l-0.086,0.042l-0.086,0.041l-0.088,0.041l-0.087,0.039l-0.089,0.038l-0.088,0.037l-0.09,0.037l-0.09,0.035l-0.09,0.034l-0.091,0.033l-0.091,0.031l-0.092,0.031l-0.093,0.03l-0.092,0.028l-0.094,0.028l-0.094,0.026l-0.094,0.025l-0.095,0.024l-0.095,0.023l-0.095,0.022l-0.096,0.02l-0.097,0.019l-0.097,0.019l-0.097,0.016l-0.097,0.016l-0.098,0.015l-0.099,0.013l-0.098,0.012l-0.099,0.011l-0.1,0.009l-0.1,0.009l-0.1,0.007l-0.1,0.006l-0.1,0.004l-0.101,0.003l-0.102,0.002l-0.101,0.001l-0.101,-0.001l-0.102,-0.002l-0.101,-0.003l-0.1,-0.004l-0.1,-0.006l-0.1,-0.007l-0.1,-0.009l-0.1,-0.009l-0.099,-0.011l-0.098,-0.012l-0.099,-0.013l-0.098,-0.015l-0.097,-0.016l-0.097,-0.016l-0.097,-0.019l-0.097,-0.019l-0.096,-0.02l-0.095,-0.022l-0.095,-0.023l-0.095,-0.024l-0.094,-0.025l-0.094,-0.026l-0.094,-0.028l-0.092,-0.028l-0.093,-0.03l-0.092,-0.031l-0.091,-0.031l-0.091,-0.033l-0.09,-0.034l-0.09,-0.035l-0.09,-0.037l-0.088,-0.037l-0.089,-0.038l-0.087,-0.039l-0.088,-0.041l-0.086,-0.041l-0.086,-0.042l-0.085,-0.044l-0.085,-0.044l-0.084,-0.045l-0.084,-0.047l-0.083,-0.047l-0.082,-0.048l-0.082,-0.049l-0.081,-0.05l-0.081,-0.051l-0.079,-0.052l-0.079,-0.053l-0.079,-0.054l-0.078,-0.055l-0.077,-0.056l-0.076,-0.056l-0.076,-0.058l-0.075,-0.058l-0.074,-0.059l-0.073,-0.06l-0.073,-0.061l-0.072,-0.062l-0.071,-0.062l-0.071,-0.064l-0.07,-0.064l-0.069,-0.065l-0.068,-0.066l-0.067,-0.067l-0.067,-0.067l-0.066,-0.068l-0.065,-0.069l-0.064,-0.07l-0.064,-0.071l-0.062,-0.071l-0.062,-0.072l-0.061,-0.073l-0.06,-0.073l-0.059,-0.074l-0.058,-0.075l-0.058,-0.076l-0.056,-0.076l-0.056,-0.077l-0.055,-0.078l-0.054,-0.079l-0.053,-0.079l-0.052,-0.079l-0.051,-0.081l-0.05,-0.081l-0.049,-0.082l-0.048,-0.082l-0.047,-0.083l-0.047,-0.084l-0.045,-0.084l-0.044,-0.085l-0.044,-0.085l-0.042,-0.086l-0.041,-0.086l-0.041,-0.088l-0.039,-0.087l-0.038,-0.089l-0.037,-0.088l-0.037,-0.09l-0.035,-0.09l-0.034,-0.09l-0.033,-0.091l-0.031,-0.091l-0.031,-0.092l-0.03,-0.093l-0.028,-0.092l-0.028,-0.094l-0.026,-0.094l-0.025,-0.094l-0.024,-0.095l-0.023,-0.095l-0.022,-0.095l-0.02,-0.096l-0.019,-0.097l-0.019,-0.097l-0.016,-0.097l-0.016,-0.097l-0.015,-0.098l-0.013,-0.099l-0.012,-0.098l-0.011,-0.099l-0.009,-0.1l-0.009,-0.1l-0.007,-0.1l-0.006,-0.1l-0.004,-0.1l-0.003,-0.101l-0.002,-0.102l-0.001,-0.101l0.001,-0.101l0.002,-0.102l0.003,-0.101l0.004,-0.1l0.006,-0.1l0.007,-0.1l0.009,-0.1l0.009,-0.1l0.011,-0.099l0.012,-0.098l0.013,-0.099l0.015,-0.098l0.016,-0.097l0.016,-0.097l0.019,-0.097l0.019,-0.097l0.02,-0.096l0.022,-0.095l0.023,-0.095l0.024,-0.095l0.025,-0.094l0.026,-0.094l0.028,-0.094l0.028,-0.092l0.03,-0.093l0.031,-0.092l0.031,-0.091l0.033,-0.091l0.034,-0.09l0.035,-0.09l0.037,-0.09l0.037,-0.088l0.038,-0.089l0.039,-0.087l0.041,-0.088l0.041,-0.086l0.042,-0.086l0.044,-0.085l0.044,-0.085l0.045,-0.084l0.047,-0.084l0.047,-0.083l0.048,-0.082l0.049,-0.082l0.05,-0.081l0.051,-0.081l0.052,-0.079l0.053,-0.079l0.054,-0.079l0.055,-0.078l0.056,-0.077l0.056,-0.076l0.058,-0.076l0.058,-0.075l0.059,-0.074l0.06,-0.073l0.061,-0.073l0.062,-0.072l0.062,-0.071l0.064,-0.071l0.064,-0.07l0.065,-0.069l0.066,-0.068l0.067,-0.067l0.067,-0.067l0.068,-0.066l0.069,-0.065l0.07,-0.064l0.071,-0.064l0.071,-0.062l0.072,-0.062l0.073,-0.061l0.073,-0.06l0.074,-0.059l0.075,-0.058l0.076,-0.058l0.076,-0.056l0.077,-0.056l0.078,-0.055l0.079,-0.054l0.079,-0.053l0.079,-0.052l0.081,-0.051l0.081,-0.05l0.082,-0.049l0.082,-0.048l0.083,-0.047l0.084,-0.047l0.084,-0.045l0.085,-0.044l0.085,-0.044l0.086,-0.042l0.086,-0.041l0.088,-0.041l0.087,-0.039l0.089,-0.038l0.088,-0.037l0.09,-0.037l0.09,-0.035l0.09,-0.034l0.091,-0.033l0.091,-0.031l0.092,-0.031l0.093,-0.03l0.092,-0.028l0.094,-0.028l0.094,-0.026l0.094,-0.025l0.095,-0.024l0.095,-0.023l0.095,-0.022l0.096,-0.02l0.097,-0.019l0.097,-0.019l0.097,-0.016l0.097,-0.016l0.098,-0.015l0.099,-0.013l0.098,-0.012l0.099,-0.011l0.1,-0.009l0.1,-0.009l0.1,-0.007l0.1,-0.006l0.1,-0.004l0.101,-0.003l0.102,-0.002l0.101,-0.001l0.101,0.001Zm-0.191,0.9l-0.089,0.001l-0.09,0.003l-0.089,0.004l-0.089,0.005l-0.088,0.007l-0.088,0.007l-0.088,0.008l-0.088,0.01l-0.087,0.011l-0.087,0.011l-0.087,0.013l-0.086,0.014l-0.086,0.015l-0.086,0.016l-0.085,0.017l-0.085,0.018l-0.085,0.02l-0.084,0.02l-0.084,0.021l-0.083,0.022l-0.083,0.023l-0.083,0.025l-0.082,0.025l-0.082,0.026l-0.081,0.027l-0.081,0.029l-0.08,0.029l-0.08,0.03l-0.08,0.031l-0.079,0.032l-0.079,0.033l-0.078,0.034l-0.078,0.034l-0.077,0.036l-0.076,0.037l-0.077,0.037l-0.075,0.039l-0.075,0.039l-0.075,0.04l-0.074,0.041l-0.074,0.042l-0.073,0.043l-0.072,0.043l-0.072,0.045l-0.071,0.045l-0.071,0.046l-0.07,0.047l-0.07,0.048l-0.069,0.049l-0.068,0.049l-0.068,0.05l-0.067,0.051l-0.067,0.052l-0.066,0.053l-0.065,0.053l-0.064,0.054l-0.064,0.055l-0.064,0.055l-0.062,0.057l-0.062,0.057l-0.062,0.057l-0.06,0.059l-0.06,0.059l-0.059,0.06l-0.059,0.06l-0.057,0.062l-0.057,0.062l-0.057,0.062l-0.055,0.064l-0.055,0.064l-0.054,0.064l-0.053,0.065l-0.053,0.066l-0.052,0.067l-0.051,0.067l-0.05,0.068l-0.049,0.068l-0.049,0.069l-0.048,0.07l-0.047,0.07l-0.046,0.071l-0.045,0.071l-0.045,0.072l-0.043,0.072l-0.043,0.073l-0.042,0.074l-0.041,0.074l-0.04,0.075l-0.039,0.075l-0.039,0.075l-0.037,0.077l-0.037,0.076l-0.036,0.077l-0.034,0.078l-0.034,0.078l-0.033,0.079l-0.032,0.079l-0.031,0.08l-0.03,0.08l-0.029,0.08l-0.029,0.081l-0.027,0.081l-0.026,0.082l-0.025,0.082l-0.025,0.083l-0.023,0.083l-0.022,0.083l-0.021,0.084l-0.02,0.084l-0.02,0.085l-0.018,0.085l-0.017,0.085l-0.016,0.086l-0.015,0.086l-0.014,0.086l-0.013,0.087l-0.011,0.087l-0.011,0.087l-0.01,0.088l-0.008,0.088l-0.007,0.088l-0.007,0.088l-0.005,0.089l-0.004,0.089l-0.003,0.09l-0.001,0.089l-0.001,0.09l0.001,0.09l0.001,0.089l0.003,0.09l0.004,0.089l0.005,0.089l0.007,0.088l0.007,0.088l0.008,0.088l0.01,0.088l0.011,0.087l0.011,0.087l0.013,0.087l0.014,0.086l0.015,0.086l0.016,0.086l0.017,0.085l0.018,0.085l0.02,0.085l0.02,0.084l0.021,0.084l0.022,0.083l0.023,0.083l0.025,0.083l0.025,0.082l0.026,0.082l0.027,0.081l0.029,0.081l0.029,0.08l0.03,0.08l0.031,0.08l0.032,0.079l0.033,0.079l0.034,0.078l0.034,0.078l0.036,0.077l0.037,0.076l0.037,0.077l0.039,0.075l0.039,0.075l0.04,0.075l0.041,0.074l0.042,0.074l0.043,0.073l0.043,0.072l0.045,0.072l0.045,0.071l0.046,0.071l0.047,0.07l0.048,0.07l0.049,0.069l0.049,0.068l0.05,0.068l0.051,0.067l0.052,0.067l0.053,0.066l0.053,0.065l0.054,0.064l0.055,0.064l0.055,0.064l0.057,0.062l0.057,0.062l0.057,0.062l0.059,0.06l0.059,0.06l0.06,0.059l0.06,0.059l0.062,0.057l0.062,0.057l0.062,0.057l0.064,0.055l0.064,0.055l0.064,0.054l0.065,0.053l0.066,0.053l0.067,0.052l0.067,0.051l0.068,0.05l0.068,0.049l0.069,0.049l0.07,0.048l0.07,0.047l0.071,0.046l0.071,0.045l0.072,0.045l0.072,0.043l0.073,0.043l0.074,0.042l0.074,0.041l0.075,0.04l0.075,0.039l0.075,0.039l0.077,0.037l0.076,0.037l0.077,0.036l0.078,0.034l0.078,0.034l0.079,0.033l0.079,0.032l0.08,0.031l0.08,0.03l0.08,0.029l0.081,0.029l0.081,0.027l0.082,0.026l0.082,0.025l0.083,0.025l0.083,0.023l0.083,0.022l0.084,0.021l0.084,0.02l0.085,0.02l0.085,0.018l0.085,0.017l0.086,0.016l0.086,0.015l0.086,0.014l0.087,0.013l0.087,0.011l0.087,0.011l0.088,0.01l0.088,0.008l0.088,0.007l0.088,0.007l0.089,0.005l0.089,0.004l0.09,0.003l0.089,0.001l0.09,0.001l0.09,-0.001l0.089,-0.001l0.09,-0.003l0.089,-0.004l0.089,-0.005l0.088,-0.007l0.088,-0.007l0.088,-0.008l0.088,-0.01l0.087,-0.011l0.087,-0.011l0.087,-0.013l0.086,-0.014l0.086,-0.015l0.086,-0.016l0.085,-0.017l0.085,-0.018l0.085,-0.02l0.084,-0.02l0.084,-0.021l0.083,-0.022l0.083,-0.023l0.083,-0.025l0.082,-0.025l0.082,-0.026l0.081,-0.027l0.081,-0.029l0.08,-0.029l0.08,-0.03l0.08,-0.031l0.079,-0.032l0.079,-0.033l0.078,-0.034l0.078,-0.034l0.077,-0.036l0.076,-0.037l0.077,-0.037l0.075,-0.039l0.075,-0.039l0.075,-0.04l0.074,-0.041l0.074,-0.042l0.073,-0.043l0.072,-0.043l0.072,-0.045l0.071,-0.045l0.071,-0.046l0.07,-0.047l0.07,-0.048l0.069,-0.049l0.068,-0.049l0.068,-0.05l0.067,-0.051l0.067,-0.052l0.066,-0.053l0.065,-0.053l0.064,-0.054l0.064,-0.055l0.064,-0.055l0.062,-0.057l0.062,-0.057l0.062,-0.057l0.06,-0.059l0.06,-0.059l0.059,-0.06l0.059,-0.06l0.057,-0.062l0.057,-0.062l0.057,-0.062l0.055,-0.064l0.055,-0.064l0.054,-0.064l0.053,-0.065l0.053,-0.066l0.052,-0.067l0.051,-0.067l0.05,-0.068l0.049,-0.068l0.049,-0.069l0.048,-0.07l0.047,-0.07l0.046,-0.071l0.045,-0.071l0.045,-0.072l0.043,-0.072l0.043,-0.073l0.042,-0.074l0.041,-0.074l0.04,-0.075l0.039,-0.075l0.039,-0.075l0.037,-0.077l0.037,-0.076l0.036,-0.077l0.034,-0.078l0.034,-0.078l0.033,-0.079l0.032,-0.079l0.031,-0.08l0.03,-0.08l0.029,-0.08l0.029,-0.081l0.027,-0.081l0.026,-0.082l0.025,-0.082l0.025,-0.083l0.023,-0.083l0.022,-0.083l0.021,-0.084l0.02,-0.084l0.02,-0.085l0.018,-0.085l0.017,-0.085l0.016,-0.086l0.015,-0.086l0.014,-0.086l0.013,-0.087l0.011,-0.087l0.011,-0.087l0.01,-0.088l0.008,-0.088l0.007,-0.088l0.007,-0.088l0.005,-0.089l0.004,-0.089l0.003,-0.09l0.001,-0.089l0.001,-0.09l-0.001,-0.09l-0.001,-0.089l-0.003,-0.09l-0.004,-0.089l-0.005,-0.089l-0.007,-0.088l-0.007,-0.088l-0.008,-0.088l-0.01,-0.088l-0.011,-0.087l-0.011,-0.087l-0.013,-0.087l-0.014,-0.086l-0.015,-0.086l-0.016,-0.086l-0.017,-0.085l-0.018,-0.085l-0.02,-0.085l-0.02,-0.084l-0.021,-0.084l-0.022,-0.083l-0.023,-0.083l-0.025,-0.083l-0.025,-0.082l-0.026,-0.082l-0.027,-0.081l-0.029,-0.081l-0.029,-0.08l-0.03,-0.08l-0.031,-0.08l-0.032,-0.079l-0.033,-0.079l-0.034,-0.078l-0.034,-0.078l-0.036,-0.077l-0.037,-0.076l-0.037,-0.077l-0.039,-0.075l-0.039,-0.075l-0.04,-0.075l-0.041,-0.074l-0.042,-0.074l-0.043,-0.073l-0.043,-0.072l-0.045,-0.072l-0.045,-0.071l-0.046,-0.071l-0.047,-0.07l-0.048,-0.07l-0.049,-0.069l-0.049,-0.068l-0.05,-0.068l-0.051,-0.067l-0.052,-0.067l-0.053,-0.066l-0.053,-0.065l-0.054,-0.064l-0.055,-0.064l-0.055,-0.064l-0.057,-0.062l-0.057,-0.062l-0.057,-0.062l-0.059,-0.06l-0.059,-0.06l-0.06,-0.059l-0.06,-0.059l-0.062,-0.057l-0.062,-0.057l-0.062,-0.057l-0.064,-0.055l-0.064,-0.055l-0.064,-0.054l-0.065,-0.053l-0.066,-0.053l-0.067,-0.052l-0.067,-0.051l-0.068,-0.05l-0.068,-0.049l-0.069,-0.049l-0.07,-0.048l-0.07,-0.047l-0.071,-0.046l-0.071,-0.045l-0.072,-0.045l-0.072,-0.043l-0.073,-0.043l-0.074,-0.042l-0.074,-0.041l-0.075,-0.04l-0.075,-0.039l-0.075,-0.039l-0.077,-0.037l-0.076,-0.037l-0.077,-0.036l-0.078,-0.034l-0.078,-0.034l-0.079,-0.033l-0.079,-0.032l-0.08,-0.031l-0.08,-0.03l-0.08,-0.029l-0.081,-0.029l-0.081,-0.027l-0.082,-0.026l-0.082,-0.025l-0.083,-0.025l-0.083,-0.023l-0.083,-0.022l-0.084,-0.021l-0.084,-0.02l-0.085,-0.02l-0.085,-0.018l-0.085,-0.017l-0.086,-0.016l-0.086,-0.015l-0.086,-0.014l-0.087,-0.013l-0.087,-0.011l-0.087,-0.011l-0.088,-0.01l-0.088,-0.008l-0.088,-0.007l-0.088,-0.007l-0.089,-0.005l-0.089,-0.004l-0.09,-0.003l-0.089,-0.001l-0.09,-0.001l-0.09,0.001Zm0.167,0.999l0.077,0.002l0.076,0.002l0.077,0.004l0.076,0.004l0.076,0.006l0.076,0.006l0.075,0.007l0.075,0.008l0.075,0.01l0.074,0.01l0.075,0.011l0.074,0.012l0.073,0.012l0.074,0.014l0.073,0.015l0.073,0.015l0.072,0.017l0.072,0.017l0.072,0.018l0.072,0.019l0.071,0.02l0.071,0.021l0.07,0.022l0.07,0.022l0.07,0.023l0.069,0.025l0.069,0.025l0.069,0.025l0.068,0.027l0.068,0.027l0.067,0.029l0.067,0.029l0.067,0.029l0.066,0.031l0.066,0.031l0.065,0.033l0.065,0.032l0.064,0.034l0.064,0.035l0.064,0.035l0.063,0.036l0.062,0.036l0.063,0.038l0.061,0.038l0.061,0.039l0.061,0.039l0.06,0.04l0.06,0.041l0.059,0.042l0.058,0.042l0.059,0.043l0.057,0.044l0.057,0.044l0.057,0.045l0.056,0.046l0.055,0.046l0.055,0.047l0.054,0.048l0.054,0.048l0.053,0.049l0.052,0.05l0.052,0.05l0.051,0.051l0.051,0.051l0.05,0.052l0.05,0.052l0.049,0.053l0.048,0.054l0.048,0.054l0.047,0.055l0.046,0.055l0.046,0.056l0.045,0.057l0.044,0.057l0.044,0.057l0.043,0.059l0.042,0.058l0.042,0.059l0.041,0.06l0.04,0.06l0.039,0.061l0.039,0.061l0.038,0.061l0.038,0.063l0.036,0.062l0.036,0.063l0.035,0.064l0.035,0.064l0.034,0.064l0.032,0.065l0.033,0.065l0.031,0.066l0.031,0.066l0.029,0.067l0.029,0.067l0.029,0.067l0.027,0.068l0.027,0.068l0.025,0.069l0.025,0.069l0.025,0.069l0.023,0.07l0.022,0.07l0.022,0.07l0.021,0.071l0.02,0.071l0.019,0.072l0.018,0.072l0.017,0.072l0.017,0.072l0.015,0.073l0.015,0.073l0.014,0.074l0.012,0.073l0.012,0.074l0.011,0.075l0.01,0.074l0.01,0.075l0.008,0.075l0.007,0.075l0.006,0.076l0.006,0.076l0.004,0.076l0.004,0.077l0.002,0.076l0.002,0.077l0,0.077l0,0.077l-0.002,0.077l-0.002,0.076l-0.004,0.077l-0.004,0.076l-0.006,0.076l-0.006,0.076l-0.007,0.075l-0.008,0.075l-0.01,0.075l-0.01,0.074l-0.011,0.075l-0.012,0.074l-0.012,0.073l-0.014,0.074l-0.015,0.073l-0.015,0.073l-0.017,0.072l-0.017,0.072l-0.018,0.072l-0.019,0.072l-0.02,0.071l-0.021,0.071l-0.022,0.07l-0.022,0.07l-0.023,0.07l-0.025,0.069l-0.025,0.069l-0.025,0.069l-0.027,0.068l-0.027,0.068l-0.029,0.067l-0.029,0.067l-0.029,0.067l-0.031,0.066l-0.031,0.066l-0.033,0.065l-0.032,0.065l-0.034,0.064l-0.035,0.064l-0.035,0.064l-0.036,0.063l-0.036,0.062l-0.038,0.063l-0.038,0.061l-0.039,0.061l-0.039,0.061l-0.04,0.06l-0.041,0.06l-0.042,0.059l-0.042,0.058l-0.043,0.059l-0.044,0.057l-0.044,0.057l-0.045,0.057l-0.046,0.056l-0.046,0.055l-0.047,0.055l-0.048,0.054l-0.048,0.054l-0.049,0.053l-0.05,0.052l-0.05,0.052l-0.051,0.052l-0.051,0.05l-0.052,0.05l-0.052,0.05l-0.053,0.049l-0.054,0.048l-0.054,0.048l-0.055,0.047l-0.055,0.046l-0.056,0.046l-0.057,0.045l-0.057,0.044l-0.057,0.044l-0.059,0.043l-0.058,0.042l-0.059,0.042l-0.06,0.041l-0.06,0.04l-0.061,0.039l-0.061,0.039l-0.061,0.038l-0.063,0.038l-0.062,0.036l-0.063,0.036l-0.064,0.035l-0.064,0.035l-0.064,0.034l-0.065,0.032l-0.065,0.033l-0.066,0.031l-0.066,0.031l-0.067,0.029l-0.067,0.029l-0.067,0.029l-0.068,0.027l-0.068,0.027l-0.069,0.025l-0.069,0.025l-0.069,0.025l-0.07,0.023l-0.07,0.022l-0.07,0.022l-0.071,0.021l-0.071,0.02l-0.072,0.019l-0.072,0.018l-0.072,0.017l-0.072,0.017l-0.073,0.015l-0.073,0.015l-0.074,0.014l-0.073,0.012l-0.074,0.012l-0.075,0.011l-0.074,0.01l-0.075,0.01l-0.075,0.008l-0.075,0.007l-0.076,0.006l-0.076,0.006l-0.076,0.004l-0.077,0.004l-0.076,0.002l-0.077,0.002l-0.077,0l-0.077,0l-0.077,-0.002l-0.076,-0.002l-0.077,-0.004l-0.076,-0.004l-0.076,-0.006l-0.076,-0.006l-0.075,-0.007l-0.075,-0.008l-0.075,-0.01l-0.074,-0.01l-0.075,-0.011l-0.074,-0.012l-0.073,-0.012l-0.074,-0.014l-0.073,-0.015l-0.073,-0.015l-0.072,-0.017l-0.072,-0.017l-0.072,-0.018l-0.072,-0.019l-0.071,-0.02l-0.071,-0.021l-0.07,-0.022l-0.07,-0.022l-0.07,-0.023l-0.069,-0.025l-0.069,-0.025l-0.069,-0.025l-0.068,-0.027l-0.068,-0.027l-0.067,-0.029l-0.067,-0.029l-0.067,-0.029l-0.066,-0.031l-0.066,-0.031l-0.065,-0.033l-0.065,-0.032l-0.064,-0.034l-0.064,-0.035l-0.064,-0.035l-0.063,-0.036l-0.062,-0.036l-0.063,-0.038l-0.061,-0.038l-0.061,-0.039l-0.061,-0.039l-0.06,-0.04l-0.06,-0.041l-0.059,-0.042l-0.058,-0.042l-0.059,-0.043l-0.057,-0.044l-0.057,-0.044l-0.057,-0.045l-0.056,-0.046l-0.055,-0.046l-0.055,-0.047l-0.054,-0.048l-0.054,-0.048l-0.053,-0.049l-0.052,-0.05l-0.052,-0.05l-0.052,-0.05l-0.05,-0.052l-0.05,-0.052l-0.05,-0.052l-0.049,-0.053l-0.048,-0.054l-0.048,-0.054l-0.047,-0.055l-0.046,-0.055l-0.046,-0.056l-0.045,-0.057l-0.044,-0.057l-0.044,-0.057l-0.043,-0.059l-0.042,-0.058l-0.042,-0.059l-0.041,-0.06l-0.04,-0.06l-0.039,-0.061l-0.039,-0.061l-0.038,-0.061l-0.038,-0.063l-0.036,-0.062l-0.036,-0.063l-0.035,-0.064l-0.035,-0.064l-0.034,-0.064l-0.032,-0.065l-0.033,-0.065l-0.031,-0.066l-0.031,-0.066l-0.029,-0.067l-0.029,-0.067l-0.029,-0.067l-0.027,-0.068l-0.027,-0.068l-0.025,-0.069l-0.025,-0.069l-0.025,-0.069l-0.023,-0.07l-0.022,-0.07l-0.022,-0.07l-0.021,-0.071l-0.02,-0.071l-0.019,-0.072l-0.018,-0.072l-0.017,-0.072l-0.017,-0.072l-0.015,-0.073l-0.015,-0.073l-0.014,-0.074l-0.012,-0.073l-0.012,-0.074l-0.011,-0.075l-0.01,-0.074l-0.01,-0.075l-0.008,-0.075l-0.007,-0.075l-0.006,-0.076l-0.006,-0.076l-0.004,-0.076l-0.004,-0.077l-0.002,-0.076l-0.002,-0.077l0,-0.077l0,-0.077l0.002,-0.077l0.002,-0.076l0.004,-0.077l0.004,-0.076l0.006,-0.076l0.006,-0.076l0.007,-0.075l0.008,-0.075l0.01,-0.075l0.01,-0.074l0.011,-0.075l0.012,-0.074l0.012,-0.073l0.014,-0.074l0.015,-0.073l0.015,-0.073l0.017,-0.072l0.017,-0.072l0.018,-0.072l0.019,-0.072l0.02,-0.071l0.021,-0.071l0.022,-0.07l0.022,-0.07l0.023,-0.07l0.025,-0.069l0.025,-0.069l0.025,-0.069l0.027,-0.068l0.027,-0.068l0.029,-0.067l0.029,-0.067l0.029,-0.067l0.031,-0.066l0.031,-0.066l0.033,-0.065l0.032,-0.065l0.034,-0.064l0.035,-0.064l0.035,-0.064l0.036,-0.063l0.036,-0.062l0.038,-0.063l0.038,-0.061l0.039,-0.061l0.039,-0.061l0.04,-0.06l0.041,-0.06l0.042,-0.059l0.042,-0.058l0.043,-0.059l0.044,-0.057l0.044,-0.057l0.045,-0.057l0.046,-0.056l0.046,-0.055l0.047,-0.055l0.048,-0.054l0.048,-0.054l0.049,-0.053l0.05,-0.052l0.05,-0.052l0.05,-0.051l0.052,-0.051l0.052,-0.05l0.052,-0.05l0.053,-0.049l0.054,-0.048l0.054,-0.048l0.055,-0.047l0.055,-0.046l0.056,-0.046l0.057,-0.045l0.057,-0.044l0.057,-0.044l0.059,-0.043l0.058,-0.042l0.059,-0.042l0.06,-0.041l0.06,-0.04l0.061,-0.039l0.061,-0.039l0.061,-0.038l0.063,-0.038l0.062,-0.036l0.063,-0.036l0.064,-0.035l0.064,-0.035l0.064,-0.034l0.065,-0.032l0.065,-0.033l0.066,-0.031l0.066,-0.031l0.067,-0.029l0.067,-0.029l0.067,-0.029l0.068,-0.027l0.068,-0.027l0.069,-0.025l0.069,-0.025l0.069,-0.025l0.07,-0.023l0.07,-0.022l0.07,-0.022l0.071,-0.021l0.071,-0.02l0.072,-0.019l0.072,-0.018l0.072,-0.017l0.072,-0.017l0.073,-0.015l0.073,-0.015l0.074,-0.014l0.073,-0.012l0.074,-0.012l0.075,-0.011l0.074,-0.01l0.075,-0.01l0.075,-0.008l0.075,-0.007l0.076,-0.006l0.076,-0.006l0.076,-0.004l0.077,-0.004l0.076,-0.002l0.077,-0.002l0.077,0l0.077,0Zm-0.142,0.9l-0.066,0.002l-0.065,0.002l-0.065,0.003l-0.064,0.003l-0.065,0.005l-0.064,0.005l-0.064,0.007l-0.064,0.006l-0.063,0.008l-0.063,0.009l-0.063,0.009l-0.063,0.01l-0.062,0.011l-0.063,0.012l-0.062,0.012l-0.061,0.013l-0.062,0.014l-0.061,0.015l-0.061,0.015l-0.061,0.016l-0.06,0.017l-0.06,0.018l-0.06,0.018l-0.059,0.019l-0.059,0.02l-0.059,0.021l-0.059,0.021l-0.058,0.022l-0.058,0.022l-0.057,0.024l-0.058,0.024l-0.057,0.024l-0.056,0.026l-0.056,0.026l-0.056,0.026l-0.056,0.028l-0.055,0.028l-0.055,0.028l-0.054,0.029l-0.054,0.03l-0.054,0.031l-0.053,0.031l-0.053,0.032l-0.052,0.032l-0.052,0.033l-0.052,0.034l-0.051,0.034l-0.051,0.035l-0.05,0.036l-0.05,0.036l-0.05,0.036l-0.049,0.038l-0.048,0.037l-0.048,0.039l-0.048,0.039l-0.047,0.039l-0.047,0.04l-0.046,0.041l-0.046,0.041l-0.045,0.042l-0.045,0.042l-0.044,0.043l-0.044,0.043l-0.043,0.044l-0.043,0.044l-0.042,0.045l-0.042,0.045l-0.041,0.046l-0.041,0.046l-0.04,0.047l-0.039,0.047l-0.039,0.048l-0.039,0.048l-0.037,0.048l-0.038,0.049l-0.036,0.05l-0.036,0.05l-0.036,0.05l-0.035,0.051l-0.034,0.051l-0.034,0.052l-0.033,0.052l-0.032,0.052l-0.032,0.053l-0.031,0.053l-0.031,0.054l-0.03,0.054l-0.029,0.054l-0.028,0.055l-0.028,0.055l-0.028,0.056l-0.026,0.056l-0.026,0.056l-0.026,0.056l-0.024,0.057l-0.024,0.058l-0.024,0.057l-0.022,0.058l-0.022,0.058l-0.021,0.059l-0.021,0.059l-0.02,0.059l-0.019,0.059l-0.018,0.06l-0.018,0.06l-0.017,0.06l-0.016,0.061l-0.015,0.061l-0.015,0.061l-0.014,0.062l-0.013,0.061l-0.012,0.062l-0.012,0.063l-0.011,0.062l-0.01,0.063l-0.009,0.063l-0.009,0.063l-0.008,0.063l-0.006,0.064l-0.007,0.064l-0.005,0.064l-0.005,0.065l-0.003,0.064l-0.003,0.065l-0.002,0.065l-0.002,0.066l0,0.065l0,0.065l0.002,0.066l0.002,0.065l0.003,0.065l0.003,0.064l0.005,0.065l0.005,0.064l0.007,0.064l0.006,0.064l0.008,0.063l0.009,0.063l0.009,0.063l0.01,0.063l0.011,0.062l0.012,0.063l0.012,0.062l0.013,0.061l0.014,0.062l0.015,0.061l0.015,0.061l0.016,0.061l0.017,0.06l0.018,0.06l0.018,0.06l0.019,0.059l0.02,0.059l0.021,0.059l0.021,0.059l0.022,0.058l0.022,0.058l0.024,0.057l0.024,0.058l0.024,0.057l0.026,0.056l0.026,0.056l0.026,0.056l0.028,0.056l0.028,0.055l0.028,0.055l0.029,0.054l0.03,0.054l0.031,0.054l0.031,0.053l0.032,0.053l0.032,0.052l0.033,0.052l0.034,0.052l0.034,0.051l0.035,0.051l0.036,0.05l0.036,0.05l0.036,0.05l0.038,0.049l0.037,0.048l0.039,0.048l0.039,0.048l0.039,0.047l0.04,0.047l0.041,0.046l0.041,0.046l0.042,0.045l0.042,0.045l0.043,0.044l0.043,0.044l0.044,0.043l0.044,0.043l0.045,0.042l0.045,0.042l0.046,0.041l0.046,0.041l0.047,0.04l0.047,0.039l0.048,0.039l0.048,0.039l0.048,0.037l0.049,0.038l0.05,0.036l0.05,0.036l0.05,0.036l0.051,0.035l0.051,0.034l0.052,0.034l0.052,0.033l0.052,0.032l0.053,0.032l0.053,0.031l0.054,0.031l0.054,0.03l0.054,0.029l0.055,0.028l0.055,0.028l0.056,0.028l0.056,0.026l0.056,0.026l0.056,0.026l0.057,0.024l0.058,0.024l0.057,0.024l0.058,0.022l0.058,0.022l0.059,0.021l0.059,0.021l0.059,0.02l0.059,0.019l0.06,0.018l0.06,0.018l0.06,0.017l0.061,0.016l0.061,0.015l0.061,0.015l0.062,0.014l0.061,0.013l0.062,0.012l0.063,0.012l0.062,0.011l0.063,0.01l0.063,0.009l0.063,0.009l0.063,0.008l0.064,0.006l0.064,0.007l0.064,0.005l0.065,0.005l0.064,0.003l0.065,0.003l0.065,0.002l0.066,0.002l0.065,0l0.065,0l0.066,-0.002l0.065,-0.002l0.065,-0.003l0.064,-0.003l0.065,-0.005l0.064,-0.005l0.064,-0.007l0.064,-0.006l0.063,-0.008l0.063,-0.009l0.063,-0.009l0.063,-0.01l0.062,-0.011l0.063,-0.012l0.062,-0.012l0.061,-0.013l0.062,-0.014l0.061,-0.015l0.061,-0.015l0.061,-0.016l0.06,-0.017l0.06,-0.018l0.06,-0.018l0.059,-0.019l0.059,-0.02l0.059,-0.021l0.059,-0.021l0.058,-0.022l0.058,-0.022l0.057,-0.024l0.058,-0.024l0.057,-0.024l0.056,-0.026l0.056,-0.026l0.056,-0.026l0.056,-0.028l0.055,-0.028l0.055,-0.028l0.054,-0.029l0.054,-0.03l0.054,-0.031l0.053,-0.031l0.053,-0.032l0.052,-0.032l0.052,-0.033l0.052,-0.034l0.051,-0.034l0.051,-0.035l0.05,-0.036l0.05,-0.036l0.05,-0.036l0.049,-0.038l0.048,-0.037l0.048,-0.039l0.048,-0.039l0.047,-0.039l0.047,-0.04l0.046,-0.041l0.046,-0.041l0.045,-0.042l0.045,-0.042l0.044,-0.043l0.044,-0.043l0.043,-0.044l0.043,-0.044l0.042,-0.045l0.042,-0.045l0.041,-0.046l0.041,-0.046l0.04,-0.047l0.039,-0.047l0.039,-0.048l0.039,-0.048l0.037,-0.048l0.038,-0.049l0.036,-0.05l0.036,-0.05l0.036,-0.05l0.035,-0.051l0.034,-0.051l0.034,-0.052l0.033,-0.052l0.032,-0.052l0.032,-0.053l0.031,-0.053l0.031,-0.054l0.03,-0.054l0.029,-0.054l0.028,-0.055l0.028,-0.055l0.028,-0.056l0.026,-0.056l0.026,-0.056l0.026,-0.056l0.024,-0.057l0.024,-0.058l0.024,-0.057l0.022,-0.058l0.022,-0.058l0.021,-0.059l0.021,-0.059l0.02,-0.059l0.019,-0.059l0.018,-0.06l0.018,-0.06l0.017,-0.06l0.016,-0.061l0.015,-0.061l0.015,-0.061l0.014,-0.062l0.013,-0.061l0.012,-0.062l0.012,-0.063l0.011,-0.062l0.01,-0.063l0.009,-0.063l0.009,-0.063l0.008,-0.063l0.006,-0.064l0.007,-0.064l0.005,-0.064l0.005,-0.065l0.003,-0.064l0.003,-0.065l0.002,-0.065l0.002,-0.066l0,-0.065l0,-0.065l-0.002,-0.066l-0.002,-0.065l-0.003,-0.065l-0.003,-0.064l-0.005,-0.065l-0.005,-0.064l-0.007,-0.064l-0.006,-0.064l-0.008,-0.063l-0.009,-0.063l-0.009,-0.063l-0.01,-0.063l-0.011,-0.062l-0.012,-0.063l-0.012,-0.062l-0.013,-0.061l-0.014,-0.062l-0.015,-0.061l-0.015,-0.061l-0.016,-0.061l-0.017,-0.06l-0.018,-0.06l-0.018,-0.06l-0.019,-0.059l-0.02,-0.059l-0.021,-0.059l-0.021,-0.059l-0.022,-0.058l-0.022,-0.058l-0.024,-0.057l-0.024,-0.058l-0.024,-0.057l-0.026,-0.056l-0.026,-0.056l-0.026,-0.056l-0.028,-0.056l-0.028,-0.055l-0.028,-0.055l-0.029,-0.054l-0.03,-0.054l-0.031,-0.054l-0.031,-0.053l-0.032,-0.053l-0.032,-0.052l-0.033,-0.052l-0.034,-0.052l-0.034,-0.051l-0.035,-0.051l-0.036,-0.05l-0.036,-0.05l-0.036,-0.05l-0.038,-0.049l-0.037,-0.048l-0.039,-0.048l-0.039,-0.048l-0.039,-0.047l-0.04,-0.047l-0.041,-0.046l-0.041,-0.046l-0.042,-0.045l-0.042,-0.045l-0.043,-0.044l-0.043,-0.044l-0.044,-0.043l-0.044,-0.043l-0.045,-0.042l-0.045,-0.042l-0.046,-0.041l-0.046,-0.041l-0.047,-0.04l-0.047,-0.039l-0.048,-0.039l-0.048,-0.039l-0.048,-0.037l-0.049,-0.038l-0.05,-0.036l-0.05,-0.036l-0.05,-0.036l-0.051,-0.035l-0.051,-0.034l-0.052,-0.034l-0.052,-0.033l-0.052,-0.032l-0.053,-0.032l-0.053,-0.031l-0.054,-0.031l-0.054,-0.03l-0.054,-0.029l-0.055,-0.028l-0.055,-0.028l-0.056,-0.028l-0.056,-0.026l-0.056,-0.026l-0.056,-0.026l-0.057,-0.024l-0.058,-0.024l-0.057,-0.024l-0.058,-0.022l-0.058,-0.022l-0.059,-0.021l-0.059,-0.021l-0.059,-0.02l-0.059,-0.019l-0.06,-0.018l-0.06,-0.018l-0.06,-0.017l-0.061,-0.016l-0.061,-0.015l-0.061,-0.015l-0.062,-0.014l-0.061,-0.013l-0.062,-0.012l-0.063,-0.012l-0.062,-0.011l-0.063,-0.01l-0.063,-0.009l-0.063,-0.009l-0.063,-0.008l-0.064,-0.006l-0.064,-0.007l-0.064,-0.005l-0.065,-0.005l-0.064,-0.003l-0.065,-0.003l-0.065,-0.002l-0.066,-0.002l-0.065,0l-0.065,0Zm0.162,0.202l0.097,0.008l0.095,0.012l0.094,0.017l0.092,0.021l0.09,0.026l0.089,0.03l0.086,0.035l0.085,0.038l0.081,0.042l0.08,0.046l0.077,0.049l0.074,0.053l0.071,0.057l0.069,0.059l0.065,0.063l0.063,0.065l0.059,0.069l0.057,0.071l0.053,0.074l0.049,0.077l0.046,0.08l0.042,0.081l0.038,0.085l0.035,0.086l0.03,0.089l0.026,0.09l0.021,0.092l0.017,0.094l0.012,0.095l0.008,0.097l0.002,0.097l-0.002,0.097l-0.008,0.097l-0.012,0.095l-0.017,0.094l-0.021,0.092l-0.026,0.09l-0.03,0.089l-0.035,0.086l-0.038,0.085l-0.042,0.081l-0.046,0.08l-0.049,0.077l-0.053,0.074l-0.057,0.071l-0.059,0.069l-0.063,0.065l-0.065,0.063l-0.069,0.059l-0.045,0.036l0.045,0.036l0.069,0.059l0.065,0.063l0.063,0.065l0.059,0.069l0.057,0.071l0.053,0.074l0.049,0.077l0.046,0.08l0.042,0.081l0.038,0.085l0.035,0.086l0.03,0.089l0.026,0.09l0.021,0.092l0.017,0.094l0.012,0.095l0.008,0.097l0.002,0.085l0,3.024l-0.002,0.085l-0.008,0.097l-0.012,0.095l-0.017,0.094l-0.021,0.092l-0.026,0.09l-0.03,0.089l-0.035,0.086l-0.038,0.085l-0.042,0.081l-0.046,0.08l-0.049,0.077l-0.053,0.074l-0.056,0.071l-0.06,0.069l-0.063,0.065l-0.065,0.063l-0.069,0.059l-0.071,0.057l-0.074,0.053l-0.077,0.049l-0.08,0.046l-0.081,0.042l-0.085,0.038l-0.086,0.035l-0.089,0.03l-0.09,0.026l-0.092,0.021l-0.094,0.017l-0.095,0.012l-0.097,0.008l-0.097,0.002l-0.097,-0.002l-0.097,-0.008l-0.095,-0.012l-0.094,-0.017l-0.092,-0.021l-0.09,-0.026l-0.089,-0.03l-0.086,-0.035l-0.085,-0.038l-0.081,-0.042l-0.08,-0.046l-0.077,-0.049l-0.074,-0.053l-0.071,-0.057l-0.069,-0.059l-0.065,-0.063l-0.063,-0.065l-0.06,-0.069l-0.056,-0.071l-0.053,-0.074l-0.049,-0.077l-0.046,-0.08l-0.042,-0.081l-0.038,-0.085l-0.035,-0.086l-0.03,-0.089l-0.026,-0.09l-0.021,-0.092l-0.017,-0.094l-0.012,-0.095l-0.008,-0.097l-0.002,-0.085l0,-3.024l0.002,-0.085l0.008,-0.097l0.012,-0.095l0.017,-0.094l0.021,-0.092l0.026,-0.09l0.03,-0.089l0.035,-0.086l0.038,-0.085l0.042,-0.081l0.046,-0.08l0.049,-0.077l0.053,-0.074l0.057,-0.071l0.059,-0.069l0.063,-0.065l0.065,-0.063l0.069,-0.059l0.045,-0.036l-0.045,-0.036l-0.069,-0.059l-0.065,-0.063l-0.063,-0.065l-0.059,-0.069l-0.057,-0.071l-0.053,-0.074l-0.049,-0.077l-0.046,-0.08l-0.042,-0.081l-0.038,-0.085l-0.035,-0.086l-0.03,-0.089l-0.026,-0.09l-0.021,-0.092l-0.017,-0.094l-0.012,-0.095l-0.008,-0.097l-0.002,-0.097l0.002,-0.097l0.008,-0.097l0.012,-0.095l0.017,-0.094l0.021,-0.092l0.026,-0.09l0.03,-0.089l0.035,-0.086l0.038,-0.085l0.042,-0.081l0.046,-0.08l0.049,-0.077l0.053,-0.074l0.057,-0.071l0.059,-0.069l0.063,-0.065l0.065,-0.063l0.069,-0.059l0.071,-0.057l0.074,-0.053l0.077,-0.049l0.08,-0.046l0.081,-0.042l0.085,-0.038l0.086,-0.035l0.089,-0.03l0.09,-0.026l0.092,-0.021l0.094,-0.017l0.095,-0.012l0.097,-0.008l0.097,-0.002l0.097,0.002Zm-0.148,3.899l-0.051,0.004l-0.05,0.007l-0.049,0.008l-0.048,0.012l-0.047,0.013l-0.047,0.016l-0.045,0.018l-0.044,0.02l-0.043,0.022l-0.042,0.025l-0.041,0.026l-0.039,0.028l-0.038,0.029l-0.036,0.032l-0.035,0.033l-0.033,0.035l-0.032,0.036l-0.029,0.038l-0.028,0.039l-0.026,0.041l-0.025,0.042l-0.022,0.043l-0.02,0.044l-0.018,0.045l-0.016,0.047l-0.013,0.047l-0.012,0.048l-0.008,0.049l-0.007,0.05l-0.004,0.051l-0.001,0.051l0,3l0.001,0.051l0.004,0.051l0.007,0.05l0.008,0.049l0.012,0.048l0.013,0.047l0.016,0.047l0.018,0.045l0.02,0.044l0.022,0.043l0.025,0.042l0.026,0.041l0.028,0.039l0.029,0.038l0.032,0.036l0.033,0.035l0.035,0.033l0.036,0.032l0.038,0.029l0.039,0.028l0.041,0.026l0.042,0.025l0.043,0.022l0.044,0.02l0.045,0.018l0.047,0.016l0.047,0.013l0.048,0.012l0.049,0.008l0.05,0.007l0.051,0.004l0.051,0.001l0.051,-0.001l0.051,-0.004l0.05,-0.007l0.049,-0.008l0.048,-0.012l0.047,-0.013l0.047,-0.016l0.045,-0.018l0.044,-0.02l0.043,-0.022l0.042,-0.025l0.041,-0.026l0.039,-0.028l0.038,-0.029l0.036,-0.032l0.035,-0.033l0.033,-0.035l0.032,-0.036l0.029,-0.038l0.028,-0.039l0.026,-0.041l0.025,-0.042l0.022,-0.043l0.02,-0.044l0.018,-0.045l0.016,-0.047l0.013,-0.047l0.012,-0.048l0.008,-0.049l0.007,-0.05l0.004,-0.051l0.001,-0.051l0,-3l-0.001,-0.051l-0.004,-0.051l-0.007,-0.05l-0.008,-0.049l-0.012,-0.048l-0.013,-0.047l-0.016,-0.047l-0.018,-0.045l-0.02,-0.044l-0.022,-0.043l-0.025,-0.042l-0.026,-0.041l-0.028,-0.039l-0.029,-0.038l-0.032,-0.036l-0.033,-0.035l-0.035,-0.033l-0.036,-0.032l-0.038,-0.029l-0.039,-0.028l-0.041,-0.026l-0.042,-0.025l-0.043,-0.022l-0.044,-0.02l-0.045,-0.018l-0.047,-0.016l-0.047,-0.013l-0.048,-0.012l-0.049,-0.008l-0.05,-0.007l-0.051,-0.004l-0.051,-0.001l-0.051,0.001Zm0,-3l-0.051,0.004l-0.05,0.007l-0.049,0.008l-0.048,0.012l-0.047,0.013l-0.047,0.016l-0.045,0.018l-0.044,0.02l-0.043,0.022l-0.042,0.025l-0.041,0.026l-0.039,0.028l-0.038,0.029l-0.036,0.032l-0.035,0.033l-0.033,0.035l-0.032,0.036l-0.029,0.038l-0.028,0.039l-0.026,0.041l-0.025,0.042l-0.022,0.043l-0.02,0.044l-0.018,0.045l-0.016,0.047l-0.013,0.047l-0.012,0.048l-0.008,0.049l-0.007,0.05l-0.004,0.051l-0.001,0.051l0.001,0.051l0.004,0.051l0.007,0.05l0.008,0.049l0.012,0.048l0.013,0.047l0.016,0.047l0.018,0.045l0.02,0.044l0.022,0.043l0.025,0.042l0.026,0.041l0.028,0.039l0.029,0.038l0.032,0.036l0.033,0.035l0.035,0.033l0.036,0.032l0.038,0.029l0.039,0.028l0.041,0.026l0.042,0.025l0.043,0.022l0.044,0.02l0.045,0.018l0.047,0.016l0.047,0.013l0.048,0.012l0.049,0.008l0.05,0.007l0.051,0.004l0.051,0.001l0.051,-0.001l0.051,-0.004l0.05,-0.007l0.049,-0.008l0.048,-0.012l0.047,-0.013l0.047,-0.016l0.045,-0.018l0.044,-0.02l0.043,-0.022l0.042,-0.025l0.041,-0.026l0.039,-0.028l0.038,-0.029l0.036,-0.032l0.035,-0.033l0.033,-0.035l0.032,-0.036l0.029,-0.038l0.028,-0.039l0.026,-0.041l0.025,-0.042l0.022,-0.043l0.02,-0.044l0.018,-0.045l0.016,-0.047l0.013,-0.047l0.012,-0.048l0.008,-0.049l0.007,-0.05l0.004,-0.051l0.001,-0.051l-0.001,-0.051l-0.004,-0.051l-0.007,-0.05l-0.008,-0.049l-0.012,-0.048l-0.013,-0.047l-0.016,-0.047l-0.018,-0.045l-0.02,-0.044l-0.022,-0.043l-0.025,-0.042l-0.026,-0.041l-0.028,-0.039l-0.029,-0.038l-0.032,-0.036l-0.033,-0.035l-0.035,-0.033l-0.036,-0.032l-0.038,-0.029l-0.039,-0.028l-0.041,-0.026l-0.042,-0.025l-0.043,-0.022l-0.044,-0.02l-0.045,-0.018l-0.047,-0.016l-0.047,-0.013l-0.048,-0.012l-0.049,-0.008l-0.05,-0.007l-0.051,-0.004l-0.051,-0.001l-0.051,0.001Z" style="fill:#e0e0e0;"/></g></svg>