<?xml version="1.0" encoding="UTF-8" standalone="no"?><!DOCTYPE svg PUBLIC "-//W3C//DTD SVG 1.1//EN" "http://www.w3.org/Graphics/SVG/1.1/DTD/svg11.dtd"><svg width="100%" height="100%" viewBox="0 0 16 16" version="1.1" xmlns="http://www.w3.org/2000/svg" xmlns:xlink="http://www.w3.org/1999/xlink" xml:space="preserve" xmlns:serif="http://www.serif.com/" style="fill-rule:evenodd;clip-rule:evenodd;stroke-linejoin:round;stroke-miterlimit:1.41421;"><path d="M12.5,6.984l-0.484,0l-8.016,8.016l8.5,0c0.823,0 1.5,-0.677 1.5,-1.5l0,-5.016c0,-0.823 -0.677,-1.5 -1.5,-1.5Zm-6.5,0l0,-1.984c0,-1.097 0.903,-2 2,-2c1.097,0 2,0.903 2,2l0,1l1.892,-1.892c-0.426,-1.798 -2.045,-3.077 -3.892,-3.077c-2.183,0 -3.983,1.786 -4,3.969l0,1.984l-0.5,0c-0.823,0 -1.5,0.677 -1.5,1.5l0,5.016c0.002,0.146 0.026,0.291 0.07,0.43l6.946,-6.946l-3.016,0Z" style="fill:#787878;fill-rule:nonzero;"/><path d="M2,15c-0.549,0 -1,-0.451 -1,-1c0,-0.265 0.106,-0.52 0.293,-0.707l12,-12c0.186,-0.18 0.436,-0.281 0.695,-0.281c0.548,0 1,0.452 1,1c0,0.259 -0.101,0.509 -0.281,0.695l-12,12c-0.187,0.187 -0.442,0.293 -0.707,0.293Z" style="fill:#ff0039;fill-rule:nonzero;"/></svg>