<?xml version="1.0" encoding="UTF-8" standalone="no"?><!DOCTYPE svg PUBLIC "-//W3C//DTD SVG 1.1//EN" "http://www.w3.org/Graphics/SVG/1.1/DTD/svg11.dtd"><svg width="100%" height="100%" viewBox="0 0 16 16" version="1.1" xmlns="http://www.w3.org/2000/svg" xmlns:xlink="http://www.w3.org/1999/xlink" xml:space="preserve" xmlns:serif="http://www.serif.com/" style="fill-rule:evenodd;clip-rule:evenodd;stroke-linejoin:round;stroke-miterlimit:1.41421;"><g><path d="M12.5,6.984l-0.484,0l-8.016,8.016l8.5,0c0.823,0 1.5,-0.677 1.5,-1.5l0,-5.016c0,-0.823 -0.677,-1.5 -1.5,-1.5Zm-6.5,0l0,-1.984c0,-1.097 0.903,-2 2,-2c1.097,0 2,0.903 2,2l0,1l1.892,-1.892c-0.426,-1.798 -2.045,-3.077 -3.892,-3.077c-2.183,0 -3.983,1.786 -4,3.969l0,1.984l-0.5,0c-0.823,0 -1.5,0.677 -1.5,1.5l0,5.016c0.002,0.146 0.026,0.291 0.07,0.43l6.946,-6.946l-3.016,0Z" style="fill:#666;fill-rule:nonzero;"/><path d="M12.562,6.085l0.061,0.002l0.061,0.004l0.061,0.005l0.06,0.007l0.06,0.009l0.059,0.01l0.059,0.011l0.058,0.013l0.058,0.014l0.058,0.016l0.056,0.017l0.057,0.019l0.055,0.019l0.055,0.021l0.054,0.023l0.054,0.023l0.053,0.025l0.052,0.026l0.051,0.027l0.05,0.029l0.05,0.029l0.049,0.031l0.048,0.032l0.048,0.032l0.046,0.034l0.046,0.035l0.044,0.037l0.044,0.037l0.043,0.038l0.042,0.039l0.041,0.04l0.04,0.041l0.039,0.042l0.038,0.043l0.037,0.044l0.037,0.044l0.035,0.046l0.034,0.046l0.032,0.048l0.032,0.048l0.031,0.049l0.029,0.05l0.029,0.05l0.027,0.051l0.026,0.052l0.025,0.053l0.023,0.054l0.023,0.054l0.021,0.055l0.019,0.055l0.019,0.057l0.017,0.056l0.016,0.058l0.014,0.058l0.013,0.058l0.011,0.059l0.01,0.059l0.009,0.06l0.007,0.06l0.005,0.061l0.004,0.061l0.002,0.061l0.001,0.056l0,5.028l-0.001,0.056l-0.002,0.061l-0.004,0.061l-0.005,0.061l-0.007,0.06l-0.009,0.06l-0.01,0.059l-0.011,0.059l-0.013,0.058l-0.014,0.058l-0.016,0.058l-0.017,0.056l-0.019,0.057l-0.019,0.055l-0.021,0.055l-0.023,0.054l-0.023,0.054l-0.025,0.053l-0.026,0.052l-0.027,0.051l-0.029,0.05l-0.029,0.05l-0.031,0.049l-0.032,0.048l-0.032,0.048l-0.034,0.046l-0.035,0.046l-0.037,0.044l-0.037,0.044l-0.038,0.043l-0.039,0.042l-0.04,0.041l-0.041,0.04l-0.042,0.039l-0.043,0.038l-0.044,0.037l-0.044,0.036l-0.046,0.036l-0.046,0.034l-0.048,0.032l-0.048,0.032l-0.049,0.031l-0.05,0.029l-0.05,0.029l-0.051,0.027l-0.052,0.026l-0.053,0.025l-0.054,0.023l-0.054,0.023l-0.055,0.021l-0.055,0.019l-0.057,0.019l-0.056,0.017l-0.058,0.016l-0.058,0.014l-0.058,0.013l-0.059,0.011l-0.059,0.01l-0.06,0.009l-0.06,0.007l-0.061,0.005l-0.061,0.004l-0.061,0.002l-0.056,0.001l-8.506,0l-0.071,-0.003l-0.07,-0.008l-0.069,-0.014l-0.068,-0.019l-0.066,-0.025l-0.065,-0.029l-0.061,-0.035l-0.059,-0.039l-0.056,-0.044l-0.051,-0.048l-0.048,-0.051l-0.044,-0.056l-0.039,-0.059l-0.035,-0.061l-0.029,-0.065l-0.025,-0.066l-0.019,-0.068l-0.014,-0.069l-0.008,-0.07l-0.003,-0.071l0.003,-0.071l0.008,-0.07l0.014,-0.069l0.019,-0.068l0.025,-0.066l0.029,-0.065l0.035,-0.061l0.039,-0.059l0.044,-0.056l0.048,-0.051l8.016,-8.016l0.051,-0.048l0.056,-0.044l0.059,-0.039l0.061,-0.035l0.065,-0.029l0.066,-0.025l0.068,-0.019l0.069,-0.014l0.07,-0.008l0.071,-0.003l0.49,0l0.056,0.001Zm-0.546,0.899l-8.016,8.016l8.5,0l0.038,0l0.039,-0.002l0.038,-0.002l0.037,-0.004l0.038,-0.004l0.037,-0.005l0.037,-0.007l0.037,-0.007l0.036,-0.008l0.036,-0.009l0.036,-0.009l0.035,-0.011l0.035,-0.011l0.035,-0.013l0.034,-0.013l0.034,-0.014l0.033,-0.014l0.033,-0.016l0.032,-0.016l0.033,-0.017l0.031,-0.018l0.031,-0.018l0.031,-0.02l0.03,-0.02l0.03,-0.02l0.029,-0.022l0.029,-0.022l0.028,-0.022l0.027,-0.024l0.027,-0.024l0.027,-0.024l0.026,-0.025l0.025,-0.026l0.024,-0.027l0.024,-0.027l0.024,-0.027l0.022,-0.028l0.022,-0.029l0.022,-0.029l0.02,-0.03l0.02,-0.03l0.02,-0.031l0.018,-0.031l0.018,-0.031l0.017,-0.033l0.016,-0.032l0.016,-0.033l0.014,-0.033l0.014,-0.034l0.013,-0.034l0.013,-0.035l0.011,-0.035l0.011,-0.035l0.009,-0.036l0.009,-0.036l0.008,-0.036l0.007,-0.037l0.007,-0.037l0.005,-0.037l0.004,-0.038l0.004,-0.037l0.002,-0.038l0.002,-0.039l0,-0.038l0,-5.016l0,-0.038l-0.002,-0.039l-0.002,-0.038l-0.004,-0.037l-0.004,-0.038l-0.005,-0.037l-0.007,-0.037l-0.007,-0.037l-0.008,-0.036l-0.009,-0.036l-0.009,-0.036l-0.011,-0.035l-0.011,-0.035l-0.013,-0.035l-0.013,-0.034l-0.014,-0.034l-0.014,-0.033l-0.016,-0.033l-0.016,-0.032l-0.017,-0.033l-0.018,-0.031l-0.018,-0.031l-0.02,-0.031l-0.02,-0.03l-0.02,-0.03l-0.022,-0.029l-0.022,-0.029l-0.022,-0.028l-0.024,-0.027l-0.024,-0.027l-0.024,-0.027l-0.025,-0.026l-0.026,-0.025l-0.027,-0.024l-0.027,-0.024l-0.027,-0.024l-0.028,-0.022l-0.029,-0.022l-0.029,-0.022l-0.03,-0.02l-0.03,-0.02l-0.031,-0.02l-0.031,-0.018l-0.031,-0.018l-0.033,-0.017l-0.032,-0.016l-0.033,-0.016l-0.033,-0.014l-0.034,-0.014l-0.034,-0.013l-0.035,-0.013l-0.035,-0.011l-0.035,-0.011l-0.036,-0.009l-0.036,-0.009l-0.036,-0.008l-0.037,-0.007l-0.037,-0.007l-0.037,-0.005l-0.038,-0.004l-0.037,-0.004l-0.038,-0.002l-0.039,-0.002l-0.038,0l-0.484,0Zm-3.91,-6.852l0.105,0.004l0.105,0.005l0.105,0.008l0.104,0.01l0.104,0.013l0.102,0.014l0.103,0.017l0.102,0.018l0.101,0.021l0.1,0.023l0.1,0.025l0.099,0.027l0.098,0.029l0.097,0.031l0.097,0.033l0.095,0.035l0.095,0.037l0.094,0.039l0.093,0.041l0.092,0.042l0.091,0.045l0.09,0.046l0.089,0.048l0.087,0.05l0.087,0.051l0.086,0.054l0.084,0.055l0.083,0.056l0.083,0.059l0.08,0.06l0.08,0.061l0.078,0.063l0.077,0.065l0.076,0.067l0.074,0.068l0.073,0.069l0.072,0.071l0.07,0.072l0.069,0.074l0.067,0.076l0.066,0.077l0.064,0.078l0.063,0.08l0.061,0.081l0.059,0.082l0.058,0.084l0.056,0.085l0.055,0.086l0.052,0.088l0.051,0.088l0.049,0.09l0.048,0.092l0.045,0.092l0.044,0.094l0.042,0.094l0.039,0.096l0.038,0.097l0.036,0.098l0.034,0.099l0.032,0.1l0.03,0.101l0.027,0.102l0.023,0.093l0.014,0.065l0.009,0.065l0.004,0.066l-0.001,0.066l-0.006,0.066l-0.01,0.066l-0.016,0.064l-0.02,0.063l-0.024,0.061l-0.03,0.06l-0.033,0.057l-0.037,0.054l-0.042,0.052l-0.045,0.048l-1.892,1.892l-0.051,0.048l-0.056,0.044l-0.059,0.039l-0.061,0.035l-0.065,0.029l-0.066,0.025l-0.068,0.019l-0.069,0.014l-0.07,0.008l-0.071,0.003l-0.071,-0.003l-0.018,-0.002l0.002,0.018l0.003,0.071l-0.003,0.071l-0.008,0.07l-0.014,0.069l-0.019,0.068l-0.025,0.066l-0.029,0.065l-0.035,0.061l-0.039,0.059l-0.044,0.056l-0.048,0.051l-6.946,6.946l-0.05,0.047l-0.054,0.043l-0.057,0.039l-0.06,0.034l-0.062,0.029l-0.065,0.025l-0.066,0.019l-0.067,0.015l-0.069,0.009l-0.068,0.004l-0.069,-0.001l-0.069,-0.007l-0.068,-0.012l-0.066,-0.017l-0.066,-0.022l-0.063,-0.027l-0.061,-0.031l-0.059,-0.037l-0.056,-0.04l-0.052,-0.045l-0.049,-0.049l-0.045,-0.052l-0.04,-0.056l-0.037,-0.058l-0.032,-0.061l-0.027,-0.064l-0.022,-0.065l-0.02,-0.068l-0.022,-0.084l-0.018,-0.085l-0.016,-0.086l-0.013,-0.087l-0.009,-0.087l-0.006,-0.088l-0.003,-0.086l0,-5.037l0.001,-0.056l0.002,-0.061l0.004,-0.061l0.005,-0.061l0.007,-0.06l0.009,-0.06l0.01,-0.059l0.011,-0.059l0.013,-0.058l0.014,-0.058l0.016,-0.058l0.017,-0.056l0.019,-0.057l0.019,-0.055l0.021,-0.055l0.023,-0.054l0.023,-0.054l0.025,-0.053l0.026,-0.052l0.027,-0.051l0.029,-0.05l0.029,-0.05l0.031,-0.049l0.032,-0.048l0.032,-0.048l0.034,-0.046l0.035,-0.046l0.037,-0.044l0.037,-0.044l0.038,-0.043l0.039,-0.042l0.04,-0.041l0.041,-0.04l0.042,-0.039l0.043,-0.038l0.044,-0.037l0.044,-0.037l0.046,-0.035l0.046,-0.034l0.048,-0.032l0.048,-0.032l0.049,-0.031l0.05,-0.029l0.05,-0.029l0.051,-0.027l0.052,-0.026l0.053,-0.025l0.054,-0.023l0.054,-0.023l0.055,-0.021l0.055,-0.019l0.057,-0.019l0.056,-0.017l0.058,-0.016l0.058,-0.014l0.058,-0.013l0.059,-0.011l0.024,-0.004l0,-1.127l0.003,-0.123l0.005,-0.124l0.009,-0.124l0.012,-0.123l0.015,-0.122l0.018,-0.121l0.021,-0.12l0.024,-0.119l0.027,-0.119l0.03,-0.117l0.032,-0.116l0.035,-0.115l0.038,-0.113l0.041,-0.113l0.043,-0.111l0.046,-0.109l0.049,-0.109l0.051,-0.107l0.053,-0.105l0.056,-0.104l0.058,-0.103l0.061,-0.101l0.063,-0.099l0.065,-0.098l0.067,-0.096l0.07,-0.094l0.072,-0.093l0.074,-0.09l0.076,-0.089l0.078,-0.087l0.08,-0.086l0.082,-0.083l0.084,-0.081l0.086,-0.08l0.087,-0.077l0.09,-0.075l0.091,-0.074l0.093,-0.071l0.095,-0.069l0.097,-0.066l0.098,-0.065l0.1,-0.062l0.101,-0.06l0.103,-0.057l0.105,-0.055l0.105,-0.053l0.108,-0.05l0.109,-0.048l0.11,-0.045l0.111,-0.042l0.113,-0.04l0.114,-0.037l0.115,-0.034l0.116,-0.032l0.117,-0.029l0.119,-0.026l0.119,-0.023l0.121,-0.02l0.121,-0.017l0.122,-0.014l0.123,-0.011l0.124,-0.008l0.124,-0.004l0.124,-0.002l0.107,0.001Zm-0.208,0.9l-0.101,0.004l-0.101,0.007l-0.1,0.009l-0.1,0.011l-0.099,0.014l-0.098,0.016l-0.097,0.019l-0.096,0.021l-0.096,0.024l-0.095,0.025l-0.093,0.028l-0.093,0.03l-0.092,0.033l-0.091,0.034l-0.09,0.037l-0.088,0.039l-0.088,0.041l-0.086,0.043l-0.086,0.045l-0.084,0.047l-0.083,0.049l-0.081,0.051l-0.08,0.052l-0.079,0.055l-0.078,0.056l-0.076,0.058l-0.075,0.06l-0.073,0.062l-0.072,0.063l-0.07,0.065l-0.069,0.067l-0.067,0.068l-0.066,0.07l-0.064,0.071l-0.062,0.073l-0.061,0.074l-0.058,0.076l-0.057,0.077l-0.055,0.079l-0.054,0.08l-0.051,0.081l-0.05,0.082l-0.047,0.084l-0.046,0.085l-0.044,0.086l-0.041,0.087l-0.04,0.089l-0.037,0.089l-0.036,0.091l-0.033,0.092l-0.031,0.092l-0.028,0.094l-0.027,0.094l-0.024,0.095l-0.022,0.097l-0.019,0.097l-0.017,0.098l-0.015,0.098l-0.012,0.1l-0.01,0.1l-0.007,0.101l-0.005,0.101l-0.002,0.102l0,1.984l-0.5,0l-0.038,0l-0.039,0.002l-0.038,0.002l-0.037,0.004l-0.038,0.004l-0.037,0.005l-0.037,0.007l-0.037,0.007l-0.036,0.008l-0.036,0.009l-0.036,0.009l-0.035,0.011l-0.035,0.011l-0.035,0.013l-0.034,0.013l-0.034,0.014l-0.033,0.014l-0.033,0.016l-0.032,0.016l-0.033,0.017l-0.031,0.018l-0.031,0.018l-0.031,0.02l-0.03,0.02l-0.03,0.02l-0.029,0.022l-0.029,0.022l-0.028,0.022l-0.027,0.024l-0.027,0.024l-0.027,0.024l-0.026,0.025l-0.025,0.026l-0.024,0.027l-0.024,0.027l-0.024,0.027l-0.022,0.028l-0.022,0.029l-0.022,0.029l-0.02,0.03l-0.02,0.03l-0.02,0.031l-0.018,0.031l-0.018,0.031l-0.017,0.033l-0.016,0.032l-0.016,0.033l-0.014,0.033l-0.014,0.034l-0.013,0.034l-0.013,0.035l-0.011,0.035l-0.011,0.035l-0.009,0.036l-0.009,0.036l-0.008,0.036l-0.007,0.037l-0.007,0.037l-0.005,0.037l-0.004,0.038l-0.004,0.037l-0.002,0.038l-0.002,0.039l0,0.038l0,5.016l0.002,0.055l0.004,0.054l0.005,0.055l0.008,0.054l0.01,0.053l0.012,0.054l0.013,0.053l0.016,0.052l6.946,-6.946l-3.016,0l0,-1.984l0.001,-0.051l0.002,-0.051l0.003,-0.051l0.004,-0.05l0.006,-0.05l0.007,-0.05l0.008,-0.049l0.01,-0.049l0.011,-0.048l0.011,-0.048l0.013,-0.048l0.015,-0.047l0.015,-0.047l0.016,-0.046l0.018,-0.045l0.018,-0.045l0.02,-0.045l0.021,-0.044l0.021,-0.043l0.023,-0.043l0.024,-0.042l0.024,-0.042l0.026,-0.041l0.027,-0.04l0.027,-0.039l0.029,-0.039l0.029,-0.039l0.03,-0.037l0.031,-0.037l0.032,-0.036l0.033,-0.035l0.034,-0.034l0.034,-0.034l0.035,-0.033l0.036,-0.032l0.037,-0.031l0.037,-0.03l0.039,-0.029l0.039,-0.029l0.039,-0.027l0.04,-0.027l0.041,-0.026l0.042,-0.024l0.042,-0.024l0.043,-0.023l0.043,-0.021l0.044,-0.021l0.045,-0.02l0.045,-0.018l0.045,-0.018l0.046,-0.016l0.047,-0.015l0.047,-0.015l0.048,-0.013l0.048,-0.011l0.048,-0.011l0.049,-0.01l0.049,-0.008l0.05,-0.007l0.05,-0.006l0.05,-0.004l0.051,-0.003l0.051,-0.002l0.051,-0.001l0.051,0.001l0.051,0.002l0.051,0.003l0.05,0.004l0.05,0.006l0.05,0.007l0.049,0.008l0.049,0.01l0.048,0.011l0.048,0.011l0.048,0.013l0.047,0.015l0.047,0.015l0.046,0.016l0.045,0.018l0.045,0.018l0.045,0.02l0.044,0.021l0.043,0.021l0.043,0.023l0.042,0.024l0.042,0.024l0.041,0.026l0.04,0.027l0.039,0.027l0.039,0.029l0.039,0.029l0.037,0.03l0.037,0.031l0.036,0.032l0.035,0.033l0.034,0.034l0.034,0.034l0.033,0.035l0.032,0.036l0.031,0.037l0.03,0.037l0.029,0.039l0.029,0.039l0.027,0.039l0.027,0.04l0.026,0.041l0.024,0.042l0.024,0.042l0.023,0.043l0.021,0.043l0.021,0.044l0.02,0.045l0.018,0.045l0.018,0.045l0.016,0.046l0.015,0.047l0.015,0.047l0.013,0.048l0.011,0.048l0.011,0.048l0.01,0.049l0.008,0.049l0.007,0.05l0.006,0.05l0.004,0.05l0.003,0.051l0.002,0.051l0.001,0.051l0,1l1.892,-1.892l-0.021,-0.084l-0.022,-0.083l-0.025,-0.082l-0.026,-0.082l-0.027,-0.081l-0.029,-0.079l-0.031,-0.079l-0.033,-0.078l-0.034,-0.078l-0.035,-0.076l-0.037,-0.075l-0.039,-0.075l-0.04,-0.073l-0.042,-0.072l-0.043,-0.072l-0.044,-0.07l-0.046,-0.07l-0.047,-0.068l-0.049,-0.067l-0.049,-0.066l-0.052,-0.065l-0.052,-0.064l-0.054,-0.063l-0.055,-0.062l-0.056,-0.06l-0.057,-0.059l-0.059,-0.058l-0.059,-0.057l-0.061,-0.056l-0.062,-0.054l-0.063,-0.053l-0.064,-0.052l-0.065,-0.05l-0.066,-0.049l-0.067,-0.048l-0.069,-0.046l-0.069,-0.045l-0.07,-0.044l-0.07,-0.042l-0.072,-0.041l-0.073,-0.039l-0.073,-0.037l-0.075,-0.037l-0.075,-0.034l-0.076,-0.034l-0.076,-0.031l-0.078,-0.031l-0.078,-0.028l-0.078,-0.027l-0.08,-0.025l-0.08,-0.024l-0.08,-0.022l-0.082,-0.021l-0.082,-0.018l-0.082,-0.017l-0.083,-0.016l-0.083,-0.013l-0.084,-0.012l-0.085,-0.01l-0.085,-0.008l-0.085,-0.007l-0.086,-0.004l-0.086,-0.003l-0.086,-0.001l-0.102,0.001Zm0.074,2.868l-0.028,0.002l-0.028,0.001l-0.027,0.003l-0.027,0.003l-0.027,0.004l-0.027,0.004l-0.027,0.005l-0.026,0.006l-0.026,0.007l-0.026,0.007l-0.025,0.007l-0.026,0.009l-0.025,0.009l-0.025,0.009l-0.025,0.01l-0.024,0.011l-0.024,0.011l-0.024,0.012l-0.024,0.013l-0.023,0.013l-0.023,0.014l-0.022,0.014l-0.023,0.015l-0.022,0.015l-0.021,0.016l-0.022,0.016l-0.021,0.017l-0.02,0.017l-0.02,0.018l-0.02,0.018l-0.019,0.019l-0.019,0.019l-0.018,0.02l-0.018,0.02l-0.017,0.02l-0.017,0.021l-0.016,0.022l-0.016,0.021l-0.015,0.022l-0.015,0.023l-0.014,0.022l-0.014,0.023l-0.013,0.023l-0.013,0.024l-0.012,0.024l-0.011,0.024l-0.011,0.024l-0.01,0.025l-0.009,0.025l-0.009,0.025l-0.009,0.026l-0.007,0.025l-0.007,0.026l-0.007,0.026l-0.006,0.026l-0.005,0.027l-0.004,0.027l-0.004,0.027l-0.003,0.027l-0.003,0.027l-0.001,0.028l-0.002,0.028l0,0.034l0,1.078l2.116,0l0.071,0.003l0.018,0.002l-0.002,-0.018l-0.003,-0.071l0,-0.994l0,-0.034l-0.002,-0.028l-0.001,-0.028l-0.003,-0.027l-0.003,-0.027l-0.004,-0.027l-0.004,-0.027l-0.005,-0.027l-0.006,-0.026l-0.007,-0.026l-0.007,-0.026l-0.007,-0.025l-0.009,-0.026l-0.009,-0.025l-0.009,-0.025l-0.01,-0.025l-0.011,-0.024l-0.011,-0.024l-0.012,-0.024l-0.013,-0.024l-0.013,-0.023l-0.014,-0.023l-0.014,-0.022l-0.015,-0.023l-0.015,-0.022l-0.016,-0.021l-0.016,-0.022l-0.017,-0.021l-0.017,-0.02l-0.018,-0.02l-0.018,-0.02l-0.019,-0.019l-0.019,-0.019l-0.02,-0.018l-0.02,-0.018l-0.02,-0.017l-0.021,-0.017l-0.022,-0.016l-0.021,-0.016l-0.022,-0.015l-0.023,-0.015l-0.022,-0.014l-0.023,-0.014l-0.023,-0.013l-0.024,-0.013l-0.024,-0.012l-0.024,-0.011l-0.024,-0.011l-0.025,-0.01l-0.025,-0.009l-0.025,-0.009l-0.026,-0.009l-0.025,-0.007l-0.026,-0.007l-0.026,-0.007l-0.026,-0.006l-0.027,-0.005l-0.027,-0.004l-0.027,-0.004l-0.027,-0.003l-0.027,-0.003l-0.028,-0.001l-0.028,-0.002l-0.028,0l-0.028,0Z" style="fill:#e0e0e0;"/></g><path d="M2.277,15.725c-0.549,0 -1,-0.451 -1,-1c0,-0.265 0.106,-0.52 0.293,-0.707l12,-12c0.186,-0.18 0.436,-0.281 0.695,-0.281c0.548,0 1,0.452 1,1c0,0.259 -0.101,0.509 -0.281,0.695l-12,12c-0.187,0.187 -0.442,0.293 -0.707,0.293Z" style="fill:#3131ff;fill-rule:nonzero;"/></svg>