<?xml version="1.0" encoding="UTF-8" standalone="no"?><!DOCTYPE svg PUBLIC "-//W3C//DTD SVG 1.1//EN" "http://www.w3.org/Graphics/SVG/1.1/DTD/svg11.dtd"><svg width="100%" height="100%" viewBox="0 0 16 16" version="1.1" xmlns="http://www.w3.org/2000/svg" xmlns:xlink="http://www.w3.org/1999/xlink" xml:space="preserve" xmlns:serif="http://www.serif.com/" style="fill-rule:evenodd;clip-rule:evenodd;stroke-linejoin:round;stroke-miterlimit:1.41421;"><g><path d="M12,7l1,0c0.552,0 1,0.448 1,1l0,6c0,0.552 -0.448,1 -1,1l-10,0c-0.552,0 -1,-0.448 -1,-1l0,-6c0,-0.552 0.448,-1 1,-1l1,0l0,-2c0,-2.208 1.793,-4 4,-4c2.208,0 4,1.795 4,4l0,2Zm-2,0l0,-2c0,-1.101 -0.898,-2 -2,-2c-1.103,0 -2,0.897 -2,2l0,2l4,0Z" style="fill:#666;fill-rule:nonzero;"/><path d="M8.126,0.102l0.125,0.004l0.125,0.008l0.124,0.011l0.123,0.014l0.122,0.017l0.121,0.021l0.121,0.023l0.119,0.026l0.118,0.029l0.117,0.031l0.116,0.035l0.114,0.037l0.114,0.04l0.112,0.043l0.111,0.045l0.109,0.048l0.108,0.051l0.106,0.053l0.105,0.055l0.104,0.058l0.101,0.06l0.101,0.063l0.098,0.065l0.097,0.067l0.095,0.069l0.094,0.072l0.091,0.074l0.09,0.076l0.088,0.078l0.086,0.08l0.084,0.082l0.082,0.084l0.08,0.086l0.078,0.088l0.075,0.09l0.074,0.091l0.072,0.093l0.069,0.096l0.067,0.096l0.065,0.099l0.063,0.1l0.06,0.102l0.058,0.103l0.055,0.105l0.053,0.107l0.051,0.108l0.047,0.109l0.046,0.111l0.042,0.112l0.04,0.113l0.037,0.114l0.035,0.116l0.032,0.117l0.028,0.118l0.026,0.119l0.023,0.12l0.021,0.122l0.017,0.122l0.014,0.123l0.011,0.123l0.008,0.125l0.004,0.125l0.002,0.12l0,1.106l0.111,0l0.086,0.002l0.096,0.007l0.095,0.013l0.094,0.016l0.092,0.022l0.091,0.025l0.088,0.03l0.087,0.035l0.084,0.038l0.082,0.042l0.08,0.046l0.077,0.049l0.074,0.053l0.072,0.056l0.069,0.06l0.066,0.062l0.062,0.066l0.06,0.069l0.056,0.072l0.053,0.074l0.049,0.077l0.046,0.08l0.042,0.082l0.038,0.084l0.035,0.087l0.03,0.088l0.025,0.091l0.022,0.092l0.016,0.094l0.013,0.095l0.007,0.096l0.002,0.086l0,6.022l-0.002,0.086l-0.007,0.096l-0.013,0.095l-0.016,0.094l-0.022,0.092l-0.025,0.091l-0.03,0.088l-0.035,0.087l-0.038,0.084l-0.042,0.082l-0.046,0.08l-0.049,0.077l-0.053,0.074l-0.056,0.072l-0.06,0.069l-0.062,0.066l-0.066,0.062l-0.069,0.06l-0.072,0.056l-0.074,0.053l-0.077,0.049l-0.08,0.046l-0.082,0.042l-0.084,0.038l-0.087,0.035l-0.088,0.03l-0.091,0.025l-0.092,0.022l-0.094,0.016l-0.095,0.013l-0.096,0.007l-0.086,0.002l-10.022,0l-0.086,-0.002l-0.096,-0.007l-0.095,-0.013l-0.094,-0.016l-0.092,-0.022l-0.091,-0.025l-0.088,-0.03l-0.087,-0.035l-0.084,-0.038l-0.082,-0.042l-0.08,-0.046l-0.077,-0.049l-0.074,-0.053l-0.072,-0.056l-0.069,-0.06l-0.066,-0.062l-0.062,-0.066l-0.06,-0.069l-0.056,-0.072l-0.053,-0.074l-0.049,-0.077l-0.046,-0.08l-0.042,-0.082l-0.038,-0.084l-0.035,-0.087l-0.03,-0.088l-0.025,-0.091l-0.022,-0.092l-0.016,-0.094l-0.013,-0.095l-0.007,-0.096l-0.002,-0.086l0,-6.022l0.002,-0.086l0.007,-0.096l0.013,-0.095l0.016,-0.094l0.022,-0.092l0.025,-0.091l0.03,-0.088l0.035,-0.087l0.038,-0.084l0.042,-0.082l0.046,-0.08l0.049,-0.077l0.053,-0.074l0.056,-0.072l0.06,-0.069l0.062,-0.066l0.066,-0.062l0.069,-0.06l0.072,-0.056l0.074,-0.053l0.077,-0.049l0.08,-0.046l0.082,-0.042l0.084,-0.038l0.087,-0.035l0.088,-0.03l0.091,-0.025l0.092,-0.022l0.094,-0.016l0.095,-0.013l0.096,-0.007l0.086,-0.002l0.111,0l0,-1.106l0.002,-0.12l0.004,-0.125l0.008,-0.125l0.011,-0.124l0.014,-0.123l0.017,-0.122l0.021,-0.121l0.023,-0.12l0.026,-0.12l0.028,-0.118l0.032,-0.117l0.035,-0.116l0.037,-0.114l0.04,-0.114l0.043,-0.112l0.045,-0.11l0.048,-0.11l0.05,-0.108l0.053,-0.106l0.055,-0.105l0.058,-0.103l0.061,-0.102l0.062,-0.1l0.065,-0.099l0.067,-0.097l0.07,-0.095l0.071,-0.093l0.074,-0.092l0.076,-0.09l0.078,-0.088l0.08,-0.085l0.082,-0.084l0.084,-0.083l0.086,-0.08l0.088,-0.078l0.09,-0.075l0.091,-0.074l0.094,-0.072l0.095,-0.069l0.097,-0.067l0.098,-0.065l0.1,-0.063l0.102,-0.06l0.104,-0.058l0.104,-0.055l0.107,-0.053l0.108,-0.051l0.109,-0.047l0.111,-0.046l0.112,-0.042l0.113,-0.04l0.115,-0.037l0.116,-0.035l0.117,-0.032l0.118,-0.028l0.119,-0.026l0.12,-0.024l0.121,-0.02l0.122,-0.017l0.123,-0.014l0.124,-0.011l0.125,-0.008l0.125,-0.004l0.126,-0.002l0.126,0.002Zm-0.229,0.899l-0.103,0.004l-0.101,0.007l-0.102,0.009l-0.1,0.011l-0.1,0.014l-0.099,0.017l-0.098,0.018l-0.097,0.021l-0.096,0.024l-0.095,0.026l-0.095,0.028l-0.093,0.03l-0.092,0.033l-0.092,0.035l-0.09,0.036l-0.089,0.04l-0.088,0.041l-0.087,0.043l-0.086,0.045l-0.084,0.047l-0.083,0.049l-0.082,0.051l-0.08,0.053l-0.08,0.055l-0.077,0.057l-0.077,0.058l-0.074,0.061l-0.074,0.062l-0.072,0.064l-0.07,0.065l-0.069,0.067l-0.067,0.069l-0.065,0.07l-0.064,0.072l-0.062,0.073l-0.06,0.075l-0.059,0.076l-0.056,0.078l-0.055,0.079l-0.053,0.081l-0.051,0.081l-0.05,0.083l-0.047,0.085l-0.045,0.085l-0.043,0.087l-0.041,0.088l-0.039,0.089l-0.037,0.091l-0.035,0.091l-0.033,0.093l-0.03,0.093l-0.028,0.094l-0.026,0.096l-0.023,0.096l-0.022,0.097l-0.018,0.098l-0.017,0.099l-0.014,0.1l-0.011,0.1l-0.009,0.101l-0.007,0.102l-0.004,0.103l-0.001,0.103l0,2l-1,0l-0.051,0.001l-0.051,0.004l-0.05,0.007l-0.049,0.008l-0.049,0.012l-0.047,0.013l-0.047,0.016l-0.045,0.018l-0.044,0.02l-0.044,0.022l-0.041,0.024l-0.041,0.026l-0.039,0.028l-0.038,0.029l-0.036,0.032l-0.035,0.033l-0.033,0.035l-0.032,0.036l-0.029,0.038l-0.028,0.039l-0.026,0.041l-0.024,0.041l-0.022,0.044l-0.02,0.044l-0.018,0.045l-0.016,0.047l-0.013,0.047l-0.012,0.049l-0.008,0.049l-0.007,0.05l-0.004,0.051l-0.001,0.051l0,6l0.001,0.051l0.004,0.051l0.007,0.05l0.008,0.049l0.012,0.049l0.013,0.047l0.016,0.047l0.018,0.045l0.02,0.044l0.022,0.044l0.024,0.041l0.026,0.041l0.028,0.039l0.029,0.038l0.032,0.036l0.033,0.035l0.035,0.033l0.036,0.032l0.038,0.029l0.039,0.028l0.041,0.026l0.041,0.024l0.044,0.022l0.044,0.02l0.045,0.018l0.047,0.016l0.047,0.013l0.049,0.012l0.049,0.008l0.05,0.007l0.051,0.004l0.051,0.001l10,0l0.051,-0.001l0.051,-0.004l0.05,-0.007l0.049,-0.008l0.049,-0.012l0.047,-0.013l0.047,-0.016l0.045,-0.018l0.044,-0.02l0.044,-0.022l0.041,-0.024l0.041,-0.026l0.039,-0.028l0.038,-0.029l0.036,-0.032l0.035,-0.033l0.033,-0.035l0.032,-0.036l0.029,-0.038l0.028,-0.039l0.026,-0.041l0.024,-0.041l0.022,-0.044l0.02,-0.044l0.018,-0.045l0.016,-0.047l0.013,-0.047l0.012,-0.049l0.008,-0.049l0.007,-0.05l0.004,-0.051l0.001,-0.051l0,-6l-0.001,-0.051l-0.004,-0.051l-0.007,-0.05l-0.008,-0.049l-0.012,-0.049l-0.013,-0.047l-0.016,-0.047l-0.018,-0.045l-0.02,-0.044l-0.022,-0.044l-0.024,-0.041l-0.026,-0.041l-0.028,-0.039l-0.029,-0.038l-0.032,-0.036l-0.033,-0.035l-0.035,-0.033l-0.036,-0.032l-0.038,-0.029l-0.039,-0.028l-0.041,-0.026l-0.041,-0.024l-0.044,-0.022l-0.044,-0.02l-0.045,-0.018l-0.047,-0.016l-0.047,-0.013l-0.049,-0.012l-0.049,-0.008l-0.05,-0.007l-0.051,-0.004l-0.051,-0.001l-1,0l0,-2l-0.001,-0.103l-0.004,-0.102l-0.007,-0.102l-0.009,-0.101l-0.011,-0.101l-0.014,-0.099l-0.017,-0.099l-0.018,-0.098l-0.021,-0.097l-0.024,-0.096l-0.026,-0.096l-0.028,-0.094l-0.03,-0.093l-0.033,-0.093l-0.035,-0.091l-0.037,-0.09l-0.039,-0.089l-0.041,-0.088l-0.043,-0.087l-0.045,-0.086l-0.047,-0.084l-0.049,-0.083l-0.051,-0.082l-0.053,-0.081l-0.055,-0.079l-0.057,-0.077l-0.058,-0.077l-0.061,-0.075l-0.062,-0.073l-0.064,-0.072l-0.065,-0.07l-0.067,-0.069l-0.069,-0.067l-0.07,-0.065l-0.072,-0.064l-0.073,-0.062l-0.075,-0.061l-0.076,-0.058l-0.078,-0.057l-0.079,-0.055l-0.081,-0.053l-0.081,-0.051l-0.083,-0.049l-0.085,-0.047l-0.085,-0.046l-0.087,-0.043l-0.088,-0.041l-0.09,-0.039l-0.09,-0.037l-0.091,-0.035l-0.093,-0.032l-0.093,-0.031l-0.094,-0.028l-0.096,-0.026l-0.096,-0.023l-0.097,-0.022l-0.098,-0.018l-0.099,-0.017l-0.1,-0.014l-0.1,-0.011l-0.101,-0.009l-0.102,-0.007l-0.103,-0.004l-0.103,-0.001l-0.103,0.001Zm0.155,2l0.051,0.002l0.051,0.003l0.05,0.004l0.05,0.006l0.05,0.007l0.049,0.008l0.049,0.01l0.049,0.01l0.048,0.012l0.048,0.013l0.047,0.014l0.046,0.015l0.047,0.017l0.045,0.017l0.045,0.019l0.045,0.019l0.044,0.021l0.043,0.021l0.043,0.023l0.042,0.024l0.042,0.024l0.041,0.026l0.04,0.027l0.04,0.027l0.039,0.028l0.038,0.03l0.037,0.03l0.037,0.031l0.036,0.032l0.035,0.033l0.034,0.033l0.034,0.034l0.033,0.036l0.031,0.036l0.031,0.036l0.031,0.038l0.029,0.038l0.028,0.039l0.028,0.039l0.026,0.041l0.026,0.041l0.024,0.041l0.024,0.042l0.023,0.043l0.021,0.043l0.021,0.044l0.019,0.045l0.019,0.045l0.017,0.046l0.017,0.046l0.015,0.047l0.014,0.047l0.013,0.047l0.012,0.048l0.01,0.049l0.01,0.049l0.008,0.049l0.007,0.05l0.006,0.05l0.004,0.051l0.003,0.05l0.002,0.052l0.001,0.051l0,2l-4,0l0,-2l0.001,-0.052l0.002,-0.051l0.003,-0.051l0.004,-0.05l0.006,-0.05l0.007,-0.05l0.008,-0.05l0.01,-0.049l0.01,-0.048l0.012,-0.048l0.013,-0.048l0.014,-0.047l0.015,-0.047l0.017,-0.046l0.017,-0.046l0.018,-0.045l0.02,-0.044l0.02,-0.044l0.022,-0.044l0.023,-0.043l0.023,-0.042l0.025,-0.041l0.025,-0.041l0.027,-0.041l0.027,-0.039l0.029,-0.039l0.029,-0.038l0.03,-0.038l0.031,-0.036l0.032,-0.036l0.033,-0.035l0.033,-0.035l0.035,-0.033l0.035,-0.033l0.036,-0.032l0.036,-0.031l0.038,-0.03l0.038,-0.029l0.039,-0.029l0.039,-0.027l0.041,-0.027l0.041,-0.025l0.041,-0.025l0.042,-0.023l0.043,-0.023l0.044,-0.022l0.044,-0.02l0.044,-0.02l0.045,-0.018l0.046,-0.017l0.046,-0.017l0.047,-0.015l0.047,-0.014l0.048,-0.013l0.048,-0.012l0.048,-0.01l0.049,-0.01l0.05,-0.008l0.05,-0.007l0.05,-0.006l0.05,-0.004l0.051,-0.003l0.051,-0.002l0.052,-0.001l0.052,0.001Zm-0.081,0.899l-0.028,0.002l-0.028,0.001l-0.028,0.003l-0.028,0.003l-0.027,0.004l-0.027,0.004l-0.027,0.005l-0.026,0.006l-0.027,0.007l-0.026,0.007l-0.025,0.007l-0.026,0.009l-0.025,0.009l-0.025,0.009l-0.025,0.01l-0.024,0.011l-0.024,0.011l-0.024,0.012l-0.024,0.012l-0.023,0.013l-0.023,0.014l-0.022,0.014l-0.022,0.015l-0.022,0.015l-0.022,0.015l-0.021,0.017l-0.021,0.016l-0.02,0.017l-0.02,0.018l-0.019,0.018l-0.019,0.019l-0.019,0.019l-0.018,0.019l-0.018,0.02l-0.017,0.02l-0.016,0.021l-0.017,0.021l-0.015,0.022l-0.015,0.022l-0.015,0.022l-0.014,0.022l-0.014,0.023l-0.013,0.023l-0.012,0.024l-0.012,0.024l-0.011,0.024l-0.011,0.024l-0.01,0.025l-0.009,0.025l-0.009,0.025l-0.009,0.026l-0.007,0.025l-0.007,0.026l-0.007,0.027l-0.006,0.026l-0.005,0.027l-0.004,0.027l-0.004,0.027l-0.003,0.028l-0.003,0.028l-0.001,0.028l-0.002,0.028l0,0.035l0,1.094l2.2,0l0,-1.094l0,-0.035l-0.002,-0.028l-0.001,-0.028l-0.003,-0.028l-0.003,-0.027l-0.004,-0.027l-0.004,-0.027l-0.005,-0.027l-0.006,-0.026l-0.007,-0.027l-0.007,-0.026l-0.007,-0.025l-0.009,-0.026l-0.009,-0.025l-0.009,-0.025l-0.01,-0.025l-0.011,-0.024l-0.011,-0.024l-0.012,-0.024l-0.012,-0.023l-0.013,-0.024l-0.014,-0.023l-0.014,-0.022l-0.015,-0.022l-0.015,-0.022l-0.016,-0.022l-0.016,-0.021l-0.017,-0.021l-0.017,-0.02l-0.018,-0.02l-0.018,-0.019l-0.018,-0.02l-0.019,-0.018l-0.02,-0.018l-0.02,-0.018l-0.02,-0.017l-0.021,-0.017l-0.021,-0.016l-0.022,-0.016l-0.021,-0.015l-0.023,-0.015l-0.022,-0.014l-0.023,-0.013l-0.023,-0.013l-0.024,-0.013l-0.024,-0.012l-0.024,-0.011l-0.024,-0.011l-0.025,-0.01l-0.025,-0.009l-0.025,-0.009l-0.025,-0.009l-0.026,-0.007l-0.026,-0.007l-0.026,-0.007l-0.027,-0.006l-0.027,-0.005l-0.027,-0.004l-0.027,-0.004l-0.027,-0.003l-0.028,-0.003l-0.028,-0.001l-0.028,-0.002l-0.029,0l-0.029,0Z" style="fill:#e0e0e0;"/></g></svg>