<?xml version="1.0" encoding="UTF-8" standalone="no"?><!DOCTYPE svg PUBLIC "-//W3C//DTD SVG 1.1//EN" "http://www.w3.org/Graphics/SVG/1.1/DTD/svg11.dtd"><svg width="100%" height="100%" viewBox="0 0 16 16" version="1.1" xmlns="http://www.w3.org/2000/svg" xmlns:xlink="http://www.w3.org/1999/xlink" xml:space="preserve" xmlns:serif="http://www.serif.com/" style="fill-rule:evenodd;clip-rule:evenodd;stroke-linejoin:round;stroke-miterlimit:1.41421;"><path d="M12,7l1,0c0.552,0 1,0.448 1,1l0,6c0,0.552 -0.448,1 -1,1l-10,0c-0.552,0 -1,-0.448 -1,-1l0,-6c0,-0.552 0.448,-1 1,-1l1,0l0,-2c0,-2.208 1.793,-4 4,-4c2.208,0 4,1.795 4,4l0,2Zm-2,0l0,-2c0,-1.101 -0.898,-2 -2,-2c-1.103,0 -2,0.897 -2,2l0,2l4,0Z" style="fill:#3131ff;fill-rule:nonzero;"/></svg>