<?xml version="1.0" encoding="UTF-8" standalone="no"?><!DOCTYPE svg PUBLIC "-//W3C//DTD SVG 1.1//EN" "http://www.w3.org/Graphics/SVG/1.1/DTD/svg11.dtd"><svg width="100%" height="100%" viewBox="0 0 20 25" version="1.1" xmlns="http://www.w3.org/2000/svg" xmlns:xlink="http://www.w3.org/1999/xlink" xml:space="preserve" xmlns:serif="http://www.serif.com/" style="fill-rule:evenodd;clip-rule:evenodd;stroke-linejoin:round;stroke-miterlimit:1.41421;"><path d="M2,6c-1.11,0 -2,0.89 -2,2l0,10c0,1.097 0.903,2 2,2l8,0l0,5l3,-3l3,3l0,-5l2,0c1.097,0 2,-0.903 2,-2l0,-7l0,-2l0,-1c0,-1.097 -0.903,-2 -2,-2l-4,0l-12,0m8,2l3,2l3,-2l0,3.5l3,1.5l-3,1.5l0,3.5l-3,-2l-3,2l0,-3.5l-3,-1.5l3,-1.5l0,-3.5m-8,0l5,0l0,2l-5,0l0,-2m0,4l3,0l0,2l-3,0l0,-2m0,4l5,0l0,2l-5,0l0,-2Z" style="fill:#787878;fill-rule:nonzero;"/></svg>